999
"DXF R12 Output" (www.mydxf.blogspot.com)
 0 
SECTION
 2 
HEADER
 9 
$ACADVER
 1 
AC1009
 9 
$EXTMIN
 10 
 0 
 20 
 0 
 9 
$EXTMAX
 10 
 8.5 
 20 
 11 
 0 
ENDSEC
 0 
SECTION
 2 
ENTITIES
0
LINE
8
0
10
65.132211
20
357.988237
11
65.132211
21
357.802237
0
LINE
8
0
10
65.132211
20
357.802237
11
65.113717
21
357.244237
0
LINE
8
0
10
65.113717
20
357.244237
11
65.058718
21
356.505238
0
LINE
8
0
10
65.058718
20
356.505238
11
64.967818
21
355.773240
0
LINE
8
0
10
64.967818
20
355.773240
11
64.841218
21
355.048241
0
LINE
8
0
10
64.841218
20
355.048241
11
64.679819
21
354.332242
0
LINE
8
0
10
64.679819
20
354.332242
11
64.483919
21
353.625242
0
LINE
8
0
10
64.483919
20
353.625242
11
64.253920
21
352.930243
0
LINE
8
0
10
64.253920
20
352.930243
11
63.990419
21
352.248243
0
LINE
8
0
10
63.990419
20
352.248243
11
63.694020
21
351.579245
0
LINE
8
0
10
63.694020
20
351.579245
11
63.365120
21
350.925244
0
LINE
8
0
10
63.365120
20
350.925244
11
63.004321
21
350.287247
0
LINE
8
0
10
63.004321
20
350.287247
11
62.612122
21
349.666247
0
LINE
8
0
10
62.612122
20
349.666247
11
62.188921
21
349.064246
0
LINE
8
0
10
62.188921
20
349.064246
11
61.735323
21
348.482248
0
LINE
8
0
10
61.735323
20
348.482248
11
61.251824
21
347.920549
0
LINE
8
0
10
61.251824
20
347.920549
11
60.870324
21
347.513049
0
LINE
8
0
10
60.870324
20
347.513049
11
60.738924
21
347.381451
0
LINE
8
0
10
60.738924
20
347.381451
11
60.607323
21
347.250051
0
LINE
8
0
10
60.607323
20
347.250051
11
60.199823
21
346.868649
0
LINE
8
0
10
60.199823
20
346.868649
11
59.638624
21
346.385050
0
LINE
8
0
10
59.638624
20
346.385050
11
59.056224
21
345.931451
0
LINE
8
0
10
59.056224
20
345.931451
11
58.454126
21
345.508251
0
LINE
8
0
10
58.454126
20
345.508251
11
57.833626
21
345.116051
0
LINE
8
0
10
57.833626
20
345.116051
11
57.195528
21
344.755353
0
LINE
8
0
10
57.195528
20
344.755353
11
56.541429
21
344.426453
0
LINE
8
0
10
56.541429
20
344.426453
11
55.872529
21
344.129953
0
LINE
8
0
10
55.872529
20
344.129953
11
55.189730
21
343.866455
0
LINE
8
0
10
55.189730
20
343.866455
11
54.494731
21
343.636456
0
LINE
8
0
10
54.494731
20
343.636456
11
53.788533
21
343.440556
0
LINE
8
0
10
53.788533
20
343.440556
11
53.072232
21
343.279155
0
LINE
8
0
10
53.072232
20
343.279155
11
52.347233
21
343.152555
0
LINE
8
0
10
52.347233
20
343.152555
11
51.614735
21
343.061654
0
LINE
8
0
10
51.614735
20
343.061654
11
50.876035
21
343.006656
0
LINE
8
0
10
50.876035
20
343.006656
11
50.318236
21
342.988161
0
LINE
8
0
10
50.318236
20
342.988161
11
50.132236
21
342.988161
0
LINE
8
0
10
50.132236
20
342.988161
11
49.946237
21
342.988161
0
LINE
8
0
10
49.946237
20
342.988161
11
49.388438
21
343.006656
0
LINE
8
0
10
49.388438
20
343.006656
11
48.649638
21
343.061654
0
LINE
8
0
10
48.649638
20
343.061654
11
47.917240
21
343.152555
0
LINE
8
0
10
47.917240
20
343.152555
11
47.192240
21
343.279155
0
LINE
8
0
10
47.192240
20
343.279155
11
46.476041
21
343.440556
0
LINE
8
0
10
46.476041
20
343.440556
11
45.769641
21
343.636456
0
LINE
8
0
10
45.769641
20
343.636456
11
45.074642
21
343.866455
0
LINE
8
0
10
45.074642
20
343.866455
11
44.391944
21
344.129953
0
LINE
8
0
10
44.391944
20
344.129953
11
43.722946
21
344.426453
0
LINE
8
0
10
43.722946
20
344.426453
11
43.068944
21
344.755353
0
LINE
8
0
10
43.068944
20
344.755353
11
42.430847
21
345.116051
0
LINE
8
0
10
42.430847
20
345.116051
11
41.810146
21
345.508251
0
LINE
8
0
10
41.810146
20
345.508251
11
41.208048
21
345.931451
0
LINE
8
0
10
41.208048
20
345.931451
11
40.625848
21
346.385050
0
LINE
8
0
10
40.625848
20
346.385050
11
40.064649
21
346.868649
0
LINE
8
0
10
40.064649
20
346.868649
11
39.657149
21
347.250051
0
LINE
8
0
10
39.657149
20
347.250051
11
39.525551
21
347.381451
0
LINE
8
0
10
39.525551
20
347.381451
11
39.394151
21
347.513049
0
LINE
8
0
10
39.394151
20
347.513049
11
39.012652
21
347.920549
0
LINE
8
0
10
39.012652
20
347.920549
11
38.529150
21
348.482248
0
LINE
8
0
10
38.529150
20
348.482248
11
38.075551
21
349.064246
0
LINE
8
0
10
38.075551
20
349.064246
11
37.652354
21
349.666247
0
LINE
8
0
10
37.652354
20
349.666247
11
37.260154
21
350.287247
0
LINE
8
0
10
37.260154
20
350.287247
11
36.899353
21
350.925244
0
LINE
8
0
10
36.899353
20
350.925244
11
36.570455
21
351.579245
0
LINE
8
0
10
36.570455
20
351.579245
11
36.274053
21
352.248243
0
LINE
8
0
10
36.274053
20
352.248243
11
36.010555
21
352.930243
0
LINE
8
0
10
36.010555
20
352.930243
11
35.780556
21
353.625242
0
LINE
8
0
10
35.780556
20
353.625242
11
35.584656
21
354.332242
0
LINE
8
0
10
35.584656
20
354.332242
11
35.423057
21
355.048241
0
LINE
8
0
10
35.423057
20
355.048241
11
35.296554
21
355.773240
0
LINE
8
0
10
35.296554
20
355.773240
11
35.205556
21
356.505238
0
LINE
8
0
10
35.205556
20
356.505238
11
35.150555
21
357.244237
0
LINE
8
0
10
35.150555
20
357.244237
11
35.132246
21
357.802237
0
LINE
8
0
10
35.132246
20
357.802237
11
35.132246
21
357.988237
0
LINE
8
0
10
35.132246
20
357.988237
11
35.132246
21
358.174236
0
LINE
8
0
10
35.132246
20
358.174236
11
35.150555
21
358.732236
0
LINE
8
0
10
35.150555
20
358.732236
11
35.205556
21
359.471235
0
LINE
8
0
10
35.205556
20
359.471235
11
35.296554
21
360.203233
0
LINE
8
0
10
35.296554
20
360.203233
11
35.423057
21
360.928233
0
LINE
8
0
10
35.423057
20
360.928233
11
35.584656
21
361.644231
0
LINE
8
0
10
35.584656
20
361.644231
11
35.780556
21
362.351231
0
LINE
8
0
10
35.780556
20
362.351231
11
36.010555
21
363.046230
0
LINE
8
0
10
36.010555
20
363.046230
11
36.274053
21
363.728230
0
LINE
8
0
10
36.274053
20
363.728230
11
36.570455
21
364.397228
0
LINE
8
0
10
36.570455
20
364.397228
11
36.899353
21
365.051227
0
LINE
8
0
10
36.899353
20
365.051227
11
37.260154
21
365.689226
0
LINE
8
0
10
37.260154
20
365.689226
11
37.652354
21
366.310227
0
LINE
8
0
10
37.652354
20
366.310227
11
38.075551
21
366.912224
0
LINE
8
0
10
38.075551
20
366.912224
11
38.529150
21
367.494225
0
LINE
8
0
10
38.529150
20
367.494225
11
39.012652
21
368.056223
0
LINE
8
0
10
39.012652
20
368.056223
11
39.394151
21
368.463223
0
LINE
8
0
10
39.394151
20
368.463223
11
39.525551
21
368.595224
0
LINE
8
0
10
39.525551
20
368.595224
11
39.657149
21
368.726224
0
LINE
8
0
10
39.657149
20
368.726224
11
40.064649
21
369.107221
0
LINE
8
0
10
40.064649
20
369.107221
11
40.625848
21
369.591222
0
LINE
8
0
10
40.625848
20
369.591222
11
41.208048
21
370.045220
0
LINE
8
0
10
41.208048
20
370.045220
11
41.810146
21
370.468220
0
LINE
8
0
10
41.810146
20
370.468220
11
42.430847
21
370.860221
0
LINE
8
0
10
42.430847
20
370.860221
11
43.068944
21
371.221220
0
LINE
8
0
10
43.068944
20
371.221220
11
43.722946
21
371.550219
0
LINE
8
0
10
43.722946
20
371.550219
11
44.391944
21
371.846218
0
LINE
8
0
10
44.391944
20
371.846218
11
45.074642
21
372.110219
0
LINE
8
0
10
45.074642
20
372.110219
11
45.769641
21
372.340219
0
LINE
8
0
10
45.769641
20
372.340219
11
46.476041
21
372.536219
0
LINE
8
0
10
46.476041
20
372.536219
11
47.192240
21
372.697218
0
LINE
8
0
10
47.192240
20
372.697218
11
47.917240
21
372.824218
0
LINE
8
0
10
47.917240
20
372.824218
11
48.649638
21
372.915218
0
LINE
8
0
10
48.649638
20
372.915218
11
49.388438
21
372.970217
0
LINE
8
0
10
49.388438
20
372.970217
11
49.946237
21
372.988209
0
LINE
8
0
10
49.946237
20
372.988209
11
50.132236
21
372.988209
0
LINE
8
0
10
50.132236
20
372.988209
11
50.318236
21
372.988209
0
LINE
8
0
10
50.318236
20
372.988209
11
50.876035
21
372.970217
0
LINE
8
0
10
50.876035
20
372.970217
11
51.614735
21
372.915218
0
LINE
8
0
10
51.614735
20
372.915218
11
52.347233
21
372.824218
0
LINE
8
0
10
52.347233
20
372.824218
11
53.072232
21
372.697218
0
LINE
8
0
10
53.072232
20
372.697218
11
53.788533
21
372.536219
0
LINE
8
0
10
53.788533
20
372.536219
11
54.494731
21
372.340219
0
LINE
8
0
10
54.494731
20
372.340219
11
55.189730
21
372.110219
0
LINE
8
0
10
55.189730
20
372.110219
11
55.872529
21
371.846218
0
LINE
8
0
10
55.872529
20
371.846218
11
56.541429
21
371.550219
0
LINE
8
0
10
56.541429
20
371.550219
11
57.195528
21
371.221220
0
LINE
8
0
10
57.195528
20
371.221220
11
57.833626
21
370.860221
0
LINE
8
0
10
57.833626
20
370.860221
11
58.454126
21
370.468220
0
LINE
8
0
10
58.454126
20
370.468220
11
59.056224
21
370.045220
0
LINE
8
0
10
59.056224
20
370.045220
11
59.638624
21
369.591222
0
LINE
8
0
10
59.638624
20
369.591222
11
60.199823
21
369.107221
0
LINE
8
0
10
60.199823
20
369.107221
11
60.607323
21
368.726224
0
LINE
8
0
10
60.607323
20
368.726224
11
60.738924
21
368.595224
0
LINE
8
0
10
60.738924
20
368.595224
11
60.870324
21
368.463223
0
LINE
8
0
10
60.870324
20
368.463223
11
61.251824
21
368.056223
0
LINE
8
0
10
61.251824
20
368.056223
11
61.735323
21
367.494225
0
LINE
8
0
10
61.735323
20
367.494225
11
62.188921
21
366.912224
0
LINE
8
0
10
62.188921
20
366.912224
11
62.612122
21
366.310227
0
LINE
8
0
10
62.612122
20
366.310227
11
63.004321
21
365.689226
0
LINE
8
0
10
63.004321
20
365.689226
11
63.365120
21
365.051227
0
LINE
8
0
10
63.365120
20
365.051227
11
63.694020
21
364.397228
0
LINE
8
0
10
63.694020
20
364.397228
11
63.990419
21
363.728230
0
LINE
8
0
10
63.990419
20
363.728230
11
64.253920
21
363.046230
0
LINE
8
0
10
64.253920
20
363.046230
11
64.483919
21
362.351231
0
LINE
8
0
10
64.483919
20
362.351231
11
64.679819
21
361.644231
0
LINE
8
0
10
64.679819
20
361.644231
11
64.841218
21
360.928233
0
LINE
8
0
10
64.841218
20
360.928233
11
64.967818
21
360.203233
0
LINE
8
0
10
64.967818
20
360.203233
11
65.058718
21
359.471235
0
LINE
8
0
10
65.058718
20
359.471235
11
65.113717
21
358.732236
0
LINE
8
0
10
65.113717
20
358.732236
11
65.132211
21
358.174236
0
LINE
8
0
10
65.132211
20
358.174236
11
65.132211
21
357.988237
0
LINE
8
0
10
128.132133
20
357.988237
11
128.132133
21
357.802237
0
LINE
8
0
10
128.132133
20
357.802237
11
128.114141
21
357.244237
0
LINE
8
0
10
128.114141
20
357.244237
11
128.059142
21
356.505238
0
LINE
8
0
10
128.059142
20
356.505238
11
127.968142
21
355.773240
0
LINE
8
0
10
127.968142
20
355.773240
11
127.841142
21
355.048241
0
LINE
8
0
10
127.841142
20
355.048241
11
127.680140
21
354.332242
0
LINE
8
0
10
127.680140
20
354.332242
11
127.484143
21
353.625242
0
LINE
8
0
10
127.484143
20
353.625242
11
127.254143
21
352.930243
0
LINE
8
0
10
127.254143
20
352.930243
11
126.990142
21
352.248243
0
LINE
8
0
10
126.990142
20
352.248243
11
126.694143
21
351.579245
0
LINE
8
0
10
126.694143
20
351.579245
11
126.365144
21
350.925244
0
LINE
8
0
10
126.365144
20
350.925244
11
126.004145
21
350.287247
0
LINE
8
0
10
126.004145
20
350.287247
11
125.612144
21
349.666247
0
LINE
8
0
10
125.612144
20
349.666247
11
125.189144
21
349.064246
0
LINE
8
0
10
125.189144
20
349.064246
11
124.735146
21
348.482248
0
LINE
8
0
10
124.735146
20
348.482248
11
124.252145
21
347.920549
0
LINE
8
0
10
124.252145
20
347.920549
11
123.870145
21
347.513049
0
LINE
8
0
10
123.870145
20
347.513049
11
123.739148
21
347.381451
0
LINE
8
0
10
123.739148
20
347.381451
11
123.607147
21
347.250051
0
LINE
8
0
10
123.607147
20
347.250051
11
123.200147
21
346.868649
0
LINE
8
0
10
123.200147
20
346.868649
11
122.638149
21
346.385050
0
LINE
8
0
10
122.638149
20
346.385050
11
122.056148
21
345.931451
0
LINE
8
0
10
122.056148
20
345.931451
11
121.454151
21
345.508251
0
LINE
8
0
10
121.454151
20
345.508251
11
120.833150
21
345.116051
0
LINE
8
0
10
120.833150
20
345.116051
11
120.195151
21
344.755353
0
LINE
8
0
10
120.195151
20
344.755353
11
119.541152
21
344.426453
0
LINE
8
0
10
119.541152
20
344.426453
11
118.872154
21
344.129953
0
LINE
8
0
10
118.872154
20
344.129953
11
118.189154
21
343.866455
0
LINE
8
0
10
118.189154
20
343.866455
11
117.494155
21
343.636456
0
LINE
8
0
10
117.494155
20
343.636456
11
116.788155
21
343.440556
0
LINE
8
0
10
116.788155
20
343.440556
11
116.072157
21
343.279155
0
LINE
8
0
10
116.072157
20
343.279155
11
115.347157
21
343.152555
0
LINE
8
0
10
115.347157
20
343.152555
11
114.615159
21
343.061654
0
LINE
8
0
10
114.615159
20
343.061654
11
113.876160
21
343.006656
0
LINE
8
0
10
113.876160
20
343.006656
11
113.318160
21
342.988161
0
LINE
8
0
10
113.318160
20
342.988161
11
113.132161
21
342.988161
0
LINE
8
0
10
113.132161
20
342.988161
11
112.946161
21
342.988161
0
LINE
8
0
10
112.946161
20
342.988161
11
112.388161
21
343.006656
0
LINE
8
0
10
112.388161
20
343.006656
11
111.649162
21
343.061654
0
LINE
8
0
10
111.649162
20
343.061654
11
110.917162
21
343.152555
0
LINE
8
0
10
110.917162
20
343.152555
11
110.192165
21
343.279155
0
LINE
8
0
10
110.192165
20
343.279155
11
109.476166
21
343.440556
0
LINE
8
0
10
109.476166
20
343.440556
11
108.769166
21
343.636456
0
LINE
8
0
10
108.769166
20
343.636456
11
108.074167
21
343.866455
0
LINE
8
0
10
108.074167
20
343.866455
11
107.392167
21
344.129953
0
LINE
8
0
10
107.392167
20
344.129953
11
106.723169
21
344.426453
0
LINE
8
0
10
106.723169
20
344.426453
11
106.069168
21
344.755353
0
LINE
8
0
10
106.069168
20
344.755353
11
105.431171
21
345.116051
0
LINE
8
0
10
105.431171
20
345.116051
11
104.810171
21
345.508251
0
LINE
8
0
10
104.810171
20
345.508251
11
104.208170
21
345.931451
0
LINE
8
0
10
104.208170
20
345.931451
11
103.625773
21
346.385050
0
LINE
8
0
10
103.625773
20
346.385050
11
103.064574
21
346.868649
0
LINE
8
0
10
103.064574
20
346.868649
11
102.657074
21
347.250051
0
LINE
8
0
10
102.657074
20
347.250051
11
102.525473
21
347.381451
0
LINE
8
0
10
102.525473
20
347.381451
11
102.394073
21
347.513049
0
LINE
8
0
10
102.394073
20
347.513049
11
102.012573
21
347.920549
0
LINE
8
0
10
102.012573
20
347.920549
11
101.529074
21
348.482248
0
LINE
8
0
10
101.529074
20
348.482248
11
101.075476
21
349.064246
0
LINE
8
0
10
101.075476
20
349.064246
11
100.652275
21
349.666247
0
LINE
8
0
10
100.652275
20
349.666247
11
100.260076
21
350.287247
0
LINE
8
0
10
100.260076
20
350.287247
11
99.899277
21
350.925244
0
LINE
8
0
10
99.899277
20
350.925244
11
99.570377
21
351.579245
0
LINE
8
0
10
99.570377
20
351.579245
11
99.273978
21
352.248243
0
LINE
8
0
10
99.273978
20
352.248243
11
99.010477
21
352.930243
0
LINE
8
0
10
99.010477
20
352.930243
11
98.780478
21
353.625242
0
LINE
8
0
10
98.780478
20
353.625242
11
98.584578
21
354.332242
0
LINE
8
0
10
98.584578
20
354.332242
11
98.422978
21
355.048241
0
LINE
8
0
10
98.422978
20
355.048241
11
98.296478
21
355.773240
0
LINE
8
0
10
98.296478
20
355.773240
11
98.205478
21
356.505238
0
LINE
8
0
10
98.205478
20
356.505238
11
98.150479
21
357.244237
0
LINE
8
0
10
98.150479
20
357.244237
11
98.132170
21
357.802237
0
LINE
8
0
10
98.132170
20
357.802237
11
98.132170
21
357.988237
0
LINE
8
0
10
98.132170
20
357.988237
11
98.132170
21
358.174236
0
LINE
8
0
10
98.132170
20
358.174236
11
98.150479
21
358.732236
0
LINE
8
0
10
98.150479
20
358.732236
11
98.205478
21
359.471235
0
LINE
8
0
10
98.205478
20
359.471235
11
98.296478
21
360.203233
0
LINE
8
0
10
98.296478
20
360.203233
11
98.422978
21
360.928233
0
LINE
8
0
10
98.422978
20
360.928233
11
98.584578
21
361.644231
0
LINE
8
0
10
98.584578
20
361.644231
11
98.780478
21
362.351231
0
LINE
8
0
10
98.780478
20
362.351231
11
99.010477
21
363.046230
0
LINE
8
0
10
99.010477
20
363.046230
11
99.273978
21
363.728230
0
LINE
8
0
10
99.273978
20
363.728230
11
99.570377
21
364.397228
0
LINE
8
0
10
99.570377
20
364.397228
11
99.899277
21
365.051227
0
LINE
8
0
10
99.899277
20
365.051227
11
100.260076
21
365.689226
0
LINE
8
0
10
100.260076
20
365.689226
11
100.652275
21
366.310227
0
LINE
8
0
10
100.652275
20
366.310227
11
101.075476
21
366.912224
0
LINE
8
0
10
101.075476
20
366.912224
11
101.529074
21
367.494225
0
LINE
8
0
10
101.529074
20
367.494225
11
102.012573
21
368.056223
0
LINE
8
0
10
102.012573
20
368.056223
11
102.394073
21
368.463223
0
LINE
8
0
10
102.394073
20
368.463223
11
102.525473
21
368.595224
0
LINE
8
0
10
102.525473
20
368.595224
11
102.657074
21
368.726224
0
LINE
8
0
10
102.657074
20
368.726224
11
103.064574
21
369.107221
0
LINE
8
0
10
103.064574
20
369.107221
11
103.625773
21
369.591222
0
LINE
8
0
10
103.625773
20
369.591222
11
104.208170
21
370.045220
0
LINE
8
0
10
104.208170
20
370.045220
11
104.810171
21
370.468220
0
LINE
8
0
10
104.810171
20
370.468220
11
105.431171
21
370.860221
0
LINE
8
0
10
105.431171
20
370.860221
11
106.069168
21
371.221220
0
LINE
8
0
10
106.069168
20
371.221220
11
106.723169
21
371.550219
0
LINE
8
0
10
106.723169
20
371.550219
11
107.392167
21
371.846218
0
LINE
8
0
10
107.392167
20
371.846218
11
108.074167
21
372.110219
0
LINE
8
0
10
108.074167
20
372.110219
11
108.769166
21
372.340219
0
LINE
8
0
10
108.769166
20
372.340219
11
109.476166
21
372.536219
0
LINE
8
0
10
109.476166
20
372.536219
11
110.192165
21
372.697218
0
LINE
8
0
10
110.192165
20
372.697218
11
110.917162
21
372.824218
0
LINE
8
0
10
110.917162
20
372.824218
11
111.649162
21
372.915218
0
LINE
8
0
10
111.649162
20
372.915218
11
112.388161
21
372.970217
0
LINE
8
0
10
112.388161
20
372.970217
11
112.946161
21
372.988209
0
LINE
8
0
10
112.946161
20
372.988209
11
113.132161
21
372.988209
0
LINE
8
0
10
113.132161
20
372.988209
11
113.318160
21
372.988209
0
LINE
8
0
10
113.318160
20
372.988209
11
113.876160
21
372.970217
0
LINE
8
0
10
113.876160
20
372.970217
11
114.615159
21
372.915218
0
LINE
8
0
10
114.615159
20
372.915218
11
115.347157
21
372.824218
0
LINE
8
0
10
115.347157
20
372.824218
11
116.072157
21
372.697218
0
LINE
8
0
10
116.072157
20
372.697218
11
116.788155
21
372.536219
0
LINE
8
0
10
116.788155
20
372.536219
11
117.494155
21
372.340219
0
LINE
8
0
10
117.494155
20
372.340219
11
118.189154
21
372.110219
0
LINE
8
0
10
118.189154
20
372.110219
11
118.872154
21
371.846218
0
LINE
8
0
10
118.872154
20
371.846218
11
119.541152
21
371.550219
0
LINE
8
0
10
119.541152
20
371.550219
11
120.195151
21
371.221220
0
LINE
8
0
10
120.195151
20
371.221220
11
120.833150
21
370.860221
0
LINE
8
0
10
120.833150
20
370.860221
11
121.454151
21
370.468220
0
LINE
8
0
10
121.454151
20
370.468220
11
122.056148
21
370.045220
0
LINE
8
0
10
122.056148
20
370.045220
11
122.638149
21
369.591222
0
LINE
8
0
10
122.638149
20
369.591222
11
123.200147
21
369.107221
0
LINE
8
0
10
123.200147
20
369.107221
11
123.607147
21
368.726224
0
LINE
8
0
10
123.607147
20
368.726224
11
123.739148
21
368.595224
0
LINE
8
0
10
123.739148
20
368.595224
11
123.870145
21
368.463223
0
LINE
8
0
10
123.870145
20
368.463223
11
124.252145
21
368.056223
0
LINE
8
0
10
124.252145
20
368.056223
11
124.735146
21
367.494225
0
LINE
8
0
10
124.735146
20
367.494225
11
125.189144
21
366.912224
0
LINE
8
0
10
125.189144
20
366.912224
11
125.612144
21
366.310227
0
LINE
8
0
10
125.612144
20
366.310227
11
126.004145
21
365.689226
0
LINE
8
0
10
126.004145
20
365.689226
11
126.365144
21
365.051227
0
LINE
8
0
10
126.365144
20
365.051227
11
126.694143
21
364.397228
0
LINE
8
0
10
126.694143
20
364.397228
11
126.990142
21
363.728230
0
LINE
8
0
10
126.990142
20
363.728230
11
127.254143
21
363.046230
0
LINE
8
0
10
127.254143
20
363.046230
11
127.484143
21
362.351231
0
LINE
8
0
10
127.484143
20
362.351231
11
127.680140
21
361.644231
0
LINE
8
0
10
127.680140
20
361.644231
11
127.841142
21
360.928233
0
LINE
8
0
10
127.841142
20
360.928233
11
127.968142
21
360.203233
0
LINE
8
0
10
127.968142
20
360.203233
11
128.059142
21
359.471235
0
LINE
8
0
10
128.059142
20
359.471235
11
128.114141
21
358.732236
0
LINE
8
0
10
128.114141
20
358.732236
11
128.132133
21
358.174236
0
LINE
8
0
10
128.132133
20
358.174236
11
128.132133
21
357.988237
0
LINE
8
0
10
191.132054
20
357.988237
11
191.132054
21
357.802237
0
LINE
8
0
10
191.132054
20
357.802237
11
191.114063
21
357.244237
0
LINE
8
0
10
191.114063
20
357.244237
11
191.058061
21
356.505238
0
LINE
8
0
10
191.058061
20
356.505238
11
190.968061
21
355.773240
0
LINE
8
0
10
190.968061
20
355.773240
11
190.842061
21
355.048241
0
LINE
8
0
10
190.842061
20
355.048241
11
190.679062
21
354.332242
0
LINE
8
0
10
190.679062
20
354.332242
11
190.483061
21
353.625242
0
LINE
8
0
10
190.483061
20
353.625242
11
190.254062
21
352.930243
0
LINE
8
0
10
190.254062
20
352.930243
11
189.990064
21
352.248243
0
LINE
8
0
10
189.990064
20
352.248243
11
189.693064
21
351.579245
0
LINE
8
0
10
189.693064
20
351.579245
11
189.365063
21
350.925244
0
LINE
8
0
10
189.365063
20
350.925244
11
189.004064
21
350.287247
0
LINE
8
0
10
189.004064
20
350.287247
11
188.611065
21
349.666247
0
LINE
8
0
10
188.611065
20
349.666247
11
188.189066
21
349.064246
0
LINE
8
0
10
188.189066
20
349.064246
11
187.735065
21
348.482248
0
LINE
8
0
10
187.735065
20
348.482248
11
187.251066
21
347.920549
0
LINE
8
0
10
187.251066
20
347.920549
11
186.869067
21
347.513049
0
LINE
8
0
10
186.869067
20
347.513049
11
186.739067
21
347.381451
0
LINE
8
0
10
186.739067
20
347.381451
11
186.607066
21
347.250051
0
LINE
8
0
10
186.607066
20
347.250051
11
186.200069
21
346.868649
0
LINE
8
0
10
186.200069
20
346.868649
11
185.639068
21
346.385050
0
LINE
8
0
10
185.639068
20
346.385050
11
185.056070
21
345.931451
0
LINE
8
0
10
185.056070
20
345.931451
11
184.454070
21
345.508251
0
LINE
8
0
10
184.454070
20
345.508251
11
183.833072
21
345.116051
0
LINE
8
0
10
183.833072
20
345.116051
11
183.196073
21
344.755353
0
LINE
8
0
10
183.196073
20
344.755353
11
182.542074
21
344.426453
0
LINE
8
0
10
182.542074
20
344.426453
11
181.872073
21
344.129953
0
LINE
8
0
10
181.872073
20
344.129953
11
181.189076
21
343.866455
0
LINE
8
0
10
181.189076
20
343.866455
11
180.494074
21
343.636456
0
LINE
8
0
10
180.494074
20
343.636456
11
179.789077
21
343.440556
0
LINE
8
0
10
179.789077
20
343.440556
11
179.072078
21
343.279155
0
LINE
8
0
10
179.072078
20
343.279155
11
178.347078
21
343.152555
0
LINE
8
0
10
178.347078
20
343.152555
11
177.614078
21
343.061654
0
LINE
8
0
10
177.614078
20
343.061654
11
176.876079
21
343.006656
0
LINE
8
0
10
176.876079
20
343.006656
11
176.318081
21
342.988161
0
LINE
8
0
10
176.318081
20
342.988161
11
176.132080
21
342.988161
0
LINE
8
0
10
176.132080
20
342.988161
11
175.946080
21
342.988161
0
LINE
8
0
10
175.946080
20
342.988161
11
175.388080
21
343.006656
0
LINE
8
0
10
175.388080
20
343.006656
11
174.650081
21
343.061654
0
LINE
8
0
10
174.650081
20
343.061654
11
173.917083
21
343.152555
0
LINE
8
0
10
173.917083
20
343.152555
11
173.192084
21
343.279155
0
LINE
8
0
10
173.192084
20
343.279155
11
172.475085
21
343.440556
0
LINE
8
0
10
172.475085
20
343.440556
11
171.770088
21
343.636456
0
LINE
8
0
10
171.770088
20
343.636456
11
171.075086
21
343.866455
0
LINE
8
0
10
171.075086
20
343.866455
11
170.392089
21
344.129953
0
LINE
8
0
10
170.392089
20
344.129953
11
169.722088
21
344.426453
0
LINE
8
0
10
169.722088
20
344.426453
11
169.068089
21
344.755353
0
LINE
8
0
10
169.068089
20
344.755353
11
168.431090
21
345.116051
0
LINE
8
0
10
168.431090
20
345.116051
11
167.810092
21
345.508251
0
LINE
8
0
10
167.810092
20
345.508251
11
167.208092
21
345.931451
0
LINE
8
0
10
167.208092
20
345.931451
11
166.625091
21
346.385050
0
LINE
8
0
10
166.625091
20
346.385050
11
166.064093
21
346.868649
0
LINE
8
0
10
166.064093
20
346.868649
11
165.657093
21
347.250051
0
LINE
8
0
10
165.657093
20
347.250051
11
165.525093
21
347.381451
0
LINE
8
0
10
165.525093
20
347.381451
11
165.395095
21
347.513049
0
LINE
8
0
10
165.395095
20
347.513049
11
165.013095
21
347.920549
0
LINE
8
0
10
165.013095
20
347.920549
11
164.529096
21
348.482248
0
LINE
8
0
10
164.529096
20
348.482248
11
164.075096
21
349.064246
0
LINE
8
0
10
164.075096
20
349.064246
11
163.651096
21
349.666247
0
LINE
8
0
10
163.651096
20
349.666247
11
163.260098
21
350.287247
0
LINE
8
0
10
163.260098
20
350.287247
11
162.899098
21
350.925244
0
LINE
8
0
10
162.899098
20
350.925244
11
162.571098
21
351.579245
0
LINE
8
0
10
162.571098
20
351.579245
11
162.274098
21
352.248243
0
LINE
8
0
10
162.274098
20
352.248243
11
162.010100
21
352.930243
0
LINE
8
0
10
162.010100
20
352.930243
11
161.781098
21
353.625242
0
LINE
8
0
10
161.781098
20
353.625242
11
161.585100
21
354.332242
0
LINE
8
0
10
161.585100
20
354.332242
11
161.422098
21
355.048241
0
LINE
8
0
10
161.422098
20
355.048241
11
161.296098
21
355.773240
0
LINE
8
0
10
161.296098
20
355.773240
11
161.206101
21
356.505238
0
LINE
8
0
10
161.206101
20
356.505238
11
161.150099
21
357.244237
0
LINE
8
0
10
161.150099
20
357.244237
11
161.132107
21
357.802237
0
LINE
8
0
10
161.132107
20
357.802237
11
161.132107
21
357.988237
0
LINE
8
0
10
161.132107
20
357.988237
11
161.132107
21
358.174236
0
LINE
8
0
10
161.132107
20
358.174236
11
161.150099
21
358.732236
0
LINE
8
0
10
161.150099
20
358.732236
11
161.206101
21
359.471235
0
LINE
8
0
10
161.206101
20
359.471235
11
161.296098
21
360.203233
0
LINE
8
0
10
161.296098
20
360.203233
11
161.422098
21
360.928233
0
LINE
8
0
10
161.422098
20
360.928233
11
161.585100
21
361.644231
0
LINE
8
0
10
161.585100
20
361.644231
11
161.781098
21
362.351231
0
LINE
8
0
10
161.781098
20
362.351231
11
162.010100
21
363.046230
0
LINE
8
0
10
162.010100
20
363.046230
11
162.274098
21
363.728230
0
LINE
8
0
10
162.274098
20
363.728230
11
162.571098
21
364.397228
0
LINE
8
0
10
162.571098
20
364.397228
11
162.899098
21
365.051227
0
LINE
8
0
10
162.899098
20
365.051227
11
163.260098
21
365.689226
0
LINE
8
0
10
163.260098
20
365.689226
11
163.651096
21
366.310227
0
LINE
8
0
10
163.651096
20
366.310227
11
164.075096
21
366.912224
0
LINE
8
0
10
164.075096
20
366.912224
11
164.529096
21
367.494225
0
LINE
8
0
10
164.529096
20
367.494225
11
165.013095
21
368.056223
0
LINE
8
0
10
165.013095
20
368.056223
11
165.395095
21
368.463223
0
LINE
8
0
10
165.395095
20
368.463223
11
165.525093
21
368.595224
0
LINE
8
0
10
165.525093
20
368.595224
11
165.657093
21
368.726224
0
LINE
8
0
10
165.657093
20
368.726224
11
166.064093
21
369.107221
0
LINE
8
0
10
166.064093
20
369.107221
11
166.625091
21
369.591222
0
LINE
8
0
10
166.625091
20
369.591222
11
167.208092
21
370.045220
0
LINE
8
0
10
167.208092
20
370.045220
11
167.810092
21
370.468220
0
LINE
8
0
10
167.810092
20
370.468220
11
168.431090
21
370.860221
0
LINE
8
0
10
168.431090
20
370.860221
11
169.068089
21
371.221220
0
LINE
8
0
10
169.068089
20
371.221220
11
169.722088
21
371.550219
0
LINE
8
0
10
169.722088
20
371.550219
11
170.392089
21
371.846218
0
LINE
8
0
10
170.392089
20
371.846218
11
171.075086
21
372.110219
0
LINE
8
0
10
171.075086
20
372.110219
11
171.770088
21
372.340219
0
LINE
8
0
10
171.770088
20
372.340219
11
172.475085
21
372.536219
0
LINE
8
0
10
172.475085
20
372.536219
11
173.192084
21
372.697218
0
LINE
8
0
10
173.192084
20
372.697218
11
173.917083
21
372.824218
0
LINE
8
0
10
173.917083
20
372.824218
11
174.650081
21
372.915218
0
LINE
8
0
10
174.650081
20
372.915218
11
175.388080
21
372.970217
0
LINE
8
0
10
175.388080
20
372.970217
11
175.946080
21
372.988209
0
LINE
8
0
10
175.946080
20
372.988209
11
176.132080
21
372.988209
0
LINE
8
0
10
176.132080
20
372.988209
11
176.318081
21
372.988209
0
LINE
8
0
10
176.318081
20
372.988209
11
176.876079
21
372.970217
0
LINE
8
0
10
176.876079
20
372.970217
11
177.614078
21
372.915218
0
LINE
8
0
10
177.614078
20
372.915218
11
178.347078
21
372.824218
0
LINE
8
0
10
178.347078
20
372.824218
11
179.072078
21
372.697218
0
LINE
8
0
10
179.072078
20
372.697218
11
179.789077
21
372.536219
0
LINE
8
0
10
179.789077
20
372.536219
11
180.494074
21
372.340219
0
LINE
8
0
10
180.494074
20
372.340219
11
181.189076
21
372.110219
0
LINE
8
0
10
181.189076
20
372.110219
11
181.872073
21
371.846218
0
LINE
8
0
10
181.872073
20
371.846218
11
182.542074
21
371.550219
0
LINE
8
0
10
182.542074
20
371.550219
11
183.196073
21
371.221220
0
LINE
8
0
10
183.196073
20
371.221220
11
183.833072
21
370.860221
0
LINE
8
0
10
183.833072
20
370.860221
11
184.454070
21
370.468220
0
LINE
8
0
10
184.454070
20
370.468220
11
185.056070
21
370.045220
0
LINE
8
0
10
185.056070
20
370.045220
11
185.639068
21
369.591222
0
LINE
8
0
10
185.639068
20
369.591222
11
186.200069
21
369.107221
0
LINE
8
0
10
186.200069
20
369.107221
11
186.607066
21
368.726224
0
LINE
8
0
10
186.607066
20
368.726224
11
186.739067
21
368.595224
0
LINE
8
0
10
186.739067
20
368.595224
11
186.869067
21
368.463223
0
LINE
8
0
10
186.869067
20
368.463223
11
187.251066
21
368.056223
0
LINE
8
0
10
187.251066
20
368.056223
11
187.735065
21
367.494225
0
LINE
8
0
10
187.735065
20
367.494225
11
188.189066
21
366.912224
0
LINE
8
0
10
188.189066
20
366.912224
11
188.611065
21
366.310227
0
LINE
8
0
10
188.611065
20
366.310227
11
189.004064
21
365.689226
0
LINE
8
0
10
189.004064
20
365.689226
11
189.365063
21
365.051227
0
LINE
8
0
10
189.365063
20
365.051227
11
189.693064
21
364.397228
0
LINE
8
0
10
189.693064
20
364.397228
11
189.990064
21
363.728230
0
LINE
8
0
10
189.990064
20
363.728230
11
190.254062
21
363.046230
0
LINE
8
0
10
190.254062
20
363.046230
11
190.483061
21
362.351231
0
LINE
8
0
10
190.483061
20
362.351231
11
190.679062
21
361.644231
0
LINE
8
0
10
190.679062
20
361.644231
11
190.842061
21
360.928233
0
LINE
8
0
10
190.842061
20
360.928233
11
190.968061
21
360.203233
0
LINE
8
0
10
190.968061
20
360.203233
11
191.058061
21
359.471235
0
LINE
8
0
10
191.058061
20
359.471235
11
191.114063
21
358.732236
0
LINE
8
0
10
191.114063
20
358.732236
11
191.132054
21
358.174236
0
LINE
8
0
10
191.132054
20
358.174236
11
191.132054
21
357.988237
0
LINE
8
0
10
120.136144
20
556.986985
11
120.136144
21
556.802986
0
LINE
8
0
10
120.136144
20
556.802986
11
120.118152
21
556.243986
0
LINE
8
0
10
120.118152
20
556.243986
11
120.063150
21
555.504987
0
LINE
8
0
10
120.063150
20
555.504987
11
119.972152
21
554.772988
0
LINE
8
0
10
119.972152
20
554.772988
11
119.845153
21
554.047989
0
LINE
8
0
10
119.845153
20
554.047989
11
119.684151
21
553.331990
0
LINE
8
0
10
119.684151
20
553.331990
11
119.488151
21
552.624991
0
LINE
8
0
10
119.488151
20
552.624991
11
119.258151
21
551.929992
0
LINE
8
0
10
119.258151
20
551.929992
11
118.994153
21
551.246993
0
LINE
8
0
10
118.994153
20
551.246993
11
118.698153
21
550.578994
0
LINE
8
0
10
118.698153
20
550.578994
11
118.369152
21
549.924995
0
LINE
8
0
10
118.369152
20
549.924995
11
118.008153
21
549.285995
0
LINE
8
0
10
118.008153
20
549.285995
11
117.616155
21
548.666996
0
LINE
8
0
10
117.616155
20
548.666996
11
117.193155
21
548.063997
0
LINE
8
0
10
117.193155
20
548.063997
11
116.739154
21
547.481998
0
LINE
8
0
10
116.739154
20
547.481998
11
116.255155
21
546.920998
0
LINE
8
0
10
116.255155
20
546.920998
11
115.874156
21
546.511999
0
LINE
8
0
10
115.874156
20
546.511999
11
115.743156
21
546.381999
0
LINE
8
0
10
115.743156
20
546.381999
11
115.611158
21
546.249999
0
LINE
8
0
10
115.611158
20
546.249999
11
115.204158
21
545.867999
0
LINE
8
0
10
115.204158
20
545.867999
11
114.642157
21
545.385000
0
LINE
8
0
10
114.642157
20
545.385000
11
114.060159
21
544.932001
0
LINE
8
0
10
114.060159
20
544.932001
11
113.458159
21
544.508001
0
LINE
8
0
10
113.458159
20
544.508001
11
112.837161
21
544.117002
0
LINE
8
0
10
112.837161
20
544.117002
11
112.199162
21
543.755002
0
LINE
8
0
10
112.199162
20
543.755002
11
111.545163
21
543.426003
0
LINE
8
0
10
111.545163
20
543.426003
11
110.876162
21
543.130003
0
LINE
8
0
10
110.876162
20
543.130003
11
110.194165
21
542.867003
0
LINE
8
0
10
110.194165
20
542.867003
11
109.499163
21
542.636004
0
LINE
8
0
10
109.499163
20
542.636004
11
108.792166
21
542.440004
0
LINE
8
0
10
108.792166
20
542.440004
11
108.076167
21
542.279004
0
LINE
8
0
10
108.076167
20
542.279004
11
107.351168
21
542.153004
0
LINE
8
0
10
107.351168
20
542.153004
11
106.619170
21
542.061004
0
LINE
8
0
10
106.619170
20
542.061004
11
105.880168
21
542.007004
0
LINE
8
0
10
105.880168
20
542.007004
11
105.322170
21
541.987004
0
LINE
8
0
10
105.322170
20
541.987004
11
105.136169
21
541.987004
0
LINE
8
0
10
105.136169
20
541.987004
11
104.950169
21
541.987004
0
LINE
8
0
10
104.950169
20
541.987004
11
104.392172
21
542.007004
0
LINE
8
0
10
104.392172
20
542.007004
11
103.653173
21
542.061004
0
LINE
8
0
10
103.653173
20
542.061004
11
102.921072
21
542.153004
0
LINE
8
0
10
102.921072
20
542.153004
11
102.196173
21
542.279004
0
LINE
8
0
10
102.196173
20
542.279004
11
101.479976
21
542.440004
0
LINE
8
0
10
101.479976
20
542.440004
11
100.773576
21
542.636004
0
LINE
8
0
10
100.773576
20
542.636004
11
100.078577
21
542.867003
0
LINE
8
0
10
100.078577
20
542.867003
11
99.395977
21
543.130003
0
LINE
8
0
10
99.395977
20
543.130003
11
98.726878
21
543.426003
0
LINE
8
0
10
98.726878
20
543.426003
11
98.072879
21
543.755002
0
LINE
8
0
10
98.072879
20
543.755002
11
97.434779
21
544.117002
0
LINE
8
0
10
97.434779
20
544.117002
11
96.814081
21
544.508001
0
LINE
8
0
10
96.814081
20
544.508001
11
96.212080
21
544.932001
0
LINE
8
0
10
96.212080
20
544.932001
11
95.629783
21
545.385000
0
LINE
8
0
10
95.629783
20
545.385000
11
95.068582
21
545.867999
0
LINE
8
0
10
95.068582
20
545.867999
11
94.661084
21
546.249999
0
LINE
8
0
10
94.661084
20
546.249999
11
94.529584
21
546.381999
0
LINE
8
0
10
94.529584
20
546.381999
11
94.397983
21
546.511999
0
LINE
8
0
10
94.397983
20
546.511999
11
94.016584
21
546.920998
0
LINE
8
0
10
94.016584
20
546.920998
11
93.533185
21
547.481998
0
LINE
8
0
10
93.533185
20
547.481998
11
93.079584
21
548.063997
0
LINE
8
0
10
93.079584
20
548.063997
11
92.656386
21
548.666996
0
LINE
8
0
10
92.656386
20
548.666996
11
92.264087
21
549.285995
0
LINE
8
0
10
92.264087
20
549.285995
11
91.903288
21
549.924995
0
LINE
8
0
10
91.903288
20
549.924995
11
91.574388
21
550.578994
0
LINE
8
0
10
91.574388
20
550.578994
11
91.277988
21
551.246993
0
LINE
8
0
10
91.277988
20
551.246993
11
91.014588
21
551.929992
0
LINE
8
0
10
91.014588
20
551.929992
11
90.784589
21
552.624991
0
LINE
8
0
10
90.784589
20
552.624991
11
90.588588
21
553.331990
0
LINE
8
0
10
90.588588
20
553.331990
11
90.427090
21
554.047989
0
LINE
8
0
10
90.427090
20
554.047989
11
90.300489
21
554.772988
0
LINE
8
0
10
90.300489
20
554.772988
11
90.209589
21
555.504987
0
LINE
8
0
10
90.209589
20
555.504987
11
90.154590
21
556.243986
0
LINE
8
0
10
90.154590
20
556.243986
11
90.136202
21
556.802986
0
LINE
8
0
10
90.136202
20
556.802986
11
90.136202
21
556.986985
0
LINE
8
0
10
90.136202
20
556.986985
11
90.136202
21
557.172985
0
LINE
8
0
10
90.136202
20
557.172985
11
90.154590
21
557.731985
0
LINE
8
0
10
90.154590
20
557.731985
11
90.209589
21
558.470984
0
LINE
8
0
10
90.209589
20
558.470984
11
90.300489
21
559.202983
0
LINE
8
0
10
90.300489
20
559.202983
11
90.427090
21
559.927982
0
LINE
8
0
10
90.427090
20
559.927982
11
90.588588
21
560.643981
0
LINE
8
0
10
90.588588
20
560.643981
11
90.784589
21
561.349980
0
LINE
8
0
10
90.784589
20
561.349980
11
91.014588
21
562.045979
0
LINE
8
0
10
91.014588
20
562.045979
11
91.277988
21
562.727978
0
LINE
8
0
10
91.277988
20
562.727978
11
91.574388
21
563.396977
0
LINE
8
0
10
91.574388
20
563.396977
11
91.903288
21
564.050977
0
LINE
8
0
10
91.903288
20
564.050977
11
92.264087
21
564.688976
0
LINE
8
0
10
92.264087
20
564.688976
11
92.656386
21
565.309975
0
LINE
8
0
10
92.656386
20
565.309975
11
93.079584
21
565.911974
0
LINE
8
0
10
93.079584
20
565.911974
11
93.533185
21
566.493974
0
LINE
8
0
10
93.533185
20
566.493974
11
94.016584
21
567.054973
0
LINE
8
0
10
94.016584
20
567.054973
11
94.397983
21
567.463972
0
LINE
8
0
10
94.397983
20
567.463972
11
94.529584
21
567.593972
0
LINE
8
0
10
94.529584
20
567.593972
11
94.661084
21
567.725972
0
LINE
8
0
10
94.661084
20
567.725972
11
95.068582
21
568.107971
0
LINE
8
0
10
95.068582
20
568.107971
11
95.629783
21
568.590971
0
LINE
8
0
10
95.629783
20
568.590971
11
96.212080
21
569.043970
0
LINE
8
0
10
96.212080
20
569.043970
11
96.814081
21
569.467970
0
LINE
8
0
10
96.814081
20
569.467970
11
97.434779
21
569.859969
0
LINE
8
0
10
97.434779
20
569.859969
11
98.072879
21
570.220969
0
LINE
8
0
10
98.072879
20
570.220969
11
98.726878
21
570.549968
0
LINE
8
0
10
98.726878
20
570.549968
11
99.395977
21
570.845968
0
LINE
8
0
10
99.395977
20
570.845968
11
100.078577
21
571.109968
0
LINE
8
0
10
100.078577
20
571.109968
11
100.773576
21
571.339967
0
LINE
8
0
10
100.773576
20
571.339967
11
101.479976
21
571.535967
0
LINE
8
0
10
101.479976
20
571.535967
11
102.196173
21
571.696967
0
LINE
8
0
10
102.196173
20
571.696967
11
102.921072
21
571.822967
0
LINE
8
0
10
102.921072
20
571.822967
11
103.653173
21
571.914967
0
LINE
8
0
10
103.653173
20
571.914967
11
104.392172
21
571.968968
0
LINE
8
0
10
104.392172
20
571.968968
11
104.950169
21
571.986960
0
LINE
8
0
10
104.950169
20
571.986960
11
105.136169
21
571.986960
0
LINE
8
0
10
105.136169
20
571.986960
11
105.322170
21
571.986960
0
LINE
8
0
10
105.322170
20
571.986960
11
105.880168
21
571.968968
0
LINE
8
0
10
105.880168
20
571.968968
11
106.619170
21
571.914967
0
LINE
8
0
10
106.619170
20
571.914967
11
107.351168
21
571.822967
0
LINE
8
0
10
107.351168
20
571.822967
11
108.076167
21
571.696967
0
LINE
8
0
10
108.076167
20
571.696967
11
108.792166
21
571.535967
0
LINE
8
0
10
108.792166
20
571.535967
11
109.499163
21
571.339967
0
LINE
8
0
10
109.499163
20
571.339967
11
110.194165
21
571.109968
0
LINE
8
0
10
110.194165
20
571.109968
11
110.876162
21
570.845968
0
LINE
8
0
10
110.876162
20
570.845968
11
111.545163
21
570.549968
0
LINE
8
0
10
111.545163
20
570.549968
11
112.199162
21
570.220969
0
LINE
8
0
10
112.199162
20
570.220969
11
112.837161
21
569.859969
0
LINE
8
0
10
112.837161
20
569.859969
11
113.458159
21
569.467970
0
LINE
8
0
10
113.458159
20
569.467970
11
114.060159
21
569.043970
0
LINE
8
0
10
114.060159
20
569.043970
11
114.642157
21
568.590971
0
LINE
8
0
10
114.642157
20
568.590971
11
115.204158
21
568.107971
0
LINE
8
0
10
115.204158
20
568.107971
11
115.611158
21
567.725972
0
LINE
8
0
10
115.611158
20
567.725972
11
115.743156
21
567.593972
0
LINE
8
0
10
115.743156
20
567.593972
11
115.874156
21
567.463972
0
LINE
8
0
10
115.874156
20
567.463972
11
116.255155
21
567.054973
0
LINE
8
0
10
116.255155
20
567.054973
11
116.739154
21
566.493974
0
LINE
8
0
10
116.739154
20
566.493974
11
117.193155
21
565.911974
0
LINE
8
0
10
117.193155
20
565.911974
11
117.616155
21
565.309975
0
LINE
8
0
10
117.616155
20
565.309975
11
118.008153
21
564.688976
0
LINE
8
0
10
118.008153
20
564.688976
11
118.369152
21
564.050977
0
LINE
8
0
10
118.369152
20
564.050977
11
118.698153
21
563.396977
0
LINE
8
0
10
118.698153
20
563.396977
11
118.994153
21
562.727978
0
LINE
8
0
10
118.994153
20
562.727978
11
119.258151
21
562.045979
0
LINE
8
0
10
119.258151
20
562.045979
11
119.488151
21
561.349980
0
LINE
8
0
10
119.488151
20
561.349980
11
119.684151
21
560.643981
0
LINE
8
0
10
119.684151
20
560.643981
11
119.845153
21
559.927982
0
LINE
8
0
10
119.845153
20
559.927982
11
119.972152
21
559.202983
0
LINE
8
0
10
119.972152
20
559.202983
11
120.063150
21
558.470984
0
LINE
8
0
10
120.063150
20
558.470984
11
120.118152
21
557.731985
0
LINE
8
0
10
120.118152
20
557.731985
11
120.136144
21
557.172985
0
LINE
8
0
10
120.136144
20
557.172985
11
120.136144
21
556.986985
0
LINE
8
0
10
120.136144
20
493.987066
11
120.136144
21
493.803064
0
LINE
8
0
10
120.136144
20
493.803064
11
120.118152
21
493.244066
0
LINE
8
0
10
120.118152
20
493.244066
11
120.063150
21
492.505068
0
LINE
8
0
10
120.063150
20
492.505068
11
119.972152
21
491.773067
0
LINE
8
0
10
119.972152
20
491.773067
11
119.845153
21
491.048070
0
LINE
8
0
10
119.845153
20
491.048070
11
119.684151
21
490.332068
0
LINE
8
0
10
119.684151
20
490.332068
11
119.488151
21
489.625071
0
LINE
8
0
10
119.488151
20
489.625071
11
119.258151
21
488.930072
0
LINE
8
0
10
119.258151
20
488.930072
11
118.994153
21
488.247072
0
LINE
8
0
10
118.994153
20
488.247072
11
118.698153
21
487.579072
0
LINE
8
0
10
118.698153
20
487.579072
11
118.369152
21
486.925073
0
LINE
8
0
10
118.369152
20
486.925073
11
118.008153
21
486.286076
0
LINE
8
0
10
118.008153
20
486.286076
11
117.616155
21
485.667076
0
LINE
8
0
10
117.616155
20
485.667076
11
117.193155
21
485.064075
0
LINE
8
0
10
117.193155
20
485.064075
11
116.739154
21
484.482078
0
LINE
8
0
10
116.739154
20
484.482078
11
116.255155
21
483.921077
0
LINE
8
0
10
116.255155
20
483.921077
11
115.874156
21
483.512079
0
LINE
8
0
10
115.874156
20
483.512079
11
115.743156
21
483.382079
0
LINE
8
0
10
115.743156
20
483.382079
11
115.611158
21
483.250079
0
LINE
8
0
10
115.611158
20
483.250079
11
115.204158
21
482.868079
0
LINE
8
0
10
115.204158
20
482.868079
11
114.642157
21
482.385080
0
LINE
8
0
10
114.642157
20
482.385080
11
114.060159
21
481.932079
0
LINE
8
0
10
114.060159
20
481.932079
11
113.458159
21
481.508080
0
LINE
8
0
10
113.458159
20
481.508080
11
112.837161
21
481.117082
0
LINE
8
0
10
112.837161
20
481.117082
11
112.199162
21
480.755082
0
LINE
8
0
10
112.199162
20
480.755082
11
111.545163
21
480.426081
0
LINE
8
0
10
111.545163
20
480.426081
11
110.876162
21
480.130081
0
LINE
8
0
10
110.876162
20
480.130081
11
110.194165
21
479.867083
0
LINE
8
0
10
110.194165
20
479.867083
11
109.499163
21
479.636084
0
LINE
8
0
10
109.499163
20
479.636084
11
108.792166
21
479.440083
0
LINE
8
0
10
108.792166
20
479.440083
11
108.076167
21
479.279085
0
LINE
8
0
10
108.076167
20
479.279085
11
107.351168
21
479.153085
0
LINE
8
0
10
107.351168
20
479.153085
11
106.619170
21
479.061084
0
LINE
8
0
10
106.619170
20
479.061084
11
105.880168
21
479.007083
0
LINE
8
0
10
105.880168
20
479.007083
11
105.322170
21
478.987080
0
LINE
8
0
10
105.322170
20
478.987080
11
105.136169
21
478.987080
0
LINE
8
0
10
105.136169
20
478.987080
11
104.950169
21
478.987080
0
LINE
8
0
10
104.950169
20
478.987080
11
104.392172
21
479.007083
0
LINE
8
0
10
104.392172
20
479.007083
11
103.653173
21
479.061084
0
LINE
8
0
10
103.653173
20
479.061084
11
102.921072
21
479.153085
0
LINE
8
0
10
102.921072
20
479.153085
11
102.196173
21
479.279085
0
LINE
8
0
10
102.196173
20
479.279085
11
101.479976
21
479.440083
0
LINE
8
0
10
101.479976
20
479.440083
11
100.773576
21
479.636084
0
LINE
8
0
10
100.773576
20
479.636084
11
100.078577
21
479.867083
0
LINE
8
0
10
100.078577
20
479.867083
11
99.395977
21
480.130081
0
LINE
8
0
10
99.395977
20
480.130081
11
98.726878
21
480.426081
0
LINE
8
0
10
98.726878
20
480.426081
11
98.072879
21
480.755082
0
LINE
8
0
10
98.072879
20
480.755082
11
97.434779
21
481.117082
0
LINE
8
0
10
97.434779
20
481.117082
11
96.814081
21
481.508080
0
LINE
8
0
10
96.814081
20
481.508080
11
96.212080
21
481.932079
0
LINE
8
0
10
96.212080
20
481.932079
11
95.629783
21
482.385080
0
LINE
8
0
10
95.629783
20
482.385080
11
95.068582
21
482.868079
0
LINE
8
0
10
95.068582
20
482.868079
11
94.661084
21
483.250079
0
LINE
8
0
10
94.661084
20
483.250079
11
94.529584
21
483.382079
0
LINE
8
0
10
94.529584
20
483.382079
11
94.397983
21
483.512079
0
LINE
8
0
10
94.397983
20
483.512079
11
94.016584
21
483.921077
0
LINE
8
0
10
94.016584
20
483.921077
11
93.533185
21
484.482078
0
LINE
8
0
10
93.533185
20
484.482078
11
93.079584
21
485.064075
0
LINE
8
0
10
93.079584
20
485.064075
11
92.656386
21
485.667076
0
LINE
8
0
10
92.656386
20
485.667076
11
92.264087
21
486.286076
0
LINE
8
0
10
92.264087
20
486.286076
11
91.903288
21
486.925073
0
LINE
8
0
10
91.903288
20
486.925073
11
91.574388
21
487.579072
0
LINE
8
0
10
91.574388
20
487.579072
11
91.277988
21
488.247072
0
LINE
8
0
10
91.277988
20
488.247072
11
91.014588
21
488.930072
0
LINE
8
0
10
91.014588
20
488.930072
11
90.784589
21
489.625071
0
LINE
8
0
10
90.784589
20
489.625071
11
90.588588
21
490.332068
0
LINE
8
0
10
90.588588
20
490.332068
11
90.427090
21
491.048070
0
LINE
8
0
10
90.427090
20
491.048070
11
90.300489
21
491.773067
0
LINE
8
0
10
90.300489
20
491.773067
11
90.209589
21
492.505068
0
LINE
8
0
10
90.209589
20
492.505068
11
90.154590
21
493.244066
0
LINE
8
0
10
90.154590
20
493.244066
11
90.136202
21
493.803064
0
LINE
8
0
10
90.136202
20
493.803064
11
90.136202
21
493.987066
0
LINE
8
0
10
90.136202
20
493.987066
11
90.136202
21
494.173065
0
LINE
8
0
10
90.136202
20
494.173065
11
90.154590
21
494.732065
0
LINE
8
0
10
90.154590
20
494.732065
11
90.209589
21
495.471064
0
LINE
8
0
10
90.209589
20
495.471064
11
90.300489
21
496.203062
0
LINE
8
0
10
90.300489
20
496.203062
11
90.427090
21
496.928062
0
LINE
8
0
10
90.427090
20
496.928062
11
90.588588
21
497.644060
0
LINE
8
0
10
90.588588
20
497.644060
11
90.784589
21
498.350061
0
LINE
8
0
10
90.784589
20
498.350061
11
91.014588
21
499.046059
0
LINE
8
0
10
91.014588
20
499.046059
11
91.277988
21
499.728059
0
LINE
8
0
10
91.277988
20
499.728059
11
91.574388
21
500.397057
0
LINE
8
0
10
91.574388
20
500.397057
11
91.903288
21
501.051056
0
LINE
8
0
10
91.903288
20
501.051056
11
92.264087
21
501.689056
0
LINE
8
0
10
92.264087
20
501.689056
11
92.656386
21
502.310056
0
LINE
8
0
10
92.656386
20
502.310056
11
93.079584
21
502.912054
0
LINE
8
0
10
93.079584
20
502.912054
11
93.533185
21
503.494054
0
LINE
8
0
10
93.533185
20
503.494054
11
94.016584
21
504.055052
0
LINE
8
0
10
94.016584
20
504.055052
11
94.397983
21
504.464052
0
LINE
8
0
10
94.397983
20
504.464052
11
94.529584
21
504.594053
0
LINE
8
0
10
94.529584
20
504.594053
11
94.661084
21
504.726050
0
LINE
8
0
10
94.661084
20
504.726050
11
95.068582
21
505.108050
0
LINE
8
0
10
95.068582
20
505.108050
11
95.629783
21
505.591052
0
LINE
8
0
10
95.629783
20
505.591052
11
96.212080
21
506.044049
0
LINE
8
0
10
96.212080
20
506.044049
11
96.814081
21
506.468049
0
LINE
8
0
10
96.814081
20
506.468049
11
97.434779
21
506.860050
0
LINE
8
0
10
97.434779
20
506.860050
11
98.072879
21
507.221050
0
LINE
8
0
10
98.072879
20
507.221050
11
98.726878
21
507.550048
0
LINE
8
0
10
98.726878
20
507.550048
11
99.395977
21
507.846048
0
LINE
8
0
10
99.395977
20
507.846048
11
100.078577
21
508.110048
0
LINE
8
0
10
100.078577
20
508.110048
11
100.773576
21
508.340048
0
LINE
8
0
10
100.773576
20
508.340048
11
101.479976
21
508.536046
0
LINE
8
0
10
101.479976
20
508.536046
11
102.196173
21
508.697047
0
LINE
8
0
10
102.196173
20
508.697047
11
102.921072
21
508.823047
0
LINE
8
0
10
102.921072
20
508.823047
11
103.653173
21
508.915045
0
LINE
8
0
10
103.653173
20
508.915045
11
104.392172
21
508.969046
0
LINE
8
0
10
104.392172
20
508.969046
11
104.950169
21
508.987038
0
LINE
8
0
10
104.950169
20
508.987038
11
105.136169
21
508.987038
0
LINE
8
0
10
105.136169
20
508.987038
11
105.322170
21
508.987038
0
LINE
8
0
10
105.322170
20
508.987038
11
105.880168
21
508.969046
0
LINE
8
0
10
105.880168
20
508.969046
11
106.619170
21
508.915045
0
LINE
8
0
10
106.619170
20
508.915045
11
107.351168
21
508.823047
0
LINE
8
0
10
107.351168
20
508.823047
11
108.076167
21
508.697047
0
LINE
8
0
10
108.076167
20
508.697047
11
108.792166
21
508.536046
0
LINE
8
0
10
108.792166
20
508.536046
11
109.499163
21
508.340048
0
LINE
8
0
10
109.499163
20
508.340048
11
110.194165
21
508.110048
0
LINE
8
0
10
110.194165
20
508.110048
11
110.876162
21
507.846048
0
LINE
8
0
10
110.876162
20
507.846048
11
111.545163
21
507.550048
0
LINE
8
0
10
111.545163
20
507.550048
11
112.199162
21
507.221050
0
LINE
8
0
10
112.199162
20
507.221050
11
112.837161
21
506.860050
0
LINE
8
0
10
112.837161
20
506.860050
11
113.458159
21
506.468049
0
LINE
8
0
10
113.458159
20
506.468049
11
114.060159
21
506.044049
0
LINE
8
0
10
114.060159
20
506.044049
11
114.642157
21
505.591052
0
LINE
8
0
10
114.642157
20
505.591052
11
115.204158
21
505.108050
0
LINE
8
0
10
115.204158
20
505.108050
11
115.611158
21
504.726050
0
LINE
8
0
10
115.611158
20
504.726050
11
115.743156
21
504.594053
0
LINE
8
0
10
115.743156
20
504.594053
11
115.874156
21
504.464052
0
LINE
8
0
10
115.874156
20
504.464052
11
116.255155
21
504.055052
0
LINE
8
0
10
116.255155
20
504.055052
11
116.739154
21
503.494054
0
LINE
8
0
10
116.739154
20
503.494054
11
117.193155
21
502.912054
0
LINE
8
0
10
117.193155
20
502.912054
11
117.616155
21
502.310056
0
LINE
8
0
10
117.616155
20
502.310056
11
118.008153
21
501.689056
0
LINE
8
0
10
118.008153
20
501.689056
11
118.369152
21
501.051056
0
LINE
8
0
10
118.369152
20
501.051056
11
118.698153
21
500.397057
0
LINE
8
0
10
118.698153
20
500.397057
11
118.994153
21
499.728059
0
LINE
8
0
10
118.994153
20
499.728059
11
119.258151
21
499.046059
0
LINE
8
0
10
119.258151
20
499.046059
11
119.488151
21
498.350061
0
LINE
8
0
10
119.488151
20
498.350061
11
119.684151
21
497.644060
0
LINE
8
0
10
119.684151
20
497.644060
11
119.845153
21
496.928062
0
LINE
8
0
10
119.845153
20
496.928062
11
119.972152
21
496.203062
0
LINE
8
0
10
119.972152
20
496.203062
11
120.063150
21
495.471064
0
LINE
8
0
10
120.063150
20
495.471064
11
120.118152
21
494.732065
0
LINE
8
0
10
120.118152
20
494.732065
11
120.136144
21
494.173065
0
LINE
8
0
10
120.136144
20
494.173065
11
120.136144
21
493.987066
0
LINE
8
0
10
120.136144
20
430.987144
11
120.136144
21
430.803145
0
LINE
8
0
10
120.136144
20
430.803145
11
120.118152
21
430.244145
0
LINE
8
0
10
120.118152
20
430.244145
11
120.063150
21
429.505146
0
LINE
8
0
10
120.063150
20
429.505146
11
119.972152
21
428.773148
0
LINE
8
0
10
119.972152
20
428.773148
11
119.845153
21
428.048148
0
LINE
8
0
10
119.845153
20
428.048148
11
119.684151
21
427.332150
0
LINE
8
0
10
119.684151
20
427.332150
11
119.488151
21
426.625149
0
LINE
8
0
10
119.488151
20
426.625149
11
119.258151
21
425.930151
0
LINE
8
0
10
119.258151
20
425.930151
11
118.994153
21
425.247151
0
LINE
8
0
10
118.994153
20
425.247151
11
118.698153
21
424.579153
0
LINE
8
0
10
118.698153
20
424.579153
11
118.369152
21
423.925154
0
LINE
8
0
10
118.369152
20
423.925154
11
118.008153
21
423.286154
0
LINE
8
0
10
118.008153
20
423.286154
11
117.616155
21
422.667154
0
LINE
8
0
10
117.616155
20
422.667154
11
117.193155
21
422.064156
0
LINE
8
0
10
117.193155
20
422.064156
11
116.739154
21
421.482156
0
LINE
8
0
10
116.739154
20
421.482156
11
116.255155
21
420.921158
0
LINE
8
0
10
116.255155
20
420.921158
11
115.874156
21
420.512158
0
LINE
8
0
10
115.874156
20
420.512158
11
115.743156
21
420.382157
0
LINE
8
0
10
115.743156
20
420.382157
11
115.611158
21
420.250157
0
LINE
8
0
10
115.611158
20
420.250157
11
115.204158
21
419.868157
0
LINE
8
0
10
115.204158
20
419.868157
11
114.642157
21
419.385158
0
LINE
8
0
10
114.642157
20
419.385158
11
114.060159
21
418.932160
0
LINE
8
0
10
114.060159
20
418.932160
11
113.458159
21
418.508161
0
LINE
8
0
10
113.458159
20
418.508161
11
112.837161
21
418.117160
0
LINE
8
0
10
112.837161
20
418.117160
11
112.199162
21
417.755160
0
LINE
8
0
10
112.199162
20
417.755160
11
111.545163
21
417.426162
0
LINE
8
0
10
111.545163
20
417.426162
11
110.876162
21
417.130162
0
LINE
8
0
10
110.876162
20
417.130162
11
110.194165
21
416.867162
0
LINE
8
0
10
110.194165
20
416.867162
11
109.499163
21
416.636162
0
LINE
8
0
10
109.499163
20
416.636162
11
108.792166
21
416.440162
0
LINE
8
0
10
108.792166
20
416.440162
11
108.076167
21
416.279163
0
LINE
8
0
10
108.076167
20
416.279163
11
107.351168
21
416.153163
0
LINE
8
0
10
107.351168
20
416.153163
11
106.619170
21
416.061162
0
LINE
8
0
10
106.619170
20
416.061162
11
105.880168
21
416.007164
0
LINE
8
0
10
105.880168
20
416.007164
11
105.322170
21
415.987161
0
LINE
8
0
10
105.322170
20
415.987161
11
105.136169
21
415.987161
0
LINE
8
0
10
105.136169
20
415.987161
11
104.950169
21
415.987161
0
LINE
8
0
10
104.950169
20
415.987161
11
104.392172
21
416.007164
0
LINE
8
0
10
104.392172
20
416.007164
11
103.653173
21
416.061162
0
LINE
8
0
10
103.653173
20
416.061162
11
102.921072
21
416.153163
0
LINE
8
0
10
102.921072
20
416.153163
11
102.196173
21
416.279163
0
LINE
8
0
10
102.196173
20
416.279163
11
101.479976
21
416.440162
0
LINE
8
0
10
101.479976
20
416.440162
11
100.773576
21
416.636162
0
LINE
8
0
10
100.773576
20
416.636162
11
100.078577
21
416.867162
0
LINE
8
0
10
100.078577
20
416.867162
11
99.395977
21
417.130162
0
LINE
8
0
10
99.395977
20
417.130162
11
98.726878
21
417.426162
0
LINE
8
0
10
98.726878
20
417.426162
11
98.072879
21
417.755160
0
LINE
8
0
10
98.072879
20
417.755160
11
97.434779
21
418.117160
0
LINE
8
0
10
97.434779
20
418.117160
11
96.814081
21
418.508161
0
LINE
8
0
10
96.814081
20
418.508161
11
96.212080
21
418.932160
0
LINE
8
0
10
96.212080
20
418.932160
11
95.629783
21
419.385158
0
LINE
8
0
10
95.629783
20
419.385158
11
95.068582
21
419.868157
0
LINE
8
0
10
95.068582
20
419.868157
11
94.661084
21
420.250157
0
LINE
8
0
10
94.661084
20
420.250157
11
94.529584
21
420.382157
0
LINE
8
0
10
94.529584
20
420.382157
11
94.397983
21
420.512158
0
LINE
8
0
10
94.397983
20
420.512158
11
94.016584
21
420.921158
0
LINE
8
0
10
94.016584
20
420.921158
11
93.533185
21
421.482156
0
LINE
8
0
10
93.533185
20
421.482156
11
93.079584
21
422.064156
0
LINE
8
0
10
93.079584
20
422.064156
11
92.656386
21
422.667154
0
LINE
8
0
10
92.656386
20
422.667154
11
92.264087
21
423.286154
0
LINE
8
0
10
92.264087
20
423.286154
11
91.903288
21
423.925154
0
LINE
8
0
10
91.903288
20
423.925154
11
91.574388
21
424.579153
0
LINE
8
0
10
91.574388
20
424.579153
11
91.277988
21
425.247151
0
LINE
8
0
10
91.277988
20
425.247151
11
91.014588
21
425.930151
0
LINE
8
0
10
91.014588
20
425.930151
11
90.784589
21
426.625149
0
LINE
8
0
10
90.784589
20
426.625149
11
90.588588
21
427.332150
0
LINE
8
0
10
90.588588
20
427.332150
11
90.427090
21
428.048148
0
LINE
8
0
10
90.427090
20
428.048148
11
90.300489
21
428.773148
0
LINE
8
0
10
90.300489
20
428.773148
11
90.209589
21
429.505146
0
LINE
8
0
10
90.209589
20
429.505146
11
90.154590
21
430.244145
0
LINE
8
0
10
90.154590
20
430.244145
11
90.136202
21
430.803145
0
LINE
8
0
10
90.136202
20
430.803145
11
90.136202
21
430.987144
0
LINE
8
0
10
90.136202
20
430.987144
11
90.136202
21
431.173143
0
LINE
8
0
10
90.136202
20
431.173143
11
90.154590
21
431.732144
0
LINE
8
0
10
90.154590
20
431.732144
11
90.209589
21
432.471142
0
LINE
8
0
10
90.209589
20
432.471142
11
90.300489
21
433.203140
0
LINE
8
0
10
90.300489
20
433.203140
11
90.427090
21
433.928140
0
LINE
8
0
10
90.427090
20
433.928140
11
90.588588
21
434.644139
0
LINE
8
0
10
90.588588
20
434.644139
11
90.784589
21
435.350139
0
LINE
8
0
10
90.784589
20
435.350139
11
91.014588
21
436.046138
0
LINE
8
0
10
91.014588
20
436.046138
11
91.277988
21
436.728137
0
LINE
8
0
10
91.277988
20
436.728137
11
91.574388
21
437.397136
0
LINE
8
0
10
91.574388
20
437.397136
11
91.903288
21
438.051134
0
LINE
8
0
10
91.903288
20
438.051134
11
92.264087
21
438.689134
0
LINE
8
0
10
92.264087
20
438.689134
11
92.656386
21
439.310134
0
LINE
8
0
10
92.656386
20
439.310134
11
93.079584
21
439.912132
0
LINE
8
0
10
93.079584
20
439.912132
11
93.533185
21
440.494132
0
LINE
8
0
10
93.533185
20
440.494132
11
94.016584
21
441.055130
0
LINE
8
0
10
94.016584
20
441.055130
11
94.397983
21
441.464131
0
LINE
8
0
10
94.397983
20
441.464131
11
94.529584
21
441.594131
0
LINE
8
0
10
94.529584
20
441.594131
11
94.661084
21
441.726131
0
LINE
8
0
10
94.661084
20
441.726131
11
95.068582
21
442.108131
0
LINE
8
0
10
95.068582
20
442.108131
11
95.629783
21
442.591130
0
LINE
8
0
10
95.629783
20
442.591130
11
96.212080
21
443.044128
0
LINE
8
0
10
96.212080
20
443.044128
11
96.814081
21
443.468127
0
LINE
8
0
10
96.814081
20
443.468127
11
97.434779
21
443.860128
0
LINE
8
0
10
97.434779
20
443.860128
11
98.072879
21
444.221128
0
LINE
8
0
10
98.072879
20
444.221128
11
98.726878
21
444.550126
0
LINE
8
0
10
98.726878
20
444.550126
11
99.395977
21
444.846126
0
LINE
8
0
10
99.395977
20
444.846126
11
100.078577
21
445.110127
0
LINE
8
0
10
100.078577
20
445.110127
11
100.773576
21
445.340126
0
LINE
8
0
10
100.773576
20
445.340126
11
101.479976
21
445.536127
0
LINE
8
0
10
101.479976
20
445.536127
11
102.196173
21
445.697125
0
LINE
8
0
10
102.196173
20
445.697125
11
102.921072
21
445.823125
0
LINE
8
0
10
102.921072
20
445.823125
11
103.653173
21
445.915126
0
LINE
8
0
10
103.653173
20
445.915126
11
104.392172
21
445.969125
0
LINE
8
0
10
104.392172
20
445.969125
11
104.950169
21
445.987116
0
LINE
8
0
10
104.950169
20
445.987116
11
105.136169
21
445.987116
0
LINE
8
0
10
105.136169
20
445.987116
11
105.322170
21
445.987116
0
LINE
8
0
10
105.322170
20
445.987116
11
105.880168
21
445.969125
0
LINE
8
0
10
105.880168
20
445.969125
11
106.619170
21
445.915126
0
LINE
8
0
10
106.619170
20
445.915126
11
107.351168
21
445.823125
0
LINE
8
0
10
107.351168
20
445.823125
11
108.076167
21
445.697125
0
LINE
8
0
10
108.076167
20
445.697125
11
108.792166
21
445.536127
0
LINE
8
0
10
108.792166
20
445.536127
11
109.499163
21
445.340126
0
LINE
8
0
10
109.499163
20
445.340126
11
110.194165
21
445.110127
0
LINE
8
0
10
110.194165
20
445.110127
11
110.876162
21
444.846126
0
LINE
8
0
10
110.876162
20
444.846126
11
111.545163
21
444.550126
0
LINE
8
0
10
111.545163
20
444.550126
11
112.199162
21
444.221128
0
LINE
8
0
10
112.199162
20
444.221128
11
112.837161
21
443.860128
0
LINE
8
0
10
112.837161
20
443.860128
11
113.458159
21
443.468127
0
LINE
8
0
10
113.458159
20
443.468127
11
114.060159
21
443.044128
0
LINE
8
0
10
114.060159
20
443.044128
11
114.642157
21
442.591130
0
LINE
8
0
10
114.642157
20
442.591130
11
115.204158
21
442.108131
0
LINE
8
0
10
115.204158
20
442.108131
11
115.611158
21
441.726131
0
LINE
8
0
10
115.611158
20
441.726131
11
115.743156
21
441.594131
0
LINE
8
0
10
115.743156
20
441.594131
11
115.874156
21
441.464131
0
LINE
8
0
10
115.874156
20
441.464131
11
116.255155
21
441.055130
0
LINE
8
0
10
116.255155
20
441.055130
11
116.739154
21
440.494132
0
LINE
8
0
10
116.739154
20
440.494132
11
117.193155
21
439.912132
0
LINE
8
0
10
117.193155
20
439.912132
11
117.616155
21
439.310134
0
LINE
8
0
10
117.616155
20
439.310134
11
118.008153
21
438.689134
0
LINE
8
0
10
118.008153
20
438.689134
11
118.369152
21
438.051134
0
LINE
8
0
10
118.369152
20
438.051134
11
118.698153
21
437.397136
0
LINE
8
0
10
118.698153
20
437.397136
11
118.994153
21
436.728137
0
LINE
8
0
10
118.994153
20
436.728137
11
119.258151
21
436.046138
0
LINE
8
0
10
119.258151
20
436.046138
11
119.488151
21
435.350139
0
LINE
8
0
10
119.488151
20
435.350139
11
119.684151
21
434.644139
0
LINE
8
0
10
119.684151
20
434.644139
11
119.845153
21
433.928140
0
LINE
8
0
10
119.845153
20
433.928140
11
119.972152
21
433.203140
0
LINE
8
0
10
119.972152
20
433.203140
11
120.063150
21
432.471142
0
LINE
8
0
10
120.063150
20
432.471142
11
120.118152
21
431.732144
0
LINE
8
0
10
120.118152
20
431.732144
11
120.136144
21
431.173143
0
LINE
8
0
10
120.136144
20
431.173143
11
120.136144
21
430.987144
0
LINE
8
0
10
154.636100
20
458.987108
11
154.636100
21
458.950109
0
LINE
8
0
10
154.636100
20
458.950109
11
154.628109
21
458.835108
0
LINE
8
0
10
154.628109
20
458.835108
11
154.606123
21
458.686108
0
LINE
8
0
10
154.606123
20
458.686108
11
154.568123
21
458.542109
0
LINE
8
0
10
154.568123
20
458.542109
11
154.518122
21
458.404110
0
LINE
8
0
10
154.518122
20
458.404110
11
154.456123
21
458.273110
0
LINE
8
0
10
154.456123
20
458.273110
11
154.379124
21
458.150111
0
LINE
8
0
10
154.379124
20
458.150111
11
154.293124
21
458.033109
0
LINE
8
0
10
154.293124
20
458.033109
11
154.197125
21
457.928110
0
LINE
8
0
10
154.197125
20
457.928110
11
154.090125
21
457.830111
0
LINE
8
0
10
154.090125
20
457.830111
11
153.975124
21
457.744111
0
LINE
8
0
10
153.975124
20
457.744111
11
153.851124
21
457.669112
0
LINE
8
0
10
153.851124
20
457.669112
11
153.719124
21
457.605112
0
LINE
8
0
10
153.719124
20
457.605112
11
153.582126
21
457.555111
0
LINE
8
0
10
153.582126
20
457.555111
11
153.439126
21
457.518112
0
LINE
8
0
10
153.439126
20
457.518112
11
153.289126
21
457.496125
0
LINE
8
0
10
153.289126
20
457.496125
11
153.174125
21
457.487129
0
LINE
8
0
10
153.174125
20
457.487129
11
153.136126
21
457.487129
0
LINE
8
0
10
153.136126
20
457.487129
11
153.097126
21
457.487129
0
LINE
8
0
10
153.097126
20
457.487129
11
152.982125
21
457.496125
0
LINE
8
0
10
152.982125
20
457.496125
11
152.833125
21
457.518112
0
LINE
8
0
10
152.833125
20
457.518112
11
152.690126
21
457.555111
0
LINE
8
0
10
152.690126
20
457.555111
11
152.553125
21
457.605112
0
LINE
8
0
10
152.553125
20
457.605112
11
152.421127
21
457.669112
0
LINE
8
0
10
152.421127
20
457.669112
11
152.297125
21
457.744111
0
LINE
8
0
10
152.297125
20
457.744111
11
152.182127
21
457.830111
0
LINE
8
0
10
152.182127
20
457.830111
11
152.075127
21
457.928110
0
LINE
8
0
10
152.075127
20
457.928110
11
151.978126
21
458.033109
0
LINE
8
0
10
151.978126
20
458.033109
11
151.892128
21
458.150111
0
LINE
8
0
10
151.892128
20
458.150111
11
151.817127
21
458.273110
0
LINE
8
0
10
151.817127
20
458.273110
11
151.754127
21
458.404110
0
LINE
8
0
10
151.754127
20
458.404110
11
151.703126
21
458.542109
0
LINE
8
0
10
151.703126
20
458.542109
11
151.667127
21
458.686108
0
LINE
8
0
10
151.667127
20
458.686108
11
151.643129
21
458.835108
0
LINE
8
0
10
151.643129
20
458.835108
11
151.636144
21
458.950109
0
LINE
8
0
10
151.636144
20
458.950109
11
151.636144
21
458.987108
0
LINE
8
0
10
151.636144
20
458.987108
11
151.636144
21
459.026108
0
LINE
8
0
10
151.636144
20
459.026108
11
151.643129
21
459.142109
0
LINE
8
0
10
151.643129
20
459.142109
11
151.667127
21
459.290109
0
LINE
8
0
10
151.667127
20
459.290109
11
151.703126
21
459.435108
0
LINE
8
0
10
151.703126
20
459.435108
11
151.754127
21
459.572109
0
LINE
8
0
10
151.754127
20
459.572109
11
151.817127
21
459.703107
0
LINE
8
0
10
151.817127
20
459.703107
11
151.892128
21
459.826109
0
LINE
8
0
10
151.892128
20
459.826109
11
151.978126
21
459.941107
0
LINE
8
0
10
151.978126
20
459.941107
11
152.075127
21
460.048107
0
LINE
8
0
10
152.075127
20
460.048107
11
152.182127
21
460.146109
0
LINE
8
0
10
152.182127
20
460.146109
11
152.297125
21
460.232106
0
LINE
8
0
10
152.297125
20
460.232106
11
152.421127
21
460.307108
0
LINE
8
0
10
152.421127
20
460.307108
11
152.553125
21
460.371108
0
LINE
8
0
10
152.553125
20
460.371108
11
152.690126
21
460.421106
0
LINE
8
0
10
152.690126
20
460.421106
11
152.833125
21
460.457108
0
LINE
8
0
10
152.833125
20
460.457108
11
152.982125
21
460.480100
0
LINE
8
0
10
152.982125
20
460.480100
11
153.097126
21
460.487111
0
LINE
8
0
10
153.097126
20
460.487111
11
153.136126
21
460.487111
0
LINE
8
0
10
153.136126
20
460.487111
11
153.174125
21
460.487111
0
LINE
8
0
10
153.174125
20
460.487111
11
153.289126
21
460.480100
0
LINE
8
0
10
153.289126
20
460.480100
11
153.439126
21
460.457108
0
LINE
8
0
10
153.439126
20
460.457108
11
153.582126
21
460.421106
0
LINE
8
0
10
153.582126
20
460.421106
11
153.719124
21
460.371108
0
LINE
8
0
10
153.719124
20
460.371108
11
153.851124
21
460.307108
0
LINE
8
0
10
153.851124
20
460.307108
11
153.975124
21
460.232106
0
LINE
8
0
10
153.975124
20
460.232106
11
154.090125
21
460.146109
0
LINE
8
0
10
154.090125
20
460.146109
11
154.197125
21
460.048107
0
LINE
8
0
10
154.197125
20
460.048107
11
154.293124
21
459.941107
0
LINE
8
0
10
154.293124
20
459.941107
11
154.379124
21
459.826109
0
LINE
8
0
10
154.379124
20
459.826109
11
154.456123
21
459.703107
0
LINE
8
0
10
154.456123
20
459.703107
11
154.518122
21
459.572109
0
LINE
8
0
10
154.518122
20
459.572109
11
154.568123
21
459.435108
0
LINE
8
0
10
154.568123
20
459.435108
11
154.606123
21
459.290109
0
LINE
8
0
10
154.606123
20
459.290109
11
154.628109
21
459.142109
0
LINE
8
0
10
154.628109
20
459.142109
11
154.636100
21
459.026108
0
LINE
8
0
10
154.636100
20
459.026108
11
154.636100
21
458.987108
0
LINE
8
0
10
200.636043
20
458.987108
11
200.636043
21
458.950109
0
LINE
8
0
10
200.636043
20
458.950109
11
200.628052
21
458.835108
0
LINE
8
0
10
200.628052
20
458.835108
11
200.606039
21
458.686108
0
LINE
8
0
10
200.606039
20
458.686108
11
200.568039
21
458.542109
0
LINE
8
0
10
200.568039
20
458.542109
11
200.518039
21
458.404110
0
LINE
8
0
10
200.518039
20
458.404110
11
200.456039
21
458.273110
0
LINE
8
0
10
200.456039
20
458.273110
11
200.379040
21
458.150111
0
LINE
8
0
10
200.379040
20
458.150111
11
200.293040
21
458.033109
0
LINE
8
0
10
200.293040
20
458.033109
11
200.197038
21
457.928110
0
LINE
8
0
10
200.197038
20
457.928110
11
200.090038
21
457.830111
0
LINE
8
0
10
200.090038
20
457.830111
11
199.975040
21
457.744111
0
LINE
8
0
10
199.975040
20
457.744111
11
199.851041
21
457.669112
0
LINE
8
0
10
199.851041
20
457.669112
11
199.719040
21
457.605112
0
LINE
8
0
10
199.719040
20
457.605112
11
199.582042
21
457.555111
0
LINE
8
0
10
199.582042
20
457.555111
11
199.439040
21
457.518112
0
LINE
8
0
10
199.439040
20
457.518112
11
199.289040
21
457.496125
0
LINE
8
0
10
199.289040
20
457.496125
11
199.174042
21
457.487129
0
LINE
8
0
10
199.174042
20
457.487129
11
199.136042
21
457.487129
0
LINE
8
0
10
199.136042
20
457.487129
11
199.097040
21
457.487129
0
LINE
8
0
10
199.097040
20
457.487129
11
198.982042
21
457.496125
0
LINE
8
0
10
198.982042
20
457.496125
11
198.833042
21
457.518112
0
LINE
8
0
10
198.833042
20
457.518112
11
198.690043
21
457.555111
0
LINE
8
0
10
198.690043
20
457.555111
11
198.553041
21
457.605112
0
LINE
8
0
10
198.553041
20
457.605112
11
198.421041
21
457.669112
0
LINE
8
0
10
198.421041
20
457.669112
11
198.297042
21
457.744111
0
LINE
8
0
10
198.297042
20
457.744111
11
198.182043
21
457.830111
0
LINE
8
0
10
198.182043
20
457.830111
11
198.075043
21
457.928110
0
LINE
8
0
10
198.075043
20
457.928110
11
197.978042
21
458.033109
0
LINE
8
0
10
197.978042
20
458.033109
11
197.892042
21
458.150111
0
LINE
8
0
10
197.892042
20
458.150111
11
197.817043
21
458.273110
0
LINE
8
0
10
197.817043
20
458.273110
11
197.754043
21
458.404110
0
LINE
8
0
10
197.754043
20
458.404110
11
197.703042
21
458.542109
0
LINE
8
0
10
197.703042
20
458.542109
11
197.667043
21
458.686108
0
LINE
8
0
10
197.667043
20
458.686108
11
197.643045
21
458.835108
0
LINE
8
0
10
197.643045
20
458.835108
11
197.636060
21
458.950109
0
LINE
8
0
10
197.636060
20
458.950109
11
197.636060
21
458.987108
0
LINE
8
0
10
197.636060
20
458.987108
11
197.636060
21
459.026108
0
LINE
8
0
10
197.636060
20
459.026108
11
197.643045
21
459.142109
0
LINE
8
0
10
197.643045
20
459.142109
11
197.667043
21
459.290109
0
LINE
8
0
10
197.667043
20
459.290109
11
197.703042
21
459.435108
0
LINE
8
0
10
197.703042
20
459.435108
11
197.754043
21
459.572109
0
LINE
8
0
10
197.754043
20
459.572109
11
197.817043
21
459.703107
0
LINE
8
0
10
197.817043
20
459.703107
11
197.892042
21
459.826109
0
LINE
8
0
10
197.892042
20
459.826109
11
197.978042
21
459.941107
0
LINE
8
0
10
197.978042
20
459.941107
11
198.075043
21
460.048107
0
LINE
8
0
10
198.075043
20
460.048107
11
198.182043
21
460.146109
0
LINE
8
0
10
198.182043
20
460.146109
11
198.297042
21
460.232106
0
LINE
8
0
10
198.297042
20
460.232106
11
198.421041
21
460.307108
0
LINE
8
0
10
198.421041
20
460.307108
11
198.553041
21
460.371108
0
LINE
8
0
10
198.553041
20
460.371108
11
198.690043
21
460.421106
0
LINE
8
0
10
198.690043
20
460.421106
11
198.833042
21
460.457108
0
LINE
8
0
10
198.833042
20
460.457108
11
198.982042
21
460.480100
0
LINE
8
0
10
198.982042
20
460.480100
11
199.097040
21
460.487111
0
LINE
8
0
10
199.097040
20
460.487111
11
199.136042
21
460.487111
0
LINE
8
0
10
199.136042
20
460.487111
11
199.174042
21
460.487111
0
LINE
8
0
10
199.174042
20
460.487111
11
199.289040
21
460.480100
0
LINE
8
0
10
199.289040
20
460.480100
11
199.439040
21
460.457108
0
LINE
8
0
10
199.439040
20
460.457108
11
199.582042
21
460.421106
0
LINE
8
0
10
199.582042
20
460.421106
11
199.719040
21
460.371108
0
LINE
8
0
10
199.719040
20
460.371108
11
199.851041
21
460.307108
0
LINE
8
0
10
199.851041
20
460.307108
11
199.975040
21
460.232106
0
LINE
8
0
10
199.975040
20
460.232106
11
200.090038
21
460.146109
0
LINE
8
0
10
200.090038
20
460.146109
11
200.197038
21
460.048107
0
LINE
8
0
10
200.197038
20
460.048107
11
200.293040
21
459.941107
0
LINE
8
0
10
200.293040
20
459.941107
11
200.379040
21
459.826109
0
LINE
8
0
10
200.379040
20
459.826109
11
200.456039
21
459.703107
0
LINE
8
0
10
200.456039
20
459.703107
11
200.518039
21
459.572109
0
LINE
8
0
10
200.518039
20
459.572109
11
200.568039
21
459.435108
0
LINE
8
0
10
200.568039
20
459.435108
11
200.606039
21
459.290109
0
LINE
8
0
10
200.606039
20
459.290109
11
200.628052
21
459.142109
0
LINE
8
0
10
200.628052
20
459.142109
11
200.636043
21
459.026108
0
LINE
8
0
10
200.636043
20
459.026108
11
200.636043
21
458.987108
0
LINE
8
0
10
165.853086
20
574.270964
11
165.853086
21
574.231965
0
LINE
8
0
10
165.853086
20
574.231965
11
165.846074
21
574.116964
0
LINE
8
0
10
165.846074
20
574.116964
11
165.824087
21
573.967964
0
LINE
8
0
10
165.824087
20
573.967964
11
165.786088
21
573.824965
0
LINE
8
0
10
165.786088
20
573.824965
11
165.736087
21
573.685963
0
LINE
8
0
10
165.736087
20
573.685963
11
165.672090
21
573.554966
0
LINE
8
0
10
165.672090
20
573.554966
11
165.597088
21
573.431964
0
LINE
8
0
10
165.597088
20
573.431964
11
165.511088
21
573.316965
0
LINE
8
0
10
165.511088
20
573.316965
11
165.414089
21
573.209965
0
LINE
8
0
10
165.414089
20
573.209965
11
165.307089
21
573.111964
0
LINE
8
0
10
165.307089
20
573.111964
11
165.192088
21
573.025966
0
LINE
8
0
10
165.192088
20
573.025966
11
165.068089
21
572.950965
0
LINE
8
0
10
165.068089
20
572.950965
11
164.938089
21
572.888965
0
LINE
8
0
10
164.938089
20
572.888965
11
164.800090
21
572.836967
0
LINE
8
0
10
164.800090
20
572.836967
11
164.656091
21
572.800965
0
LINE
8
0
10
164.656091
20
572.800965
11
164.507091
21
572.777973
0
LINE
8
0
10
164.507091
20
572.777973
11
164.392090
21
572.770988
0
LINE
8
0
10
164.392090
20
572.770988
11
164.353090
21
572.770988
0
LINE
8
0
10
164.353090
20
572.770988
11
164.315091
21
572.770988
0
LINE
8
0
10
164.315091
20
572.770988
11
164.200090
21
572.777973
0
LINE
8
0
10
164.200090
20
572.777973
11
164.051090
21
572.800965
0
LINE
8
0
10
164.051090
20
572.800965
11
163.907091
21
572.836967
0
LINE
8
0
10
163.907091
20
572.836967
11
163.770090
21
572.888965
0
LINE
8
0
10
163.770090
20
572.888965
11
163.639092
21
572.950965
0
LINE
8
0
10
163.639092
20
572.950965
11
163.515090
21
573.025966
0
LINE
8
0
10
163.515090
20
573.025966
11
163.400092
21
573.111964
0
LINE
8
0
10
163.400092
20
573.111964
11
163.293092
21
573.209965
0
LINE
8
0
10
163.293092
20
573.209965
11
163.196093
21
573.316965
0
LINE
8
0
10
163.196093
20
573.316965
11
163.110093
21
573.431964
0
LINE
8
0
10
163.110093
20
573.431964
11
163.035091
21
573.554966
0
LINE
8
0
10
163.035091
20
573.554966
11
162.971091
21
573.685963
0
LINE
8
0
10
162.971091
20
573.685963
11
162.921091
21
573.824965
0
LINE
8
0
10
162.921091
20
573.824965
11
162.883091
21
573.967964
0
LINE
8
0
10
162.883091
20
573.967964
11
162.861078
21
574.116964
0
LINE
8
0
10
162.861078
20
574.116964
11
162.853087
21
574.231965
0
LINE
8
0
10
162.853087
20
574.231965
11
162.853087
21
574.270964
0
LINE
8
0
10
162.853087
20
574.270964
11
162.853087
21
574.307964
0
LINE
8
0
10
162.853087
20
574.307964
11
162.861078
21
574.422965
0
LINE
8
0
10
162.861078
20
574.422965
11
162.883091
21
574.571965
0
LINE
8
0
10
162.883091
20
574.571965
11
162.921091
21
574.715964
0
LINE
8
0
10
162.921091
20
574.715964
11
162.971091
21
574.853962
0
LINE
8
0
10
162.971091
20
574.853962
11
163.035091
21
574.985963
0
LINE
8
0
10
163.035091
20
574.985963
11
163.110093
21
575.109962
0
LINE
8
0
10
163.110093
20
575.109962
11
163.196093
21
575.224963
0
LINE
8
0
10
163.196093
20
575.224963
11
163.293092
21
575.329963
0
LINE
8
0
10
163.293092
20
575.329963
11
163.400092
21
575.427962
0
LINE
8
0
10
163.400092
20
575.427962
11
163.515090
21
575.513962
0
LINE
8
0
10
163.515090
20
575.513962
11
163.639092
21
575.588963
0
LINE
8
0
10
163.639092
20
575.588963
11
163.770090
21
575.652961
0
LINE
8
0
10
163.770090
20
575.652961
11
163.907091
21
575.702962
0
LINE
8
0
10
163.907091
20
575.702962
11
164.051090
21
575.739961
0
LINE
8
0
10
164.051090
20
575.739961
11
164.200090
21
575.761974
0
LINE
8
0
10
164.200090
20
575.761974
11
164.315091
21
575.770970
0
LINE
8
0
10
164.315091
20
575.770970
11
164.353090
21
575.770970
0
LINE
8
0
10
164.353090
20
575.770970
11
164.392090
21
575.770970
0
LINE
8
0
10
164.392090
20
575.770970
11
164.507091
21
575.761974
0
LINE
8
0
10
164.507091
20
575.761974
11
164.656091
21
575.739961
0
LINE
8
0
10
164.656091
20
575.739961
11
164.800090
21
575.702962
0
LINE
8
0
10
164.800090
20
575.702962
11
164.938089
21
575.652961
0
LINE
8
0
10
164.938089
20
575.652961
11
165.068089
21
575.588963
0
LINE
8
0
10
165.068089
20
575.588963
11
165.192088
21
575.513962
0
LINE
8
0
10
165.192088
20
575.513962
11
165.307089
21
575.427962
0
LINE
8
0
10
165.307089
20
575.427962
11
165.414089
21
575.329963
0
LINE
8
0
10
165.414089
20
575.329963
11
165.511088
21
575.224963
0
LINE
8
0
10
165.511088
20
575.224963
11
165.597088
21
575.109962
0
LINE
8
0
10
165.597088
20
575.109962
11
165.672090
21
574.985963
0
LINE
8
0
10
165.672090
20
574.985963
11
165.736087
21
574.853962
0
LINE
8
0
10
165.736087
20
574.853962
11
165.786088
21
574.715964
0
LINE
8
0
10
165.786088
20
574.715964
11
165.824087
21
574.571965
0
LINE
8
0
10
165.824087
20
574.571965
11
165.846074
21
574.422965
0
LINE
8
0
10
165.846074
20
574.422965
11
165.853086
21
574.307964
0
LINE
8
0
10
165.853086
20
574.307964
11
165.853086
21
574.270964
0
LINE
8
0
10
167.975084
20
589.825944
11
167.975084
21
589.788945
0
LINE
8
0
10
167.975084
20
589.788945
11
167.967093
21
589.672944
0
LINE
8
0
10
167.967093
20
589.672944
11
167.945106
21
589.524944
0
LINE
8
0
10
167.945106
20
589.524944
11
167.907107
21
589.379945
0
LINE
8
0
10
167.907107
20
589.379945
11
167.857106
21
589.242944
0
LINE
8
0
10
167.857106
20
589.242944
11
167.793106
21
589.111946
0
LINE
8
0
10
167.793106
20
589.111946
11
167.718107
21
588.988944
0
LINE
8
0
10
167.718107
20
588.988944
11
167.632107
21
588.871945
0
LINE
8
0
10
167.632107
20
588.871945
11
167.536109
21
588.765946
0
LINE
8
0
10
167.536109
20
588.765946
11
167.429109
21
588.668944
0
LINE
8
0
10
167.429109
20
588.668944
11
167.314108
21
588.582947
0
LINE
8
0
10
167.314108
20
588.582947
11
167.190108
21
588.507945
0
LINE
8
0
10
167.190108
20
588.507945
11
167.058108
21
588.443945
0
LINE
8
0
10
167.058108
20
588.443945
11
166.921109
21
588.393945
0
LINE
8
0
10
166.921109
20
588.393945
11
166.776107
21
588.356945
0
LINE
8
0
10
166.776107
20
588.356945
11
166.628107
21
588.334932
0
LINE
8
0
10
166.628107
20
588.334932
11
166.513109
21
588.325936
0
LINE
8
0
10
166.513109
20
588.325936
11
166.475110
21
588.325936
0
LINE
8
0
10
166.475110
20
588.325936
11
166.436110
21
588.325936
0
LINE
8
0
10
166.436110
20
588.325936
11
166.321109
21
588.334932
0
LINE
8
0
10
166.321109
20
588.334932
11
166.172109
21
588.356945
0
LINE
8
0
10
166.172109
20
588.356945
11
166.029110
21
588.393945
0
LINE
8
0
10
166.029110
20
588.393945
11
165.890109
21
588.443945
0
LINE
8
0
10
165.890109
20
588.443945
11
165.760108
21
588.507945
0
LINE
8
0
10
165.760108
20
588.507945
11
165.636109
21
588.582947
0
LINE
8
0
10
165.636109
20
588.582947
11
165.521111
21
588.668944
0
LINE
8
0
10
165.521111
20
588.668944
11
165.414111
21
588.765946
0
LINE
8
0
10
165.414111
20
588.765946
11
165.317109
21
588.871945
0
LINE
8
0
10
165.317109
20
588.871945
11
165.231109
21
588.988944
0
LINE
8
0
10
165.231109
20
588.988944
11
165.156110
21
589.111946
0
LINE
8
0
10
165.156110
20
589.111946
11
165.093111
21
589.242944
0
LINE
8
0
10
165.093111
20
589.242944
11
165.042110
21
589.379945
0
LINE
8
0
10
165.042110
20
589.379945
11
165.006110
21
589.524944
0
LINE
8
0
10
165.006110
20
589.524944
11
164.982113
21
589.672944
0
LINE
8
0
10
164.982113
20
589.672944
11
164.975101
21
589.788945
0
LINE
8
0
10
164.975101
20
589.788945
11
164.975101
21
589.825944
0
LINE
8
0
10
164.975101
20
589.825944
11
164.975101
21
589.864944
0
LINE
8
0
10
164.975101
20
589.864944
11
164.982113
21
589.979945
0
LINE
8
0
10
164.982113
20
589.979945
11
165.006110
21
590.128945
0
LINE
8
0
10
165.006110
20
590.128945
11
165.042110
21
590.272944
0
LINE
8
0
10
165.042110
20
590.272944
11
165.093111
21
590.410943
0
LINE
8
0
10
165.093111
20
590.410943
11
165.156110
21
590.541943
0
LINE
8
0
10
165.156110
20
590.541943
11
165.231109
21
590.664942
0
LINE
8
0
10
165.231109
20
590.664942
11
165.317109
21
590.779943
0
LINE
8
0
10
165.317109
20
590.779943
11
165.414111
21
590.886943
0
LINE
8
0
10
165.414111
20
590.886943
11
165.521111
21
590.984942
0
LINE
8
0
10
165.521111
20
590.984942
11
165.636109
21
591.070942
0
LINE
8
0
10
165.636109
20
591.070942
11
165.760108
21
591.145941
0
LINE
8
0
10
165.760108
20
591.145941
11
165.890109
21
591.209941
0
LINE
8
0
10
165.890109
20
591.209941
11
166.029110
21
591.259942
0
LINE
8
0
10
166.029110
20
591.259942
11
166.172109
21
591.295941
0
LINE
8
0
10
166.172109
20
591.295941
11
166.321109
21
591.318933
0
LINE
8
0
10
166.321109
20
591.318933
11
166.436110
21
591.325945
0
LINE
8
0
10
166.436110
20
591.325945
11
166.475110
21
591.325945
0
LINE
8
0
10
166.475110
20
591.325945
11
166.513109
21
591.325945
0
LINE
8
0
10
166.513109
20
591.325945
11
166.628107
21
591.318933
0
LINE
8
0
10
166.628107
20
591.318933
11
166.776107
21
591.295941
0
LINE
8
0
10
166.776107
20
591.295941
11
166.921109
21
591.259942
0
LINE
8
0
10
166.921109
20
591.259942
11
167.058108
21
591.209941
0
LINE
8
0
10
167.058108
20
591.209941
11
167.190108
21
591.145941
0
LINE
8
0
10
167.190108
20
591.145941
11
167.314108
21
591.070942
0
LINE
8
0
10
167.314108
20
591.070942
11
167.429109
21
590.984942
0
LINE
8
0
10
167.429109
20
590.984942
11
167.536109
21
590.886943
0
LINE
8
0
10
167.536109
20
590.886943
11
167.632107
21
590.779943
0
LINE
8
0
10
167.632107
20
590.779943
11
167.718107
21
590.664942
0
LINE
8
0
10
167.718107
20
590.664942
11
167.793106
21
590.541943
0
LINE
8
0
10
167.793106
20
590.541943
11
167.857106
21
590.410943
0
LINE
8
0
10
167.857106
20
590.410943
11
167.907107
21
590.272944
0
LINE
8
0
10
167.907107
20
590.272944
11
167.945106
21
590.128945
0
LINE
8
0
10
167.945106
20
590.128945
11
167.967093
21
589.979945
0
LINE
8
0
10
167.967093
20
589.979945
11
167.975084
21
589.864944
0
LINE
8
0
10
167.975084
20
589.864944
11
167.975084
21
589.825944
0
LINE
8
0
10
152.418103
20
587.704947
11
152.418103
21
587.666947
0
LINE
8
0
10
152.418103
20
587.666947
11
152.411092
21
587.552946
0
LINE
8
0
10
152.411092
20
587.552946
11
152.388100
21
587.402946
0
LINE
8
0
10
152.388100
20
587.402946
11
152.351100
21
587.259947
0
LINE
8
0
10
152.351100
20
587.259947
11
152.300099
21
587.121949
0
LINE
8
0
10
152.300099
20
587.121949
11
152.238099
21
586.989948
0
LINE
8
0
10
152.238099
20
586.989948
11
152.163101
21
586.866949
0
LINE
8
0
10
152.163101
20
586.866949
11
152.076101
21
586.750948
0
LINE
8
0
10
152.076101
20
586.750948
11
151.979099
21
586.643948
0
LINE
8
0
10
151.979099
20
586.643948
11
151.872099
21
586.547949
0
LINE
8
0
10
151.872099
20
586.547949
11
151.757101
21
586.460949
0
LINE
8
0
10
151.757101
20
586.460949
11
151.633101
21
586.385947
0
LINE
8
0
10
151.633101
20
586.385947
11
151.503101
21
586.322948
0
LINE
8
0
10
151.503101
20
586.322948
11
151.364100
21
586.272949
0
LINE
8
0
10
151.364100
20
586.272949
11
151.221101
21
586.235947
0
LINE
8
0
10
151.221101
20
586.235947
11
151.072101
21
586.213934
0
LINE
8
0
10
151.072101
20
586.213934
11
150.957102
21
586.204938
0
LINE
8
0
10
150.957102
20
586.204938
11
150.918103
21
586.204938
0
LINE
8
0
10
150.918103
20
586.204938
11
150.881101
21
586.204938
0
LINE
8
0
10
150.881101
20
586.204938
11
150.765102
21
586.213934
0
LINE
8
0
10
150.765102
20
586.213934
11
150.617103
21
586.235947
0
LINE
8
0
10
150.617103
20
586.235947
11
150.472103
21
586.272949
0
LINE
8
0
10
150.472103
20
586.272949
11
150.335102
21
586.322948
0
LINE
8
0
10
150.335102
20
586.322948
11
150.203102
21
586.385947
0
LINE
8
0
10
150.203102
20
586.385947
11
150.079102
21
586.460949
0
LINE
8
0
10
150.079102
20
586.460949
11
149.964104
21
586.547949
0
LINE
8
0
10
149.964104
20
586.547949
11
149.858104
21
586.643948
0
LINE
8
0
10
149.858104
20
586.643948
11
149.761103
21
586.750948
0
LINE
8
0
10
149.761103
20
586.750948
11
149.675102
21
586.866949
0
LINE
8
0
10
149.675102
20
586.866949
11
149.600104
21
586.989948
0
LINE
8
0
10
149.600104
20
586.989948
11
149.536104
21
587.121949
0
LINE
8
0
10
149.536104
20
587.121949
11
149.486103
21
587.259947
0
LINE
8
0
10
149.486103
20
587.259947
11
149.449104
21
587.402946
0
LINE
8
0
10
149.449104
20
587.402946
11
149.426111
21
587.552946
0
LINE
8
0
10
149.426111
20
587.552946
11
149.418121
21
587.666947
0
LINE
8
0
10
149.418121
20
587.666947
11
149.418121
21
587.704947
0
LINE
8
0
10
149.418121
20
587.704947
11
149.418121
21
587.743946
0
LINE
8
0
10
149.418121
20
587.743946
11
149.426111
21
587.857947
0
LINE
8
0
10
149.426111
20
587.857947
11
149.449104
21
588.007947
0
LINE
8
0
10
149.449104
20
588.007947
11
149.486103
21
588.150946
0
LINE
8
0
10
149.486103
20
588.150946
11
149.536104
21
588.288947
0
LINE
8
0
10
149.536104
20
588.288947
11
149.600104
21
588.420945
0
LINE
8
0
10
149.600104
20
588.420945
11
149.675102
21
588.543945
0
LINE
8
0
10
149.675102
20
588.543945
11
149.761103
21
588.659946
0
LINE
8
0
10
149.761103
20
588.659946
11
149.858104
21
588.765946
0
LINE
8
0
10
149.858104
20
588.765946
11
149.964104
21
588.861944
0
LINE
8
0
10
149.964104
20
588.861944
11
150.079102
21
588.949945
0
LINE
8
0
10
150.079102
20
588.949945
11
150.203102
21
589.024946
0
LINE
8
0
10
150.203102
20
589.024946
11
150.335102
21
589.086946
0
LINE
8
0
10
150.335102
20
589.086946
11
150.472103
21
589.136944
0
LINE
8
0
10
150.472103
20
589.136944
11
150.617103
21
589.174946
0
LINE
8
0
10
150.617103
20
589.174946
11
150.765102
21
589.196959
0
LINE
8
0
10
150.765102
20
589.196959
11
150.881101
21
589.204950
0
LINE
8
0
10
150.881101
20
589.204950
11
150.918103
21
589.204950
0
LINE
8
0
10
150.918103
20
589.204950
11
150.957102
21
589.204950
0
LINE
8
0
10
150.957102
20
589.204950
11
151.072101
21
589.196959
0
LINE
8
0
10
151.072101
20
589.196959
11
151.221101
21
589.174946
0
LINE
8
0
10
151.221101
20
589.174946
11
151.364100
21
589.136944
0
LINE
8
0
10
151.364100
20
589.136944
11
151.503101
21
589.086946
0
LINE
8
0
10
151.503101
20
589.086946
11
151.633101
21
589.024946
0
LINE
8
0
10
151.633101
20
589.024946
11
151.757101
21
588.949945
0
LINE
8
0
10
151.757101
20
588.949945
11
151.872099
21
588.861944
0
LINE
8
0
10
151.872099
20
588.861944
11
151.979099
21
588.765946
0
LINE
8
0
10
151.979099
20
588.765946
11
152.076101
21
588.659946
0
LINE
8
0
10
152.076101
20
588.659946
11
152.163101
21
588.543945
0
LINE
8
0
10
152.163101
20
588.543945
11
152.238099
21
588.420945
0
LINE
8
0
10
152.238099
20
588.420945
11
152.300099
21
588.288947
0
LINE
8
0
10
152.300099
20
588.288947
11
152.351100
21
588.150946
0
LINE
8
0
10
152.351100
20
588.150946
11
152.388100
21
588.007947
0
LINE
8
0
10
152.388100
20
588.007947
11
152.411092
21
587.857947
0
LINE
8
0
10
152.411092
20
587.857947
11
152.418103
21
587.743946
0
LINE
8
0
10
152.418103
20
587.743946
11
152.418103
21
587.704947
0
LINE
8
0
10
150.297105
20
572.147966
11
150.297105
21
572.110967
0
LINE
8
0
10
150.297105
20
572.110967
11
150.289115
21
571.995966
0
LINE
8
0
10
150.289115
20
571.995966
11
150.267102
21
571.846967
0
LINE
8
0
10
150.267102
20
571.846967
11
150.229102
21
571.702967
0
LINE
8
0
10
150.229102
20
571.702967
11
150.179101
21
571.564967
0
LINE
8
0
10
150.179101
20
571.564967
11
150.117102
21
571.434967
0
LINE
8
0
10
150.117102
20
571.434967
11
150.040103
21
571.310967
0
LINE
8
0
10
150.040103
20
571.310967
11
149.954103
21
571.193968
0
LINE
8
0
10
149.954103
20
571.193968
11
149.858104
21
571.088968
0
LINE
8
0
10
149.858104
20
571.088968
11
149.751104
21
570.991968
0
LINE
8
0
10
149.751104
20
570.991968
11
149.636103
21
570.904968
0
LINE
8
0
10
149.636103
20
570.904968
11
149.513104
21
570.829968
0
LINE
8
0
10
149.513104
20
570.829968
11
149.381103
21
570.765968
0
LINE
8
0
10
149.381103
20
570.765968
11
149.243105
21
570.715968
0
LINE
8
0
10
149.243105
20
570.715968
11
149.100103
21
570.678968
0
LINE
8
0
10
149.100103
20
570.678968
11
148.950105
21
570.656968
0
LINE
8
0
10
148.950105
20
570.656968
11
148.836105
21
570.647967
0
LINE
8
0
10
148.836105
20
570.647967
11
148.797105
21
570.647967
0
LINE
8
0
10
148.797105
20
570.647967
11
148.758105
21
570.647967
0
LINE
8
0
10
148.758105
20
570.647967
11
148.645105
21
570.656968
0
LINE
8
0
10
148.645105
20
570.656968
11
148.494105
21
570.678968
0
LINE
8
0
10
148.494105
20
570.678968
11
148.351105
21
570.715968
0
LINE
8
0
10
148.351105
20
570.715968
11
148.214104
21
570.765968
0
LINE
8
0
10
148.214104
20
570.765968
11
148.082106
21
570.829968
0
LINE
8
0
10
148.082106
20
570.829968
11
147.958104
21
570.904968
0
LINE
8
0
10
147.958104
20
570.904968
11
147.843106
21
570.991968
0
LINE
8
0
10
147.843106
20
570.991968
11
147.736106
21
571.088968
0
LINE
8
0
10
147.736106
20
571.088968
11
147.640105
21
571.193968
0
LINE
8
0
10
147.640105
20
571.193968
11
147.553107
21
571.310967
0
LINE
8
0
10
147.553107
20
571.310967
11
147.478106
21
571.434967
0
LINE
8
0
10
147.478106
20
571.434967
11
147.415106
21
571.564967
0
LINE
8
0
10
147.415106
20
571.564967
11
147.364105
21
571.702967
0
LINE
8
0
10
147.364105
20
571.702967
11
147.328106
21
571.846967
0
LINE
8
0
10
147.328106
20
571.846967
11
147.304108
21
571.995966
0
LINE
8
0
10
147.304108
20
571.995966
11
147.297097
21
572.110967
0
LINE
8
0
10
147.297097
20
572.110967
11
147.297097
21
572.147966
0
LINE
8
0
10
147.297097
20
572.147966
11
147.297097
21
572.186966
0
LINE
8
0
10
147.297097
20
572.186966
11
147.304108
21
572.302967
0
LINE
8
0
10
147.304108
20
572.302967
11
147.328106
21
572.450967
0
LINE
8
0
10
147.328106
20
572.450967
11
147.364105
21
572.595966
0
LINE
8
0
10
147.364105
20
572.595966
11
147.415106
21
572.732965
0
LINE
8
0
10
147.415106
20
572.732965
11
147.478106
21
572.863965
0
LINE
8
0
10
147.478106
20
572.863965
11
147.553107
21
572.986964
0
LINE
8
0
10
147.553107
20
572.986964
11
147.640105
21
573.102965
0
LINE
8
0
10
147.640105
20
573.102965
11
147.736106
21
573.209965
0
LINE
8
0
10
147.736106
20
573.209965
11
147.843106
21
573.306964
0
LINE
8
0
10
147.843106
20
573.306964
11
147.958104
21
573.392964
0
LINE
8
0
10
147.958104
20
573.392964
11
148.082106
21
573.467966
0
LINE
8
0
10
148.082106
20
573.467966
11
148.214104
21
573.531966
0
LINE
8
0
10
148.214104
20
573.531966
11
148.351105
21
573.581964
0
LINE
8
0
10
148.351105
20
573.581964
11
148.494105
21
573.618966
0
LINE
8
0
10
148.494105
20
573.618966
11
148.645105
21
573.640953
0
LINE
8
0
10
148.645105
20
573.640953
11
148.758105
21
573.647964
0
LINE
8
0
10
148.758105
20
573.647964
11
148.797105
21
573.647964
0
LINE
8
0
10
148.797105
20
573.647964
11
148.836105
21
573.647964
0
LINE
8
0
10
148.836105
20
573.647964
11
148.950105
21
573.640953
0
LINE
8
0
10
148.950105
20
573.640953
11
149.100103
21
573.618966
0
LINE
8
0
10
149.100103
20
573.618966
11
149.243105
21
573.581964
0
LINE
8
0
10
149.243105
20
573.581964
11
149.381103
21
573.531966
0
LINE
8
0
10
149.381103
20
573.531966
11
149.513104
21
573.467966
0
LINE
8
0
10
149.513104
20
573.467966
11
149.636103
21
573.392964
0
LINE
8
0
10
149.636103
20
573.392964
11
149.751104
21
573.306964
0
LINE
8
0
10
149.751104
20
573.306964
11
149.858104
21
573.209965
0
LINE
8
0
10
149.858104
20
573.209965
11
149.954103
21
573.102965
0
LINE
8
0
10
149.954103
20
573.102965
11
150.040103
21
572.986964
0
LINE
8
0
10
150.040103
20
572.986964
11
150.117102
21
572.863965
0
LINE
8
0
10
150.117102
20
572.863965
11
150.179101
21
572.732965
0
LINE
8
0
10
150.179101
20
572.732965
11
150.229102
21
572.595966
0
LINE
8
0
10
150.229102
20
572.595966
11
150.267102
21
572.450967
0
LINE
8
0
10
150.267102
20
572.450967
11
150.289115
21
572.302967
0
LINE
8
0
10
150.289115
20
572.302967
11
150.297105
21
572.186966
0
LINE
8
0
10
150.297105
20
572.186966
11
150.297105
21
572.147966
0
LINE
8
0
10
161.636090
20
580.986954
11
161.636090
21
580.885955
0
LINE
8
0
10
161.636090
20
580.885955
11
161.615082
21
580.578956
0
LINE
8
0
10
161.615082
20
580.578956
11
161.554083
21
580.181955
0
LINE
8
0
10
161.554083
20
580.181955
11
161.456084
21
579.797958
0
LINE
8
0
10
161.456084
20
579.797958
11
161.322083
21
579.429957
0
LINE
8
0
10
161.322083
20
579.429957
11
161.153083
21
579.081959
0
LINE
8
0
10
161.153083
20
579.081959
11
160.953085
21
578.750958
0
LINE
8
0
10
160.953085
20
578.750958
11
160.722083
21
578.442959
0
LINE
8
0
10
160.722083
20
578.442959
11
160.464085
21
578.159959
0
LINE
8
0
10
160.464085
20
578.159959
11
160.181085
21
577.900958
0
LINE
8
0
10
160.181085
20
577.900958
11
159.872086
21
577.670959
0
LINE
8
0
10
159.872086
20
577.670959
11
159.543085
21
577.470961
0
LINE
8
0
10
159.543085
20
577.470961
11
159.193087
21
577.302961
0
LINE
8
0
10
159.193087
20
577.302961
11
158.825086
21
577.167960
0
LINE
8
0
10
158.825086
20
577.167960
11
158.442087
21
577.068961
0
LINE
8
0
10
158.442087
20
577.068961
11
158.045088
21
577.007959
0
LINE
8
0
10
158.045088
20
577.007959
11
157.738087
21
576.986951
0
LINE
8
0
10
157.738087
20
576.986951
11
157.636087
21
576.986951
0
LINE
8
0
10
157.636087
20
576.986951
11
157.533088
21
576.986951
0
LINE
8
0
10
157.533088
20
576.986951
11
157.226090
21
577.007959
0
LINE
8
0
10
157.226090
20
577.007959
11
156.829088
21
577.068961
0
LINE
8
0
10
156.829088
20
577.068961
11
156.446088
21
577.167960
0
LINE
8
0
10
156.446088
20
577.167960
11
156.079091
21
577.302961
0
LINE
8
0
10
156.079091
20
577.302961
11
155.729090
21
577.470961
0
LINE
8
0
10
155.729090
20
577.470961
11
155.400091
21
577.670959
0
LINE
8
0
10
155.400091
20
577.670959
11
155.092090
21
577.900958
0
LINE
8
0
10
155.092090
20
577.900958
11
154.807092
21
578.159959
0
LINE
8
0
10
154.807092
20
578.159959
11
154.550092
21
578.442959
0
LINE
8
0
10
154.550092
20
578.442959
11
154.320093
21
578.750958
0
LINE
8
0
10
154.320093
20
578.750958
11
154.118091
21
579.081959
0
LINE
8
0
10
154.118091
20
579.081959
11
153.950092
21
579.429957
0
LINE
8
0
10
153.950092
20
579.429957
11
153.815094
21
579.797958
0
LINE
8
0
10
153.815094
20
579.797958
11
153.717092
21
580.181955
0
LINE
8
0
10
153.717092
20
580.181955
11
153.657093
21
580.578956
0
LINE
8
0
10
153.657093
20
580.578956
11
153.636085
21
580.885955
0
LINE
8
0
10
153.636085
20
580.885955
11
153.636085
21
580.986954
0
LINE
8
0
10
153.636085
20
580.986954
11
153.636085
21
581.089956
0
LINE
8
0
10
153.636085
20
581.089956
11
153.657093
21
581.396955
0
LINE
8
0
10
153.657093
20
581.396955
11
153.717092
21
581.793953
0
LINE
8
0
10
153.717092
20
581.793953
11
153.815094
21
582.177953
0
LINE
8
0
10
153.815094
20
582.177953
11
153.950092
21
582.543954
0
LINE
8
0
10
153.950092
20
582.543954
11
154.118091
21
582.893952
0
LINE
8
0
10
154.118091
20
582.893952
11
154.320093
21
583.224953
0
LINE
8
0
10
154.320093
20
583.224953
11
154.550092
21
583.531951
0
LINE
8
0
10
154.550092
20
583.531951
11
154.807092
21
583.816952
0
LINE
8
0
10
154.807092
20
583.816952
11
155.092090
21
584.074953
0
LINE
8
0
10
155.092090
20
584.074953
11
155.400091
21
584.304952
0
LINE
8
0
10
155.400091
20
584.304952
11
155.729090
21
584.504950
0
LINE
8
0
10
155.729090
20
584.504950
11
156.079091
21
584.672950
0
LINE
8
0
10
156.079091
20
584.672950
11
156.446088
21
584.807951
0
LINE
8
0
10
156.446088
20
584.807951
11
156.829088
21
584.906950
0
LINE
8
0
10
156.829088
20
584.906950
11
157.226090
21
584.967949
0
LINE
8
0
10
157.226090
20
584.967949
11
157.533088
21
584.986946
0
LINE
8
0
10
157.533088
20
584.986946
11
157.636087
21
584.986946
0
LINE
8
0
10
157.636087
20
584.986946
11
157.738087
21
584.986946
0
LINE
8
0
10
157.738087
20
584.986946
11
158.045088
21
584.967949
0
LINE
8
0
10
158.045088
20
584.967949
11
158.442087
21
584.906950
0
LINE
8
0
10
158.442087
20
584.906950
11
158.825086
21
584.807951
0
LINE
8
0
10
158.825086
20
584.807951
11
159.193087
21
584.672950
0
LINE
8
0
10
159.193087
20
584.672950
11
159.543085
21
584.504950
0
LINE
8
0
10
159.543085
20
584.504950
11
159.872086
21
584.304952
0
LINE
8
0
10
159.872086
20
584.304952
11
160.181085
21
584.074953
0
LINE
8
0
10
160.181085
20
584.074953
11
160.464085
21
583.816952
0
LINE
8
0
10
160.464085
20
583.816952
11
160.722083
21
583.531951
0
LINE
8
0
10
160.722083
20
583.531951
11
160.953085
21
583.224953
0
LINE
8
0
10
160.953085
20
583.224953
11
161.153083
21
582.893952
0
LINE
8
0
10
161.153083
20
582.893952
11
161.322083
21
582.543954
0
LINE
8
0
10
161.322083
20
582.543954
11
161.456084
21
582.177953
0
LINE
8
0
10
161.456084
20
582.177953
11
161.554083
21
581.793953
0
LINE
8
0
10
161.554083
20
581.793953
11
161.615082
21
581.396955
0
LINE
8
0
10
161.615082
20
581.396955
11
161.636090
21
581.089956
0
LINE
8
0
10
161.636090
20
581.089956
11
161.636090
21
580.986954
0
LINE
8
0
10
228.939007
20
482.271079
11
228.939007
21
482.232080
0
LINE
8
0
10
228.939007
20
482.232080
11
228.931017
21
482.117081
0
LINE
8
0
10
228.931017
20
482.117081
11
228.908025
21
481.968081
0
LINE
8
0
10
228.908025
20
481.968081
11
228.871025
21
481.825079
0
LINE
8
0
10
228.871025
20
481.825079
11
228.821024
21
481.686081
0
LINE
8
0
10
228.821024
20
481.686081
11
228.758025
21
481.555080
0
LINE
8
0
10
228.758025
20
481.555080
11
228.682026
21
481.432081
0
LINE
8
0
10
228.682026
20
481.432081
11
228.596026
21
481.317080
0
LINE
8
0
10
228.596026
20
481.317080
11
228.500024
21
481.210080
0
LINE
8
0
10
228.500024
20
481.210080
11
228.393024
21
481.112081
0
LINE
8
0
10
228.393024
20
481.112081
11
228.278026
21
481.026081
0
LINE
8
0
10
228.278026
20
481.026081
11
228.154027
21
480.951082
0
LINE
8
0
10
228.154027
20
480.951082
11
228.022026
21
480.889083
0
LINE
8
0
10
228.022026
20
480.889083
11
227.885025
21
480.837082
0
LINE
8
0
10
227.885025
20
480.837082
11
227.742026
21
480.801082
0
LINE
8
0
10
227.742026
20
480.801082
11
227.592026
21
480.778090
0
LINE
8
0
10
227.592026
20
480.778090
11
227.476027
21
480.771079
0
LINE
8
0
10
227.476027
20
480.771079
11
227.439025
21
480.771079
0
LINE
8
0
10
227.439025
20
480.771079
11
227.400026
21
480.771079
0
LINE
8
0
10
227.400026
20
480.771079
11
227.285028
21
480.778090
0
LINE
8
0
10
227.285028
20
480.778090
11
227.136028
21
480.801082
0
LINE
8
0
10
227.136028
20
480.801082
11
226.993028
21
480.837082
0
LINE
8
0
10
226.993028
20
480.837082
11
226.854027
21
480.889083
0
LINE
8
0
10
226.854027
20
480.889083
11
226.724027
21
480.951082
0
LINE
8
0
10
226.724027
20
480.951082
11
226.600027
21
481.026081
0
LINE
8
0
10
226.600027
20
481.026081
11
226.485026
21
481.112081
0
LINE
8
0
10
226.485026
20
481.112081
11
226.378029
21
481.210080
0
LINE
8
0
10
226.378029
20
481.210080
11
226.281028
21
481.317080
0
LINE
8
0
10
226.281028
20
481.317080
11
226.195028
21
481.432081
0
LINE
8
0
10
226.195028
20
481.432081
11
226.119029
21
481.555080
0
LINE
8
0
10
226.119029
20
481.555080
11
226.057029
21
481.686081
0
LINE
8
0
10
226.057029
20
481.686081
11
226.006028
21
481.825079
0
LINE
8
0
10
226.006028
20
481.825079
11
225.969029
21
481.968081
0
LINE
8
0
10
225.969029
20
481.968081
11
225.946036
21
482.117081
0
LINE
8
0
10
225.946036
20
482.117081
11
225.939025
21
482.232080
0
LINE
8
0
10
225.939025
20
482.232080
11
225.939025
21
482.271079
0
LINE
8
0
10
225.939025
20
482.271079
11
225.939025
21
482.308078
0
LINE
8
0
10
225.939025
20
482.308078
11
225.946036
21
482.423079
0
LINE
8
0
10
225.946036
20
482.423079
11
225.969029
21
482.572079
0
LINE
8
0
10
225.969029
20
482.572079
11
226.006028
21
482.716079
0
LINE
8
0
10
226.006028
20
482.716079
11
226.057029
21
482.854080
0
LINE
8
0
10
226.057029
20
482.854080
11
226.119029
21
482.986078
0
LINE
8
0
10
226.119029
20
482.986078
11
226.195028
21
483.110080
0
LINE
8
0
10
226.195028
20
483.110080
11
226.281028
21
483.225078
0
LINE
8
0
10
226.281028
20
483.225078
11
226.378029
21
483.330078
0
LINE
8
0
10
226.378029
20
483.330078
11
226.485026
21
483.428079
0
LINE
8
0
10
226.485026
20
483.428079
11
226.600027
21
483.514079
0
LINE
8
0
10
226.600027
20
483.514079
11
226.724027
21
483.589078
0
LINE
8
0
10
226.724027
20
483.589078
11
226.854027
21
483.653078
0
LINE
8
0
10
226.854027
20
483.653078
11
226.993028
21
483.703079
0
LINE
8
0
10
226.993028
20
483.703079
11
227.136028
21
483.740078
0
LINE
8
0
10
227.136028
20
483.740078
11
227.285028
21
483.762065
0
LINE
8
0
10
227.285028
20
483.762065
11
227.400026
21
483.771061
0
LINE
8
0
10
227.400026
20
483.771061
11
227.439025
21
483.771061
0
LINE
8
0
10
227.439025
20
483.771061
11
227.476027
21
483.771061
0
LINE
8
0
10
227.476027
20
483.771061
11
227.592026
21
483.762065
0
LINE
8
0
10
227.592026
20
483.762065
11
227.742026
21
483.740078
0
LINE
8
0
10
227.742026
20
483.740078
11
227.885025
21
483.703079
0
LINE
8
0
10
227.885025
20
483.703079
11
228.022026
21
483.653078
0
LINE
8
0
10
228.022026
20
483.653078
11
228.154027
21
483.589078
0
LINE
8
0
10
228.154027
20
483.589078
11
228.278026
21
483.514079
0
LINE
8
0
10
228.278026
20
483.514079
11
228.393024
21
483.428079
0
LINE
8
0
10
228.393024
20
483.428079
11
228.500024
21
483.330078
0
LINE
8
0
10
228.500024
20
483.330078
11
228.596026
21
483.225078
0
LINE
8
0
10
228.596026
20
483.225078
11
228.682026
21
483.110080
0
LINE
8
0
10
228.682026
20
483.110080
11
228.758025
21
482.986078
0
LINE
8
0
10
228.758025
20
482.986078
11
228.821024
21
482.854080
0
LINE
8
0
10
228.821024
20
482.854080
11
228.871025
21
482.716079
0
LINE
8
0
10
228.871025
20
482.716079
11
228.908025
21
482.572079
0
LINE
8
0
10
228.908025
20
482.572079
11
228.931017
21
482.423079
0
LINE
8
0
10
228.931017
20
482.423079
11
228.939007
21
482.308078
0
LINE
8
0
10
228.939007
20
482.308078
11
228.939007
21
482.271079
0
LINE
8
0
10
231.060002
20
497.826059
11
231.060002
21
497.789060
0
LINE
8
0
10
231.060002
20
497.789060
11
231.053018
21
497.673061
0
LINE
8
0
10
231.053018
20
497.673061
11
231.029020
21
497.525062
0
LINE
8
0
10
231.029020
20
497.525062
11
230.993021
21
497.380060
0
LINE
8
0
10
230.993021
20
497.380060
11
230.942020
21
497.243061
0
LINE
8
0
10
230.942020
20
497.243061
11
230.879020
21
497.112061
0
LINE
8
0
10
230.879020
20
497.112061
11
230.804021
21
496.989061
0
LINE
8
0
10
230.804021
20
496.989061
11
230.718018
21
496.872060
0
LINE
8
0
10
230.718018
20
496.872060
11
230.621020
21
496.766060
0
LINE
8
0
10
230.621020
20
496.766060
11
230.514020
21
496.669062
0
LINE
8
0
10
230.514020
20
496.669062
11
230.399021
21
496.583061
0
LINE
8
0
10
230.399021
20
496.583061
11
230.275022
21
496.508063
0
LINE
8
0
10
230.275022
20
496.508063
11
230.145022
21
496.444063
0
LINE
8
0
10
230.145022
20
496.444063
11
230.006020
21
496.394062
0
LINE
8
0
10
230.006020
20
496.394062
11
229.863021
21
496.357063
0
LINE
8
0
10
229.863021
20
496.357063
11
229.714021
21
496.335076
0
LINE
8
0
10
229.714021
20
496.335076
11
229.599020
21
496.326080
0
LINE
8
0
10
229.599020
20
496.326080
11
229.560021
21
496.326080
0
LINE
8
0
10
229.560021
20
496.326080
11
229.522021
21
496.326080
0
LINE
8
0
10
229.522021
20
496.326080
11
229.407023
21
496.335076
0
LINE
8
0
10
229.407023
20
496.335076
11
229.258020
21
496.357063
0
LINE
8
0
10
229.258020
20
496.357063
11
229.114021
21
496.394062
0
LINE
8
0
10
229.114021
20
496.394062
11
228.976022
21
496.444063
0
LINE
8
0
10
228.976022
20
496.444063
11
228.844022
21
496.508063
0
LINE
8
0
10
228.844022
20
496.508063
11
228.721023
21
496.583061
0
LINE
8
0
10
228.721023
20
496.583061
11
228.606022
21
496.669062
0
LINE
8
0
10
228.606022
20
496.669062
11
228.500022
21
496.766060
0
LINE
8
0
10
228.500022
20
496.766060
11
228.403023
21
496.872060
0
LINE
8
0
10
228.403023
20
496.872060
11
228.317023
21
496.989061
0
LINE
8
0
10
228.317023
20
496.989061
11
228.242022
21
497.112061
0
LINE
8
0
10
228.242022
20
497.112061
11
228.178022
21
497.243061
0
LINE
8
0
10
228.178022
20
497.243061
11
228.128023
21
497.380060
0
LINE
8
0
10
228.128023
20
497.380060
11
228.090024
21
497.525062
0
LINE
8
0
10
228.090024
20
497.525062
11
228.068037
21
497.673061
0
LINE
8
0
10
228.068037
20
497.673061
11
228.060047
21
497.789060
0
LINE
8
0
10
228.060047
20
497.789060
11
228.060047
21
497.826059
0
LINE
8
0
10
228.060047
20
497.826059
11
228.060047
21
497.865061
0
LINE
8
0
10
228.060047
20
497.865061
11
228.068037
21
497.980060
0
LINE
8
0
10
228.068037
20
497.980060
11
228.090024
21
498.129060
0
LINE
8
0
10
228.090024
20
498.129060
11
228.128023
21
498.273059
0
LINE
8
0
10
228.128023
20
498.273059
11
228.178022
21
498.411060
0
LINE
8
0
10
228.178022
20
498.411060
11
228.242022
21
498.542060
0
LINE
8
0
10
228.242022
20
498.542060
11
228.317023
21
498.665060
0
LINE
8
0
10
228.317023
20
498.665060
11
228.403023
21
498.780058
0
LINE
8
0
10
228.403023
20
498.780058
11
228.500022
21
498.887058
0
LINE
8
0
10
228.500022
20
498.887058
11
228.606022
21
498.985060
0
LINE
8
0
10
228.606022
20
498.985060
11
228.721023
21
499.071060
0
LINE
8
0
10
228.721023
20
499.071060
11
228.844022
21
499.146058
0
LINE
8
0
10
228.844022
20
499.146058
11
228.976022
21
499.210058
0
LINE
8
0
10
228.976022
20
499.210058
11
229.114021
21
499.260059
0
LINE
8
0
10
229.114021
20
499.260059
11
229.258020
21
499.296059
0
LINE
8
0
10
229.258020
20
499.296059
11
229.407023
21
499.319051
0
LINE
8
0
10
229.407023
20
499.319051
11
229.522021
21
499.326062
0
LINE
8
0
10
229.522021
20
499.326062
11
229.560021
21
499.326062
0
LINE
8
0
10
229.560021
20
499.326062
11
229.599020
21
499.326062
0
LINE
8
0
10
229.599020
20
499.326062
11
229.714021
21
499.319051
0
LINE
8
0
10
229.714021
20
499.319051
11
229.863021
21
499.296059
0
LINE
8
0
10
229.863021
20
499.296059
11
230.006020
21
499.260059
0
LINE
8
0
10
230.006020
20
499.260059
11
230.145022
21
499.210058
0
LINE
8
0
10
230.145022
20
499.210058
11
230.275022
21
499.146058
0
LINE
8
0
10
230.275022
20
499.146058
11
230.399021
21
499.071060
0
LINE
8
0
10
230.399021
20
499.071060
11
230.514020
21
498.985060
0
LINE
8
0
10
230.514020
20
498.985060
11
230.621020
21
498.887058
0
LINE
8
0
10
230.621020
20
498.887058
11
230.718018
21
498.780058
0
LINE
8
0
10
230.718018
20
498.780058
11
230.804021
21
498.665060
0
LINE
8
0
10
230.804021
20
498.665060
11
230.879020
21
498.542060
0
LINE
8
0
10
230.879020
20
498.542060
11
230.942020
21
498.411060
0
LINE
8
0
10
230.942020
20
498.411060
11
230.993021
21
498.273059
0
LINE
8
0
10
230.993021
20
498.273059
11
231.029020
21
498.129060
0
LINE
8
0
10
231.029020
20
498.129060
11
231.053018
21
497.980060
0
LINE
8
0
10
231.053018
20
497.980060
11
231.060002
21
497.865061
0
LINE
8
0
10
231.060002
20
497.865061
11
231.060002
21
497.826059
0
LINE
8
0
10
215.504022
20
495.705064
11
215.504022
21
495.667062
0
LINE
8
0
10
215.504022
20
495.667062
11
215.496032
21
495.553064
0
LINE
8
0
10
215.496032
20
495.553064
11
215.474045
21
495.403064
0
LINE
8
0
10
215.474045
20
495.403064
11
215.436043
21
495.260064
0
LINE
8
0
10
215.436043
20
495.260064
11
215.386045
21
495.122063
0
LINE
8
0
10
215.386045
20
495.122063
11
215.322045
21
494.990063
0
LINE
8
0
10
215.322045
20
494.990063
11
215.247043
21
494.867063
0
LINE
8
0
10
215.247043
20
494.867063
11
215.161046
21
494.751065
0
LINE
8
0
10
215.161046
20
494.751065
11
215.064045
21
494.644065
0
LINE
8
0
10
215.064045
20
494.644065
11
214.958045
21
494.548064
0
LINE
8
0
10
214.958045
20
494.548064
11
214.842046
21
494.461063
0
LINE
8
0
10
214.842046
20
494.461063
11
214.718044
21
494.386065
0
LINE
8
0
10
214.718044
20
494.386065
11
214.588047
21
494.323065
0
LINE
8
0
10
214.588047
20
494.323065
11
214.450045
21
494.273064
0
LINE
8
0
10
214.450045
20
494.273064
11
214.306046
21
494.236065
0
LINE
8
0
10
214.306046
20
494.236065
11
214.157046
21
494.214078
0
LINE
8
0
10
214.157046
20
494.214078
11
214.042045
21
494.205082
0
LINE
8
0
10
214.042045
20
494.205082
11
214.004046
21
494.205082
0
LINE
8
0
10
214.004046
20
494.205082
11
213.965046
21
494.205082
0
LINE
8
0
10
213.965046
20
494.205082
11
213.850045
21
494.214078
0
LINE
8
0
10
213.850045
20
494.214078
11
213.701048
21
494.236065
0
LINE
8
0
10
213.701048
20
494.236065
11
213.557046
21
494.273064
0
LINE
8
0
10
213.557046
20
494.273064
11
213.420048
21
494.323065
0
LINE
8
0
10
213.420048
20
494.323065
11
213.289047
21
494.386065
0
LINE
8
0
10
213.289047
20
494.386065
11
213.165048
21
494.461063
0
LINE
8
0
10
213.165048
20
494.461063
11
213.050047
21
494.548064
0
LINE
8
0
10
213.050047
20
494.548064
11
212.943047
21
494.644065
0
LINE
8
0
10
212.943047
20
494.644065
11
212.846048
21
494.751065
0
LINE
8
0
10
212.846048
20
494.751065
11
212.760048
21
494.867063
0
LINE
8
0
10
212.760048
20
494.867063
11
212.685047
21
494.990063
0
LINE
8
0
10
212.685047
20
494.990063
11
212.622047
21
495.122063
0
LINE
8
0
10
212.622047
20
495.122063
11
212.571048
21
495.260064
0
LINE
8
0
10
212.571048
20
495.260064
11
212.535049
21
495.403064
0
LINE
8
0
10
212.535049
20
495.403064
11
212.511051
21
495.553064
0
LINE
8
0
10
212.511051
20
495.553064
11
212.504040
21
495.667062
0
LINE
8
0
10
212.504040
20
495.667062
11
212.504040
21
495.705064
0
LINE
8
0
10
212.504040
20
495.705064
11
212.504040
21
495.744063
0
LINE
8
0
10
212.504040
20
495.744063
11
212.511051
21
495.858062
0
LINE
8
0
10
212.511051
20
495.858062
11
212.535049
21
496.008062
0
LINE
8
0
10
212.535049
20
496.008062
11
212.571048
21
496.151064
0
LINE
8
0
10
212.571048
20
496.151064
11
212.622047
21
496.289062
0
LINE
8
0
10
212.622047
20
496.289062
11
212.685047
21
496.421063
0
LINE
8
0
10
212.685047
20
496.421063
11
212.760048
21
496.544062
0
LINE
8
0
10
212.760048
20
496.544062
11
212.846048
21
496.660060
0
LINE
8
0
10
212.846048
20
496.660060
11
212.943047
21
496.766060
0
LINE
8
0
10
212.943047
20
496.766060
11
213.050047
21
496.862062
0
LINE
8
0
10
213.050047
20
496.862062
11
213.165048
21
496.950062
0
LINE
8
0
10
213.165048
20
496.950062
11
213.289047
21
497.025061
0
LINE
8
0
10
213.289047
20
497.025061
11
213.420048
21
497.087060
0
LINE
8
0
10
213.420048
20
497.087060
11
213.557046
21
497.137061
0
LINE
8
0
10
213.557046
20
497.137061
11
213.701048
21
497.175061
0
LINE
8
0
10
213.701048
20
497.175061
11
213.850045
21
497.197074
0
LINE
8
0
10
213.850045
20
497.197074
11
213.965046
21
497.205064
0
LINE
8
0
10
213.965046
20
497.205064
11
214.004046
21
497.205064
0
LINE
8
0
10
214.004046
20
497.205064
11
214.042045
21
497.205064
0
LINE
8
0
10
214.042045
20
497.205064
11
214.157046
21
497.197074
0
LINE
8
0
10
214.157046
20
497.197074
11
214.306046
21
497.175061
0
LINE
8
0
10
214.306046
20
497.175061
11
214.450045
21
497.137061
0
LINE
8
0
10
214.450045
20
497.137061
11
214.588047
21
497.087060
0
LINE
8
0
10
214.588047
20
497.087060
11
214.718044
21
497.025061
0
LINE
8
0
10
214.718044
20
497.025061
11
214.842046
21
496.950062
0
LINE
8
0
10
214.842046
20
496.950062
11
214.958045
21
496.862062
0
LINE
8
0
10
214.958045
20
496.862062
11
215.064045
21
496.766060
0
LINE
8
0
10
215.064045
20
496.766060
11
215.161046
21
496.660060
0
LINE
8
0
10
215.161046
20
496.660060
11
215.247043
21
496.544062
0
LINE
8
0
10
215.247043
20
496.544062
11
215.322045
21
496.421063
0
LINE
8
0
10
215.322045
20
496.421063
11
215.386045
21
496.289062
0
LINE
8
0
10
215.386045
20
496.289062
11
215.436043
21
496.151064
0
LINE
8
0
10
215.436043
20
496.151064
11
215.474045
21
496.008062
0
LINE
8
0
10
215.474045
20
496.008062
11
215.496032
21
495.858062
0
LINE
8
0
10
215.496032
20
495.858062
11
215.504022
21
495.744063
0
LINE
8
0
10
215.504022
20
495.744063
11
215.504022
21
495.705064
0
LINE
8
0
10
213.382027
20
480.148084
11
213.382027
21
480.111082
0
LINE
8
0
10
213.382027
20
480.111082
11
213.375015
21
479.996083
0
LINE
8
0
10
213.375015
20
479.996083
11
213.351018
21
479.847083
0
LINE
8
0
10
213.351018
20
479.847083
11
213.315019
21
479.703084
0
LINE
8
0
10
213.315019
20
479.703084
11
213.264018
21
479.565083
0
LINE
8
0
10
213.264018
20
479.565083
11
213.201018
21
479.435083
0
LINE
8
0
10
213.201018
20
479.435083
11
213.126019
21
479.311083
0
LINE
8
0
10
213.126019
20
479.311083
11
213.040019
21
479.196085
0
LINE
8
0
10
213.040019
20
479.196085
11
212.943018
21
479.089085
0
LINE
8
0
10
212.943018
20
479.089085
11
212.836018
21
478.992083
0
LINE
8
0
10
212.836018
20
478.992083
11
212.721019
21
478.905083
0
LINE
8
0
10
212.721019
20
478.905083
11
212.597020
21
478.830085
0
LINE
8
0
10
212.597020
20
478.830085
11
212.467020
21
478.766085
0
LINE
8
0
10
212.467020
20
478.766085
11
212.328018
21
478.716084
0
LINE
8
0
10
212.328018
20
478.716084
11
212.185019
21
478.679084
0
LINE
8
0
10
212.185019
20
478.679084
11
212.036019
21
478.657098
0
LINE
8
0
10
212.036019
20
478.657098
11
211.921021
21
478.648102
0
LINE
8
0
10
211.921021
20
478.648102
11
211.882019
21
478.648102
0
LINE
8
0
10
211.882019
20
478.648102
11
211.844019
21
478.648102
0
LINE
8
0
10
211.844019
20
478.648102
11
211.729021
21
478.657098
0
LINE
8
0
10
211.729021
20
478.657098
11
211.581021
21
478.679084
0
LINE
8
0
10
211.581021
20
478.679084
11
211.436019
21
478.716084
0
LINE
8
0
10
211.436019
20
478.716084
11
211.299021
21
478.766085
0
LINE
8
0
10
211.299021
20
478.766085
11
211.168020
21
478.830085
0
LINE
8
0
10
211.168020
20
478.830085
11
211.043021
21
478.905083
0
LINE
8
0
10
211.043021
20
478.905083
11
210.928022
21
478.992083
0
LINE
8
0
10
210.928022
20
478.992083
11
210.822022
21
479.089085
0
LINE
8
0
10
210.822022
20
479.089085
11
210.725021
21
479.196085
0
LINE
8
0
10
210.725021
20
479.196085
11
210.639021
21
479.311083
0
LINE
8
0
10
210.639021
20
479.311083
11
210.564022
21
479.435083
0
LINE
8
0
10
210.564022
20
479.435083
11
210.500022
21
479.565083
0
LINE
8
0
10
210.500022
20
479.565083
11
210.450021
21
479.703084
0
LINE
8
0
10
210.450021
20
479.703084
11
210.413022
21
479.847083
0
LINE
8
0
10
210.413022
20
479.847083
11
210.390030
21
479.996083
0
LINE
8
0
10
210.390030
20
479.996083
11
210.382039
21
480.111082
0
LINE
8
0
10
210.382039
20
480.111082
11
210.382039
21
480.148084
0
LINE
8
0
10
210.382039
20
480.148084
11
210.382039
21
480.187083
0
LINE
8
0
10
210.382039
20
480.187083
11
210.390030
21
480.303082
0
LINE
8
0
10
210.390030
20
480.303082
11
210.413022
21
480.451081
0
LINE
8
0
10
210.413022
20
480.451081
11
210.450021
21
480.596081
0
LINE
8
0
10
210.450021
20
480.596081
11
210.500022
21
480.733082
0
LINE
8
0
10
210.500022
20
480.733082
11
210.564022
21
480.864082
0
LINE
8
0
10
210.564022
20
480.864082
11
210.639021
21
480.987082
0
LINE
8
0
10
210.639021
20
480.987082
11
210.725021
21
481.103080
0
LINE
8
0
10
210.725021
20
481.103080
11
210.822022
21
481.210080
0
LINE
8
0
10
210.822022
20
481.210080
11
210.928022
21
481.307082
0
LINE
8
0
10
210.928022
20
481.307082
11
211.043021
21
481.393082
0
LINE
8
0
10
211.043021
20
481.393082
11
211.168020
21
481.468080
0
LINE
8
0
10
211.168020
20
481.468080
11
211.299021
21
481.532080
0
LINE
8
0
10
211.299021
20
481.532080
11
211.436019
21
481.582081
0
LINE
8
0
10
211.436019
20
481.582081
11
211.581021
21
481.619080
0
LINE
8
0
10
211.581021
20
481.619080
11
211.729021
21
481.641067
0
LINE
8
0
10
211.729021
20
481.641067
11
211.844019
21
481.648079
0
LINE
8
0
10
211.844019
20
481.648079
11
211.882019
21
481.648079
0
LINE
8
0
10
211.882019
20
481.648079
11
211.921021
21
481.648079
0
LINE
8
0
10
211.921021
20
481.648079
11
212.036019
21
481.641067
0
LINE
8
0
10
212.036019
20
481.641067
11
212.185019
21
481.619080
0
LINE
8
0
10
212.185019
20
481.619080
11
212.328018
21
481.582081
0
LINE
8
0
10
212.328018
20
481.582081
11
212.467020
21
481.532080
0
LINE
8
0
10
212.467020
20
481.532080
11
212.597020
21
481.468080
0
LINE
8
0
10
212.597020
20
481.468080
11
212.721019
21
481.393082
0
LINE
8
0
10
212.721019
20
481.393082
11
212.836018
21
481.307082
0
LINE
8
0
10
212.836018
20
481.307082
11
212.943018
21
481.210080
0
LINE
8
0
10
212.943018
20
481.210080
11
213.040019
21
481.103080
0
LINE
8
0
10
213.040019
20
481.103080
11
213.126019
21
480.987082
0
LINE
8
0
10
213.126019
20
480.987082
11
213.201018
21
480.864082
0
LINE
8
0
10
213.201018
20
480.864082
11
213.264018
21
480.733082
0
LINE
8
0
10
213.264018
20
480.733082
11
213.315019
21
480.596081
0
LINE
8
0
10
213.315019
20
480.596081
11
213.351018
21
480.451081
0
LINE
8
0
10
213.351018
20
480.451081
11
213.375015
21
480.303082
0
LINE
8
0
10
213.375015
20
480.303082
11
213.382027
21
480.187083
0
LINE
8
0
10
213.382027
20
480.187083
11
213.382027
21
480.148084
0
LINE
8
0
10
224.721012
20
488.987071
11
224.721012
21
488.886072
0
LINE
8
0
10
224.721012
20
488.886072
11
224.700004
21
488.579071
0
LINE
8
0
10
224.700004
20
488.579071
11
224.640004
21
488.182072
0
LINE
8
0
10
224.640004
20
488.182072
11
224.542003
21
487.798072
0
LINE
8
0
10
224.542003
20
487.798072
11
224.407005
21
487.430075
0
LINE
8
0
10
224.407005
20
487.430075
11
224.239005
21
487.082074
0
LINE
8
0
10
224.239005
20
487.082074
11
224.038004
21
486.751075
0
LINE
8
0
10
224.038004
20
486.751075
11
223.808005
21
486.443074
0
LINE
8
0
10
223.808005
20
486.443074
11
223.550005
21
486.160073
0
LINE
8
0
10
223.550005
20
486.160073
11
223.265006
21
485.901076
0
LINE
8
0
10
223.265006
20
485.901076
11
222.957005
21
485.671076
0
LINE
8
0
10
222.957005
20
485.671076
11
222.628007
21
485.471076
0
LINE
8
0
10
222.628007
20
485.471076
11
222.278006
21
485.303076
0
LINE
8
0
10
222.278006
20
485.303076
11
221.911008
21
485.168075
0
LINE
8
0
10
221.911008
20
485.168075
11
221.528008
21
485.069076
0
LINE
8
0
10
221.528008
20
485.069076
11
221.131007
21
485.008076
0
LINE
8
0
10
221.131007
20
485.008076
11
220.824009
21
484.987069
0
LINE
8
0
10
220.824009
20
484.987069
11
220.721009
21
484.987069
0
LINE
8
0
10
220.721009
20
484.987069
11
220.619010
21
484.987069
0
LINE
8
0
10
220.619010
20
484.987069
11
220.313009
21
485.008076
0
LINE
8
0
10
220.313009
20
485.008076
11
219.915010
21
485.069076
0
LINE
8
0
10
219.915010
20
485.069076
11
219.532010
21
485.168075
0
LINE
8
0
10
219.532010
20
485.168075
11
219.164010
21
485.303076
0
LINE
8
0
10
219.164010
20
485.303076
11
218.814011
21
485.471076
0
LINE
8
0
10
218.814011
20
485.471076
11
218.485010
21
485.671076
0
LINE
8
0
10
218.485010
20
485.671076
11
218.176012
21
485.901076
0
LINE
8
0
10
218.176012
20
485.901076
11
217.893011
21
486.160073
0
LINE
8
0
10
217.893011
20
486.160073
11
217.635013
21
486.443074
0
LINE
8
0
10
217.635013
20
486.443074
11
217.404014
21
486.751075
0
LINE
8
0
10
217.404014
20
486.751075
11
217.204013
21
487.082074
0
LINE
8
0
10
217.204013
20
487.082074
11
217.036013
21
487.430075
0
LINE
8
0
10
217.036013
20
487.430075
11
216.901013
21
487.798072
0
LINE
8
0
10
216.901013
20
487.798072
11
216.803014
21
488.182072
0
LINE
8
0
10
216.803014
20
488.182072
11
216.742014
21
488.579071
0
LINE
8
0
10
216.742014
20
488.579071
11
216.721006
21
488.886072
0
LINE
8
0
10
216.721006
20
488.886072
11
216.721006
21
488.987071
0
LINE
8
0
10
216.721006
20
488.987071
11
216.721006
21
489.090071
0
LINE
8
0
10
216.721006
20
489.090071
11
216.742014
21
489.397069
0
LINE
8
0
10
216.742014
20
489.397069
11
216.803014
21
489.794071
0
LINE
8
0
10
216.803014
20
489.794071
11
216.901013
21
490.178071
0
LINE
8
0
10
216.901013
20
490.178071
11
217.036013
21
490.544068
0
LINE
8
0
10
217.036013
20
490.544068
11
217.204013
21
490.894069
0
LINE
8
0
10
217.204013
20
490.894069
11
217.404014
21
491.225068
0
LINE
8
0
10
217.404014
20
491.225068
11
217.635013
21
491.532069
0
LINE
8
0
10
217.635013
20
491.532069
11
217.893011
21
491.817067
0
LINE
8
0
10
217.893011
20
491.817067
11
218.176012
21
492.075067
0
LINE
8
0
10
218.176012
20
492.075067
11
218.485010
21
492.305067
0
LINE
8
0
10
218.485010
20
492.305067
11
218.814011
21
492.505068
0
LINE
8
0
10
218.814011
20
492.505068
11
219.164010
21
492.673067
0
LINE
8
0
10
219.164010
20
492.673067
11
219.532010
21
492.808065
0
LINE
8
0
10
219.532010
20
492.808065
11
219.915010
21
492.907067
0
LINE
8
0
10
219.915010
20
492.907067
11
220.313009
21
492.968067
0
LINE
8
0
10
220.313009
20
492.968067
11
220.619010
21
492.987064
0
LINE
8
0
10
220.619010
20
492.987064
11
220.721009
21
492.987064
0
LINE
8
0
10
220.721009
20
492.987064
11
220.824009
21
492.987064
0
LINE
8
0
10
220.824009
20
492.987064
11
221.131007
21
492.968067
0
LINE
8
0
10
221.131007
20
492.968067
11
221.528008
21
492.907067
0
LINE
8
0
10
221.528008
20
492.907067
11
221.911008
21
492.808065
0
LINE
8
0
10
221.911008
20
492.808065
11
222.278006
21
492.673067
0
LINE
8
0
10
222.278006
20
492.673067
11
222.628007
21
492.505068
0
LINE
8
0
10
222.628007
20
492.505068
11
222.957005
21
492.305067
0
LINE
8
0
10
222.957005
20
492.305067
11
223.265006
21
492.075067
0
LINE
8
0
10
223.265006
20
492.075067
11
223.550005
21
491.817067
0
LINE
8
0
10
223.550005
20
491.817067
11
223.808005
21
491.532069
0
LINE
8
0
10
223.808005
20
491.532069
11
224.038004
21
491.225068
0
LINE
8
0
10
224.038004
20
491.225068
11
224.239005
21
490.894069
0
LINE
8
0
10
224.239005
20
490.894069
11
224.407005
21
490.544068
0
LINE
8
0
10
224.407005
20
490.544068
11
224.542003
21
490.178071
0
LINE
8
0
10
224.542003
20
490.178071
11
224.640004
21
489.794071
0
LINE
8
0
10
224.640004
20
489.794071
11
224.700004
21
489.397069
0
LINE
8
0
10
224.700004
20
489.397069
11
224.721012
21
489.090071
0
LINE
8
0
10
224.721012
20
489.090071
11
224.721012
21
488.987071
0
LINE
8
0
10
48.684634
20
492.762068
11
48.684634
21
492.718067
0
LINE
8
0
10
48.684634
20
492.718067
11
48.675426
21
492.585067
0
LINE
8
0
10
48.675426
20
492.585067
11
48.648926
21
492.411066
0
LINE
8
0
10
48.648926
20
492.411066
11
48.605825
21
492.243067
0
LINE
8
0
10
48.605825
20
492.243067
11
48.546926
21
492.082068
0
LINE
8
0
10
48.546926
20
492.082068
11
48.473224
21
491.929068
0
LINE
8
0
10
48.473224
20
491.929068
11
48.385727
21
491.785068
0
LINE
8
0
10
48.385727
20
491.785068
11
48.284825
21
491.650068
0
LINE
8
0
10
48.284825
20
491.650068
11
48.171925
21
491.525068
0
LINE
8
0
10
48.171925
20
491.525068
11
48.047627
21
491.412067
0
LINE
8
0
10
48.047627
20
491.412067
11
47.912927
21
491.312068
0
LINE
8
0
10
47.912927
20
491.312068
11
47.768626
21
491.225068
0
LINE
8
0
10
47.768626
20
491.225068
11
47.615727
21
491.150069
0
LINE
8
0
10
47.615727
20
491.150069
11
47.454826
21
491.091070
0
LINE
8
0
10
47.454826
20
491.091070
11
47.287228
21
491.048070
0
LINE
8
0
10
47.287228
20
491.048070
11
47.113426
21
491.022061
0
LINE
8
0
10
47.113426
20
491.022061
11
46.979127
21
491.012060
0
LINE
8
0
10
46.979127
20
491.012060
11
46.934626
21
491.012060
0
LINE
8
0
10
46.934626
20
491.012060
11
46.889727
21
491.012060
0
LINE
8
0
10
46.889727
20
491.012060
11
46.755528
21
491.022061
0
LINE
8
0
10
46.755528
20
491.022061
11
46.581829
21
491.048070
0
LINE
8
0
10
46.581829
20
491.048070
11
46.414128
21
491.091070
0
LINE
8
0
10
46.414128
20
491.091070
11
46.253328
21
491.150069
0
LINE
8
0
10
46.253328
20
491.150069
11
46.100428
21
491.225068
0
LINE
8
0
10
46.100428
20
491.225068
11
45.956130
21
491.312068
0
LINE
8
0
10
45.956130
20
491.312068
11
45.821428
21
491.412067
0
LINE
8
0
10
45.821428
20
491.412067
11
45.697129
21
491.525068
0
LINE
8
0
10
45.697129
20
491.525068
11
45.584129
21
491.650068
0
LINE
8
0
10
45.584129
20
491.650068
11
45.483330
21
491.785068
0
LINE
8
0
10
45.483330
20
491.785068
11
45.395730
21
491.929068
0
LINE
8
0
10
45.395730
20
491.929068
11
45.321930
21
492.082068
0
LINE
8
0
10
45.321930
20
492.082068
11
45.263229
21
492.243067
0
LINE
8
0
10
45.263229
20
492.243067
11
45.220031
21
492.411066
0
LINE
8
0
10
45.220031
20
492.411066
11
45.193429
21
492.585067
0
LINE
8
0
10
45.193429
20
492.585067
11
45.184619
21
492.718067
0
LINE
8
0
10
45.184619
20
492.718067
11
45.184619
21
492.762068
0
LINE
8
0
10
45.184619
20
492.762068
11
45.184619
21
492.808065
0
LINE
8
0
10
45.184619
20
492.808065
11
45.193429
21
492.942066
0
LINE
8
0
10
45.193429
20
492.942066
11
45.220031
21
493.115066
0
LINE
8
0
10
45.220031
20
493.115066
11
45.263229
21
493.283066
0
LINE
8
0
10
45.263229
20
493.283066
11
45.321930
21
493.444065
0
LINE
8
0
10
45.321930
20
493.444065
11
45.395730
21
493.597065
0
LINE
8
0
10
45.395730
20
493.597065
11
45.483330
21
493.742064
0
LINE
8
0
10
45.483330
20
493.742064
11
45.584129
21
493.876065
0
LINE
8
0
10
45.584129
20
493.876065
11
45.697129
21
494.000065
0
LINE
8
0
10
45.697129
20
494.000065
11
45.821428
21
494.114066
0
LINE
8
0
10
45.821428
20
494.114066
11
45.956130
21
494.214065
0
LINE
8
0
10
45.956130
20
494.214065
11
46.100428
21
494.301065
0
LINE
8
0
10
46.100428
20
494.301065
11
46.253328
21
494.375063
0
LINE
8
0
10
46.253328
20
494.375063
11
46.414128
21
494.435066
0
LINE
8
0
10
46.414128
20
494.435066
11
46.581829
21
494.478066
0
LINE
8
0
10
46.581829
20
494.478066
11
46.755528
21
494.504074
0
LINE
8
0
10
46.755528
20
494.504074
11
46.889727
21
494.512065
0
LINE
8
0
10
46.889727
20
494.512065
11
46.934626
21
494.512065
0
LINE
8
0
10
46.934626
20
494.512065
11
46.979127
21
494.512065
0
LINE
8
0
10
46.979127
20
494.512065
11
47.113426
21
494.504074
0
LINE
8
0
10
47.113426
20
494.504074
11
47.287228
21
494.478066
0
LINE
8
0
10
47.287228
20
494.478066
11
47.454826
21
494.435066
0
LINE
8
0
10
47.454826
20
494.435066
11
47.615727
21
494.375063
0
LINE
8
0
10
47.615727
20
494.375063
11
47.768626
21
494.301065
0
LINE
8
0
10
47.768626
20
494.301065
11
47.912927
21
494.214065
0
LINE
8
0
10
47.912927
20
494.214065
11
48.047627
21
494.114066
0
LINE
8
0
10
48.047627
20
494.114066
11
48.171925
21
494.000065
0
LINE
8
0
10
48.171925
20
494.000065
11
48.284825
21
493.876065
0
LINE
8
0
10
48.284825
20
493.876065
11
48.385727
21
493.742064
0
LINE
8
0
10
48.385727
20
493.742064
11
48.473224
21
493.597065
0
LINE
8
0
10
48.473224
20
493.597065
11
48.546926
21
493.444065
0
LINE
8
0
10
48.546926
20
493.444065
11
48.605825
21
493.283066
0
LINE
8
0
10
48.605825
20
493.283066
11
48.648926
21
493.115066
0
LINE
8
0
10
48.648926
20
493.115066
11
48.675426
21
492.942066
0
LINE
8
0
10
48.675426
20
492.942066
11
48.684634
21
492.808065
0
LINE
8
0
10
48.684634
20
492.808065
11
48.684634
21
492.762068
0
LINE
8
0
10
48.684634
20
466.762099
11
48.684634
21
466.718099
0
LINE
8
0
10
48.684634
20
466.718099
11
48.675426
21
466.585099
0
LINE
8
0
10
48.675426
20
466.585099
11
48.648926
21
466.411101
0
LINE
8
0
10
48.648926
20
466.411101
11
48.605825
21
466.243099
0
LINE
8
0
10
48.605825
20
466.243099
11
48.546926
21
466.082100
0
LINE
8
0
10
48.546926
20
466.082100
11
48.473224
21
465.929100
0
LINE
8
0
10
48.473224
20
465.929100
11
48.385727
21
465.785100
0
LINE
8
0
10
48.385727
20
465.785100
11
48.284825
21
465.650099
0
LINE
8
0
10
48.284825
20
465.650099
11
48.171925
21
465.525100
0
LINE
8
0
10
48.171925
20
465.525100
11
48.047627
21
465.412102
0
LINE
8
0
10
48.047627
20
465.412102
11
47.912927
21
465.312100
0
LINE
8
0
10
47.912927
20
465.312100
11
47.768626
21
465.225102
0
LINE
8
0
10
47.768626
20
465.225102
11
47.615727
21
465.150101
0
LINE
8
0
10
47.615727
20
465.150101
11
47.454826
21
465.091102
0
LINE
8
0
10
47.454826
20
465.091102
11
47.287228
21
465.048102
0
LINE
8
0
10
47.287228
20
465.048102
11
47.113426
21
465.022093
0
LINE
8
0
10
47.113426
20
465.022093
11
46.979127
21
465.012092
0
LINE
8
0
10
46.979127
20
465.012092
11
46.934626
21
465.012092
0
LINE
8
0
10
46.934626
20
465.012092
11
46.889727
21
465.012092
0
LINE
8
0
10
46.889727
20
465.012092
11
46.755528
21
465.022093
0
LINE
8
0
10
46.755528
20
465.022093
11
46.581829
21
465.048102
0
LINE
8
0
10
46.581829
20
465.048102
11
46.414128
21
465.091102
0
LINE
8
0
10
46.414128
20
465.091102
11
46.253328
21
465.150101
0
LINE
8
0
10
46.253328
20
465.150101
11
46.100428
21
465.225102
0
LINE
8
0
10
46.100428
20
465.225102
11
45.956130
21
465.312100
0
LINE
8
0
10
45.956130
20
465.312100
11
45.821428
21
465.412102
0
LINE
8
0
10
45.821428
20
465.412102
11
45.697129
21
465.525100
0
LINE
8
0
10
45.697129
20
465.525100
11
45.584129
21
465.650099
0
LINE
8
0
10
45.584129
20
465.650099
11
45.483330
21
465.785100
0
LINE
8
0
10
45.483330
20
465.785100
11
45.395730
21
465.929100
0
LINE
8
0
10
45.395730
20
465.929100
11
45.321930
21
466.082100
0
LINE
8
0
10
45.321930
20
466.082100
11
45.263229
21
466.243099
0
LINE
8
0
10
45.263229
20
466.243099
11
45.220031
21
466.411101
0
LINE
8
0
10
45.220031
20
466.411101
11
45.193429
21
466.585099
0
LINE
8
0
10
45.193429
20
466.585099
11
45.184619
21
466.718099
0
LINE
8
0
10
45.184619
20
466.718099
11
45.184619
21
466.762099
0
LINE
8
0
10
45.184619
20
466.762099
11
45.184619
21
466.808100
0
LINE
8
0
10
45.184619
20
466.808100
11
45.193429
21
466.941098
0
LINE
8
0
10
45.193429
20
466.941098
11
45.220031
21
467.115098
0
LINE
8
0
10
45.220031
20
467.115098
11
45.263229
21
467.283098
0
LINE
8
0
10
45.263229
20
467.283098
11
45.321930
21
467.444099
0
LINE
8
0
10
45.321930
20
467.444099
11
45.395730
21
467.597100
0
LINE
8
0
10
45.395730
20
467.597100
11
45.483330
21
467.742099
0
LINE
8
0
10
45.483330
20
467.742099
11
45.584129
21
467.876097
0
LINE
8
0
10
45.584129
20
467.876097
11
45.697129
21
468.000096
0
LINE
8
0
10
45.697129
20
468.000096
11
45.821428
21
468.114097
0
LINE
8
0
10
45.821428
20
468.114097
11
45.956130
21
468.214097
0
LINE
8
0
10
45.956130
20
468.214097
11
46.100428
21
468.301097
0
LINE
8
0
10
46.100428
20
468.301097
11
46.253328
21
468.375098
0
LINE
8
0
10
46.253328
20
468.375098
11
46.414128
21
468.435097
0
LINE
8
0
10
46.414128
20
468.435097
11
46.581829
21
468.478097
0
LINE
8
0
10
46.581829
20
468.478097
11
46.755528
21
468.504106
0
LINE
8
0
10
46.755528
20
468.504106
11
46.889727
21
468.512096
0
LINE
8
0
10
46.889727
20
468.512096
11
46.934626
21
468.512096
0
LINE
8
0
10
46.934626
20
468.512096
11
46.979127
21
468.512096
0
LINE
8
0
10
46.979127
20
468.512096
11
47.113426
21
468.504106
0
LINE
8
0
10
47.113426
20
468.504106
11
47.287228
21
468.478097
0
LINE
8
0
10
47.287228
20
468.478097
11
47.454826
21
468.435097
0
LINE
8
0
10
47.454826
20
468.435097
11
47.615727
21
468.375098
0
LINE
8
0
10
47.615727
20
468.375098
11
47.768626
21
468.301097
0
LINE
8
0
10
47.768626
20
468.301097
11
47.912927
21
468.214097
0
LINE
8
0
10
47.912927
20
468.214097
11
48.047627
21
468.114097
0
LINE
8
0
10
48.047627
20
468.114097
11
48.171925
21
468.000096
0
LINE
8
0
10
48.171925
20
468.000096
11
48.284825
21
467.876097
0
LINE
8
0
10
48.284825
20
467.876097
11
48.385727
21
467.742099
0
LINE
8
0
10
48.385727
20
467.742099
11
48.473224
21
467.597100
0
LINE
8
0
10
48.473224
20
467.597100
11
48.546926
21
467.444099
0
LINE
8
0
10
48.546926
20
467.444099
11
48.605825
21
467.283098
0
LINE
8
0
10
48.605825
20
467.283098
11
48.648926
21
467.115098
0
LINE
8
0
10
48.648926
20
467.115098
11
48.675426
21
466.941098
0
LINE
8
0
10
48.675426
20
466.941098
11
48.684634
21
466.808100
0
LINE
8
0
10
48.684634
20
466.808100
11
48.684634
21
466.762099
0
LINE
8
0
10
48.197134
20
573.753964
11
48.197134
21
573.709964
0
LINE
8
0
10
48.197134
20
573.709964
11
48.188033
21
573.574966
0
LINE
8
0
10
48.188033
20
573.574966
11
48.161535
21
573.400965
0
LINE
8
0
10
48.161535
20
573.400965
11
48.118334
21
573.232966
0
LINE
8
0
10
48.118334
20
573.232966
11
48.059633
21
573.071964
0
LINE
8
0
10
48.059633
20
573.071964
11
47.985833
21
572.918966
0
LINE
8
0
10
47.985833
20
572.918966
11
47.898235
21
572.774964
0
LINE
8
0
10
47.898235
20
572.774964
11
47.797334
21
572.639966
0
LINE
8
0
10
47.797334
20
572.639966
11
47.684433
21
572.515967
0
LINE
8
0
10
47.684433
20
572.515967
11
47.560135
21
572.403966
0
LINE
8
0
10
47.560135
20
572.403966
11
47.425436
21
572.302967
0
LINE
8
0
10
47.425436
20
572.302967
11
47.281135
21
572.214967
0
LINE
8
0
10
47.281135
20
572.214967
11
47.128235
21
572.140965
0
LINE
8
0
10
47.128235
20
572.140965
11
46.967334
21
572.081966
0
LINE
8
0
10
46.967334
20
572.081966
11
46.799737
21
572.038966
0
LINE
8
0
10
46.799737
20
572.038966
11
46.626035
21
572.011968
0
LINE
8
0
10
46.626035
20
572.011968
11
46.491836
21
572.003978
0
LINE
8
0
10
46.491836
20
572.003978
11
46.447135
21
572.003978
0
LINE
8
0
10
46.447135
20
572.003978
11
46.402336
21
572.003978
0
LINE
8
0
10
46.402336
20
572.003978
11
46.268036
21
572.011968
0
LINE
8
0
10
46.268036
20
572.011968
11
46.094337
21
572.038966
0
LINE
8
0
10
46.094337
20
572.038966
11
45.926637
21
572.081966
0
LINE
8
0
10
45.926637
20
572.081966
11
45.765836
21
572.140965
0
LINE
8
0
10
45.765836
20
572.140965
11
45.612936
21
572.214967
0
LINE
8
0
10
45.612936
20
572.214967
11
45.468638
21
572.302967
0
LINE
8
0
10
45.468638
20
572.302967
11
45.333936
21
572.403966
0
LINE
8
0
10
45.333936
20
572.403966
11
45.209638
21
572.515967
0
LINE
8
0
10
45.209638
20
572.515967
11
45.096637
21
572.639966
0
LINE
8
0
10
45.096637
20
572.639966
11
44.995839
21
572.774964
0
LINE
8
0
10
44.995839
20
572.774964
11
44.908339
21
572.918966
0
LINE
8
0
10
44.908339
20
572.918966
11
44.834639
21
573.071964
0
LINE
8
0
10
44.834639
20
573.071964
11
44.775738
21
573.232966
0
LINE
8
0
10
44.775738
20
573.232966
11
44.732637
21
573.400965
0
LINE
8
0
10
44.732637
20
573.400965
11
44.706139
21
573.574966
0
LINE
8
0
10
44.706139
20
573.574966
11
44.697143
21
573.709964
0
LINE
8
0
10
44.697143
20
573.709964
11
44.697143
21
573.753964
0
LINE
8
0
10
44.697143
20
573.753964
11
44.697143
21
573.797964
0
LINE
8
0
10
44.697143
20
573.797964
11
44.706139
21
573.932965
0
LINE
8
0
10
44.706139
20
573.932965
11
44.732637
21
574.106965
0
LINE
8
0
10
44.732637
20
574.106965
11
44.775738
21
574.274965
0
LINE
8
0
10
44.775738
20
574.274965
11
44.834639
21
574.434964
0
LINE
8
0
10
44.834639
20
574.434964
11
44.908339
21
574.586964
0
LINE
8
0
10
44.908339
20
574.586964
11
44.995839
21
574.731963
0
LINE
8
0
10
44.995839
20
574.731963
11
45.096637
21
574.866964
0
LINE
8
0
10
45.096637
20
574.866964
11
45.209638
21
574.991964
0
LINE
8
0
10
45.209638
20
574.991964
11
45.333936
21
575.103962
0
LINE
8
0
10
45.333936
20
575.103962
11
45.468638
21
575.204964
0
LINE
8
0
10
45.468638
20
575.204964
11
45.612936
21
575.292961
0
LINE
8
0
10
45.612936
20
575.292961
11
45.765836
21
575.366962
0
LINE
8
0
10
45.765836
20
575.366962
11
45.926637
21
575.424962
0
LINE
8
0
10
45.926637
20
575.424962
11
46.094337
21
575.467962
0
LINE
8
0
10
46.094337
20
575.467962
11
46.268036
21
575.493970
0
LINE
8
0
10
46.268036
20
575.493970
11
46.402336
21
575.503971
0
LINE
8
0
10
46.402336
20
575.503971
11
46.447135
21
575.503971
0
LINE
8
0
10
46.447135
20
575.503971
11
46.491836
21
575.503971
0
LINE
8
0
10
46.491836
20
575.503971
11
46.626035
21
575.493970
0
LINE
8
0
10
46.626035
20
575.493970
11
46.799737
21
575.467962
0
LINE
8
0
10
46.799737
20
575.467962
11
46.967334
21
575.424962
0
LINE
8
0
10
46.967334
20
575.424962
11
47.128235
21
575.366962
0
LINE
8
0
10
47.128235
20
575.366962
11
47.281135
21
575.292961
0
LINE
8
0
10
47.281135
20
575.292961
11
47.425436
21
575.204964
0
LINE
8
0
10
47.425436
20
575.204964
11
47.560135
21
575.103962
0
LINE
8
0
10
47.560135
20
575.103962
11
47.684433
21
574.991964
0
LINE
8
0
10
47.684433
20
574.991964
11
47.797334
21
574.866964
0
LINE
8
0
10
47.797334
20
574.866964
11
47.898235
21
574.731963
0
LINE
8
0
10
47.898235
20
574.731963
11
47.985833
21
574.586964
0
LINE
8
0
10
47.985833
20
574.586964
11
48.059633
21
574.434964
0
LINE
8
0
10
48.059633
20
574.434964
11
48.118334
21
574.274965
0
LINE
8
0
10
48.118334
20
574.274965
11
48.161535
21
574.106965
0
LINE
8
0
10
48.161535
20
574.106965
11
48.188033
21
573.932965
0
LINE
8
0
10
48.188033
20
573.932965
11
48.197134
21
573.797964
0
LINE
8
0
10
48.197134
20
573.797964
11
48.197134
21
573.753964
0
LINE
8
0
10
48.197134
20
547.753997
11
48.197134
21
547.709997
0
LINE
8
0
10
48.197134
20
547.709997
11
48.188033
21
547.574997
0
LINE
8
0
10
48.188033
20
547.574997
11
48.161535
21
547.400998
0
LINE
8
0
10
48.161535
20
547.400998
11
48.118334
21
547.232998
0
LINE
8
0
10
48.118334
20
547.232998
11
48.059633
21
547.071998
0
LINE
8
0
10
48.059633
20
547.071998
11
47.985833
21
546.918998
0
LINE
8
0
10
47.985833
20
546.918998
11
47.898235
21
546.774998
0
LINE
8
0
10
47.898235
20
546.774998
11
47.797334
21
546.639998
0
LINE
8
0
10
47.797334
20
546.639998
11
47.684433
21
546.515999
0
LINE
8
0
10
47.684433
20
546.515999
11
47.560135
21
546.403999
0
LINE
8
0
10
47.560135
20
546.403999
11
47.425436
21
546.302999
0
LINE
8
0
10
47.425436
20
546.302999
11
47.281135
21
546.214999
0
LINE
8
0
10
47.281135
20
546.214999
11
47.128235
21
546.140999
0
LINE
8
0
10
47.128235
20
546.140999
11
46.967334
21
546.081999
0
LINE
8
0
10
46.967334
20
546.081999
11
46.799737
21
546.038999
0
LINE
8
0
10
46.799737
20
546.038999
11
46.626035
21
546.011999
0
LINE
8
0
10
46.626035
20
546.011999
11
46.491836
21
546.003999
0
LINE
8
0
10
46.491836
20
546.003999
11
46.447135
21
546.003999
0
LINE
8
0
10
46.447135
20
546.003999
11
46.402336
21
546.003999
0
LINE
8
0
10
46.402336
20
546.003999
11
46.268036
21
546.011999
0
LINE
8
0
10
46.268036
20
546.011999
11
46.094337
21
546.038999
0
LINE
8
0
10
46.094337
20
546.038999
11
45.926637
21
546.081999
0
LINE
8
0
10
45.926637
20
546.081999
11
45.765836
21
546.140999
0
LINE
8
0
10
45.765836
20
546.140999
11
45.612936
21
546.214999
0
LINE
8
0
10
45.612936
20
546.214999
11
45.468638
21
546.302999
0
LINE
8
0
10
45.468638
20
546.302999
11
45.333936
21
546.403999
0
LINE
8
0
10
45.333936
20
546.403999
11
45.209638
21
546.515999
0
LINE
8
0
10
45.209638
20
546.515999
11
45.096637
21
546.639998
0
LINE
8
0
10
45.096637
20
546.639998
11
44.995839
21
546.774998
0
LINE
8
0
10
44.995839
20
546.774998
11
44.908339
21
546.918998
0
LINE
8
0
10
44.908339
20
546.918998
11
44.834639
21
547.071998
0
LINE
8
0
10
44.834639
20
547.071998
11
44.775738
21
547.232998
0
LINE
8
0
10
44.775738
20
547.232998
11
44.732637
21
547.400998
0
LINE
8
0
10
44.732637
20
547.400998
11
44.706139
21
547.574997
0
LINE
8
0
10
44.706139
20
547.574997
11
44.697143
21
547.709997
0
LINE
8
0
10
44.697143
20
547.709997
11
44.697143
21
547.753997
0
LINE
8
0
10
44.697143
20
547.753997
11
44.697143
21
547.797997
0
LINE
8
0
10
44.697143
20
547.797997
11
44.706139
21
547.932997
0
LINE
8
0
10
44.706139
20
547.932997
11
44.732637
21
548.106997
0
LINE
8
0
10
44.732637
20
548.106997
11
44.775738
21
548.274996
0
LINE
8
0
10
44.775738
20
548.274996
11
44.834639
21
548.434996
0
LINE
8
0
10
44.834639
20
548.434996
11
44.908339
21
548.586996
0
LINE
8
0
10
44.908339
20
548.586996
11
44.995839
21
548.731996
0
LINE
8
0
10
44.995839
20
548.731996
11
45.096637
21
548.866996
0
LINE
8
0
10
45.096637
20
548.866996
11
45.209638
21
548.991995
0
LINE
8
0
10
45.209638
20
548.991995
11
45.333936
21
549.103995
0
LINE
8
0
10
45.333936
20
549.103995
11
45.468638
21
549.204995
0
LINE
8
0
10
45.468638
20
549.204995
11
45.612936
21
549.292995
0
LINE
8
0
10
45.612936
20
549.292995
11
45.765836
21
549.366995
0
LINE
8
0
10
45.765836
20
549.366995
11
45.926637
21
549.424995
0
LINE
8
0
10
45.926637
20
549.424995
11
46.094337
21
549.467995
0
LINE
8
0
10
46.094337
20
549.467995
11
46.268036
21
549.493995
0
LINE
8
0
10
46.268036
20
549.493995
11
46.402336
21
549.503994
0
LINE
8
0
10
46.402336
20
549.503994
11
46.447135
21
549.503994
0
LINE
8
0
10
46.447135
20
549.503994
11
46.491836
21
549.503994
0
LINE
8
0
10
46.491836
20
549.503994
11
46.626035
21
549.493995
0
LINE
8
0
10
46.626035
20
549.493995
11
46.799737
21
549.467995
0
LINE
8
0
10
46.799737
20
549.467995
11
46.967334
21
549.424995
0
LINE
8
0
10
46.967334
20
549.424995
11
47.128235
21
549.366995
0
LINE
8
0
10
47.128235
20
549.366995
11
47.281135
21
549.292995
0
LINE
8
0
10
47.281135
20
549.292995
11
47.425436
21
549.204995
0
LINE
8
0
10
47.425436
20
549.204995
11
47.560135
21
549.103995
0
LINE
8
0
10
47.560135
20
549.103995
11
47.684433
21
548.991995
0
LINE
8
0
10
47.684433
20
548.991995
11
47.797334
21
548.866996
0
LINE
8
0
10
47.797334
20
548.866996
11
47.898235
21
548.731996
0
LINE
8
0
10
47.898235
20
548.731996
11
47.985833
21
548.586996
0
LINE
8
0
10
47.985833
20
548.586996
11
48.059633
21
548.434996
0
LINE
8
0
10
48.059633
20
548.434996
11
48.118334
21
548.274996
0
LINE
8
0
10
48.118334
20
548.274996
11
48.161535
21
548.106997
0
LINE
8
0
10
48.161535
20
548.106997
11
48.188033
21
547.932997
0
LINE
8
0
10
48.188033
20
547.932997
11
48.197134
21
547.797997
0
LINE
8
0
10
48.197134
20
547.797997
11
48.197134
21
547.753997
0
LINE
8
0
10
80.136195
20
602.986927
11
130.136129
21
602.986927
0
LINE
8
0
10
176.136072
20
463.987103
11
176.136072
21
382.988205
0
LINE
8
0
10
222.136015
20
463.987103
11
222.136015
21
382.988205
0
LINE
8
0
10
5.136298
20
382.988205
11
5.136298
21
572.986964
0
LINE
8
0
10
5.136298
20
572.986964
11
5.136298
21
573.479964
0
LINE
8
0
10
5.136298
20
573.479964
11
5.168688
21
574.960962
0
LINE
8
0
10
5.168688
20
574.960962
11
5.265688
21
576.925960
0
LINE
8
0
10
5.265688
20
576.925960
11
5.426828
21
578.885959
0
LINE
8
0
10
5.426828
20
578.885959
11
5.651758
21
580.835957
0
LINE
8
0
10
5.651758
20
580.835957
11
5.940007
21
582.775953
0
LINE
8
0
10
5.940007
20
582.775953
11
6.291187
21
584.703951
0
LINE
8
0
10
6.291187
20
584.703951
11
6.704886
21
586.617947
0
LINE
8
0
10
6.704886
20
586.617947
11
7.180726
21
588.515946
0
LINE
8
0
10
7.180726
20
588.515946
11
7.718275
21
590.399944
0
LINE
8
0
10
7.718275
20
590.399944
11
8.317134
21
592.264942
0
LINE
8
0
10
8.317134
20
592.264942
11
8.976903
21
594.109937
0
LINE
8
0
10
8.976903
20
594.109937
11
9.697112
21
595.932936
0
LINE
8
0
10
9.697112
20
595.932936
11
10.477451
21
597.734934
0
LINE
8
0
10
10.477451
20
597.734934
11
11.317390
21
599.511931
0
LINE
8
0
10
11.317390
20
599.511931
11
12.216639
21
601.263928
0
LINE
8
0
10
12.216639
20
601.263928
11
12.928238
21
602.560928
0
LINE
8
0
10
12.928238
20
602.560928
11
13.174768
21
602.986927
0
LINE
8
0
10
13.174768
20
602.986927
11
13.421288
21
603.414927
0
LINE
8
0
10
13.421288
20
603.414927
11
14.188977
21
604.679925
0
LINE
8
0
10
14.188977
20
604.679925
11
15.256275
21
606.334924
0
LINE
8
0
10
15.256275
20
606.334924
11
16.375374
21
607.949922
0
LINE
8
0
10
16.375374
20
607.949922
11
17.545172
21
609.525919
0
LINE
8
0
10
17.545172
20
609.525919
11
18.764771
21
611.061918
0
LINE
8
0
10
18.764771
20
611.061918
11
20.032669
21
612.556916
0
LINE
8
0
10
20.032669
20
612.556916
11
21.348068
21
614.006912
0
LINE
8
0
10
21.348068
20
614.006912
11
22.709866
21
615.413912
0
LINE
8
0
10
22.709866
20
615.413912
11
24.116664
21
616.775911
0
LINE
8
0
10
24.116664
20
616.775911
11
25.567662
21
618.090907
0
LINE
8
0
10
25.567662
20
618.090907
11
27.061560
21
619.359908
0
LINE
8
0
10
27.061560
20
619.359908
11
28.597259
21
620.578905
0
LINE
8
0
10
28.597259
20
620.578905
11
30.173756
21
621.747905
0
LINE
8
0
10
30.173756
20
621.747905
11
31.789755
21
622.867903
0
LINE
8
0
10
31.789755
20
622.867903
11
33.444352
21
623.934900
0
LINE
8
0
10
33.444352
20
623.934900
11
34.709151
21
624.702900
0
LINE
8
0
10
34.709151
20
624.702900
11
35.136251
21
624.949901
0
LINE
8
0
10
35.136251
20
624.949901
11
35.563249
21
625.195900
0
LINE
8
0
10
35.563249
20
625.195900
11
36.860549
21
625.907898
0
LINE
8
0
10
36.860549
20
625.907898
11
38.612147
21
626.806898
0
LINE
8
0
10
38.612147
20
626.806898
11
40.389343
21
627.646896
0
LINE
8
0
10
40.389343
20
627.646896
11
42.190542
21
628.427895
0
LINE
8
0
10
42.190542
20
628.427895
11
44.014638
21
629.146894
0
LINE
8
0
10
44.014638
20
629.146894
11
45.859737
21
629.806894
0
LINE
8
0
10
45.859737
20
629.806894
11
47.724335
21
630.404894
0
LINE
8
0
10
47.724335
20
630.404894
11
49.607132
21
630.942891
0
LINE
8
0
10
49.607132
20
630.942891
11
51.506430
21
631.418892
0
LINE
8
0
10
51.506430
20
631.418892
11
53.420728
21
631.832890
0
LINE
8
0
10
53.420728
20
631.832890
11
55.348323
21
632.184892
0
LINE
8
0
10
55.348323
20
632.184892
11
57.288021
21
632.471890
0
LINE
8
0
10
57.288021
20
632.471890
11
59.238321
21
632.696889
0
LINE
8
0
10
59.238321
20
632.696889
11
61.197317
21
632.857890
0
LINE
8
0
10
61.197317
20
632.857890
11
63.163915
21
632.954889
0
LINE
8
0
10
63.163915
20
632.954889
11
64.643214
21
632.986890
0
LINE
8
0
10
64.643214
20
632.986890
11
65.136212
21
632.986890
0
LINE
8
0
10
65.136212
20
632.986890
11
80.136195
21
632.986890
0
LINE
8
0
10
80.136195
20
632.986890
11
80.136195
21
382.988205
0
LINE
8
0
10
59.447119
20
522.762029
11
59.570520
21
522.762029
0
LINE
8
0
10
59.570520
20
522.762029
11
59.941220
21
522.787029
0
LINE
8
0
10
59.941220
20
522.787029
11
60.427119
21
522.860029
0
LINE
8
0
10
60.427119
20
522.860029
11
60.901217
21
522.979029
0
LINE
8
0
10
60.901217
20
522.979029
11
61.360417
21
523.143028
0
LINE
8
0
10
61.360417
20
523.143028
11
61.801416
21
523.353028
0
LINE
8
0
10
61.801416
20
523.353028
11
62.221015
21
523.603028
0
LINE
8
0
10
62.221015
20
523.603028
11
62.615815
21
523.896028
0
LINE
8
0
10
62.615815
20
523.896028
11
62.895114
21
524.140027
0
LINE
8
0
10
62.895114
20
524.140027
11
62.982615
21
524.228027
0
LINE
8
0
10
62.982615
20
524.228027
11
63.070014
21
524.315027
0
LINE
8
0
10
63.070014
20
524.315027
11
63.314714
21
524.594027
0
LINE
8
0
10
63.314714
20
524.594027
11
63.606914
21
524.989026
0
LINE
8
0
10
63.606914
20
524.989026
11
63.857913
21
525.408025
0
LINE
8
0
10
63.857913
20
525.408025
11
64.066413
21
525.850025
0
LINE
8
0
10
64.066413
20
525.850025
11
64.230915
21
526.308024
0
LINE
8
0
10
64.230915
20
526.308024
11
64.350014
21
526.783024
0
LINE
8
0
10
64.350014
20
526.783024
11
64.422613
21
527.269023
0
LINE
8
0
10
64.422613
20
527.269023
11
64.447113
21
527.639023
0
LINE
8
0
10
64.447113
20
527.639023
11
64.447113
21
527.762023
0
LINE
8
0
10
64.447113
20
527.762023
11
64.447113
21
607.761920
0
LINE
8
0
10
64.447113
20
607.761920
11
64.447113
21
607.885922
0
LINE
8
0
10
64.447113
20
607.885922
11
64.422507
21
608.253920
0
LINE
8
0
10
64.422507
20
608.253920
11
64.349707
21
608.736919
0
LINE
8
0
10
64.349707
20
608.736919
11
64.230108
21
609.209919
0
LINE
8
0
10
64.230108
20
609.209919
11
64.065008
21
609.664920
0
LINE
8
0
10
64.065008
20
609.664920
11
63.855908
21
610.103919
0
LINE
8
0
10
63.855908
20
610.103919
11
63.604308
21
610.518917
0
LINE
8
0
10
63.604308
20
610.518917
11
63.311208
21
610.910918
0
LINE
8
0
10
63.311208
20
610.910918
11
63.066008
21
611.186918
0
LINE
8
0
10
63.066008
20
611.186918
11
62.978511
21
611.272918
0
LINE
8
0
10
62.978511
20
611.272918
11
62.890810
21
611.359916
0
LINE
8
0
10
62.890810
20
611.359916
11
62.611010
21
611.600916
0
LINE
8
0
10
62.611010
20
611.600916
11
62.215811
21
611.888915
0
LINE
8
0
10
62.215811
20
611.888915
11
61.796111
21
612.134916
0
LINE
8
0
10
61.796111
20
612.134916
11
61.355411
21
612.336915
0
LINE
8
0
10
61.355411
20
612.336915
11
60.896812
21
612.495916
0
LINE
8
0
10
60.896812
20
612.495916
11
60.423613
21
612.607917
0
LINE
8
0
10
60.423613
20
612.607917
11
59.939614
21
612.674914
0
LINE
8
0
10
59.939614
20
612.674914
11
59.570415
21
612.693911
0
LINE
8
0
10
59.570415
20
612.693911
11
59.447513
21
612.691795
0
LINE
8
0
10
59.447513
20
612.691795
11
59.033914
21
612.560794
0
LINE
8
0
10
59.033914
20
612.560794
11
57.802116
21
612.140795
0
LINE
8
0
10
57.802116
20
612.140795
11
56.180019
21
611.534794
0
LINE
8
0
10
56.180019
20
611.534794
11
54.582919
21
610.872795
0
LINE
8
0
10
54.582919
20
610.872795
11
53.011823
21
610.159796
0
LINE
8
0
10
53.011823
20
610.159796
11
51.468224
21
609.390796
0
LINE
8
0
10
51.468224
20
609.390796
11
49.953227
21
608.571798
0
LINE
8
0
10
49.953227
20
608.571798
11
48.468229
21
607.700799
0
LINE
8
0
10
48.468229
20
607.700799
11
47.014430
21
606.779801
0
LINE
8
0
10
47.014430
20
606.779801
11
45.593233
21
605.809803
0
LINE
8
0
10
45.593233
20
605.809803
11
44.205834
21
604.791804
0
LINE
8
0
10
44.205834
20
604.791804
11
42.853635
21
603.724804
0
LINE
8
0
10
42.853635
20
603.724804
11
41.537938
21
602.610807
0
LINE
8
0
10
41.537938
20
602.610807
11
40.259740
21
601.449809
0
LINE
8
0
10
40.259740
20
601.449809
11
39.020740
21
600.245810
0
LINE
8
0
10
39.020740
20
600.245810
11
37.821840
21
598.995812
0
LINE
8
0
10
37.821840
20
598.995812
11
36.948243
21
598.029811
0
LINE
8
0
10
36.948243
20
598.029811
11
36.664742
21
597.702813
0
LINE
8
0
10
36.664742
20
597.702813
11
36.380942
21
597.374812
0
LINE
8
0
10
36.380942
20
597.374812
11
35.552946
21
596.370815
0
LINE
8
0
10
35.552946
20
596.370815
11
34.490447
21
595.002815
0
LINE
8
0
10
34.490447
20
595.002815
11
33.477647
21
593.602817
0
LINE
8
0
10
33.477647
20
593.602817
11
32.515348
21
592.168819
0
LINE
8
0
10
32.515348
20
592.168819
11
31.603949
21
590.706821
0
LINE
8
0
10
31.603949
20
590.706821
11
30.744351
21
589.213824
0
LINE
8
0
10
30.744351
20
589.213824
11
29.937151
21
587.692826
0
LINE
8
0
10
29.937151
20
587.692826
11
29.182853
21
586.146828
0
LINE
8
0
10
29.182853
20
586.146828
11
28.482353
21
584.574829
0
LINE
8
0
10
28.482353
20
584.574829
11
27.836154
21
582.978830
0
LINE
8
0
10
27.836154
20
582.978830
11
27.244855
21
581.360834
0
LINE
8
0
10
27.244855
20
581.360834
11
26.709356
21
579.722835
0
LINE
8
0
10
26.709356
20
579.722835
11
26.230056
21
578.064836
0
LINE
8
0
10
26.230056
20
578.064836
11
25.807657
21
576.388840
0
LINE
8
0
10
25.807657
20
576.388840
11
25.442857
21
574.695842
0
LINE
8
0
10
25.442857
20
574.695842
11
25.205458
21
573.416843
0
LINE
8
0
10
25.205458
20
573.416843
11
25.136258
21
572.986843
0
LINE
8
0
10
25.136258
20
572.986843
11
25.422157
21
527.761901
0
LINE
8
0
10
25.422157
20
527.761901
11
25.422845
21
527.635901
0
LINE
8
0
10
25.422845
20
527.635901
11
25.450845
21
527.252902
0
LINE
8
0
10
25.450845
20
527.252902
11
25.528945
21
526.757902
0
LINE
8
0
10
25.528945
20
526.757902
11
25.653945
21
526.279903
0
LINE
8
0
10
25.653945
20
526.279903
11
25.823345
21
525.821903
0
LINE
8
0
10
25.823345
20
525.821903
11
26.034745
21
525.385904
0
LINE
8
0
10
26.034745
20
525.385904
11
26.285544
21
524.974904
0
LINE
8
0
10
26.285544
20
524.974904
11
26.573344
21
524.590905
0
LINE
8
0
10
26.573344
20
524.590905
11
26.895743
21
524.236905
0
LINE
8
0
10
26.895743
20
524.236905
11
27.250143
21
523.913906
0
LINE
8
0
10
27.250143
20
523.913906
11
27.634143
21
523.625906
0
LINE
8
0
10
27.634143
20
523.625906
11
28.045442
21
523.375906
0
LINE
8
0
10
28.045442
20
523.375906
11
28.481241
21
523.163907
0
LINE
8
0
10
28.481241
20
523.163907
11
28.939341
21
522.993907
0
LINE
8
0
10
28.939341
20
522.993907
11
29.417240
21
522.868907
0
LINE
8
0
10
29.417240
20
522.868907
11
29.912240
21
522.791907
0
LINE
8
0
10
29.912240
20
522.791907
11
30.294642
21
522.763907
0
LINE
8
0
10
30.294642
20
522.763907
11
30.422139
21
522.761896
0
LINE
8
0
10
30.422139
20
522.761896
11
59.447103
21
522.761896
0
LINE
8
0
10
59.447103
20
522.761896
11
59.447119
21
522.762029
0
LINE
8
0
10
24.934663
20
502.762053
11
24.934663
21
502.886053
0
LINE
8
0
10
24.934663
20
502.886053
11
24.958962
21
503.257054
0
LINE
8
0
10
24.958962
20
503.257054
11
25.031562
21
503.743053
0
LINE
8
0
10
25.031562
20
503.743053
11
25.150562
21
504.216051
0
LINE
8
0
10
25.150562
20
504.216051
11
25.315162
21
504.676052
0
LINE
8
0
10
25.315162
20
504.676052
11
25.523662
21
505.118051
0
LINE
8
0
10
25.523662
20
505.118051
11
25.774662
21
505.537050
0
LINE
8
0
10
25.774662
20
505.537050
11
26.066861
21
505.932049
0
LINE
8
0
10
26.066861
20
505.932049
11
26.311661
21
506.211049
0
LINE
8
0
10
26.311661
20
506.211049
11
26.399061
21
506.298049
0
LINE
8
0
10
26.399061
20
506.298049
11
26.486461
21
506.386049
0
LINE
8
0
10
26.486461
20
506.386049
11
26.765760
21
506.630048
0
LINE
8
0
10
26.765760
20
506.630048
11
27.160560
21
506.923050
0
LINE
8
0
10
27.160560
20
506.923050
11
27.580159
21
507.173049
0
LINE
8
0
10
27.580159
20
507.173049
11
28.021159
21
507.382048
0
LINE
8
0
10
28.021159
20
507.382048
11
28.480358
21
507.547048
0
LINE
8
0
10
28.480358
20
507.547048
11
28.954458
21
507.667047
0
LINE
8
0
10
28.954458
20
507.667047
11
29.440357
21
507.739048
0
LINE
8
0
10
29.440357
20
507.739048
11
29.811056
21
507.762040
0
LINE
8
0
10
29.811056
20
507.762040
11
29.934656
21
507.762040
0
LINE
8
0
10
29.934656
20
507.762040
11
59.934618
21
507.762040
0
LINE
8
0
10
59.934618
20
507.762040
11
60.062219
21
507.762040
0
LINE
8
0
10
60.062219
20
507.762040
11
60.445719
21
507.737037
0
LINE
8
0
10
60.445719
20
507.737037
11
60.942217
21
507.661038
0
LINE
8
0
10
60.942217
20
507.661038
11
61.421416
21
507.539036
0
LINE
8
0
10
61.421416
20
507.539036
11
61.880716
21
507.371036
0
LINE
8
0
10
61.880716
20
507.371036
11
62.317815
21
507.160037
0
LINE
8
0
10
62.317815
20
507.160037
11
62.730015
21
506.910038
0
LINE
8
0
10
62.730015
20
506.910038
11
63.115015
21
506.621039
0
LINE
8
0
10
63.115015
20
506.621039
11
63.470014
21
506.298039
0
LINE
8
0
10
63.470014
20
506.298039
11
63.792815
21
505.943040
0
LINE
8
0
10
63.792815
20
505.943040
11
64.080515
21
505.558040
0
LINE
8
0
10
64.080515
20
505.558040
11
64.331014
21
505.146042
0
LINE
8
0
10
64.331014
20
505.146042
11
64.541514
21
504.710041
0
LINE
8
0
10
64.541514
20
504.710041
11
64.709712
21
504.250042
0
LINE
8
0
10
64.709712
20
504.250042
11
64.832912
21
503.771043
0
LINE
8
0
10
64.832912
20
503.771043
11
64.908713
21
503.275043
0
LINE
8
0
10
64.908713
20
503.275043
11
64.934615
21
502.890043
0
LINE
8
0
10
64.934615
20
502.890043
11
64.934615
21
502.762043
0
LINE
8
0
10
64.934615
20
502.762043
11
64.934615
21
442.762119
0
LINE
8
0
10
64.934615
20
442.762119
11
64.934615
21
442.635120
0
LINE
8
0
10
64.934615
20
442.635120
11
64.908713
21
442.251120
0
LINE
8
0
10
64.908713
20
442.251120
11
64.832912
21
441.755119
0
LINE
8
0
10
64.832912
20
441.755119
11
64.709712
21
441.276121
0
LINE
8
0
10
64.709712
20
441.276121
11
64.541514
21
440.816122
0
LINE
8
0
10
64.541514
20
440.816122
11
64.331014
21
440.379121
0
LINE
8
0
10
64.331014
20
440.379121
11
64.080515
21
439.968123
0
LINE
8
0
10
64.080515
20
439.968123
11
63.792815
21
439.582123
0
LINE
8
0
10
63.792815
20
439.582123
11
63.470014
21
439.228124
0
LINE
8
0
10
63.470014
20
439.228124
11
63.115015
21
438.905124
0
LINE
8
0
10
63.115015
20
438.905124
11
62.730015
21
438.617125
0
LINE
8
0
10
62.730015
20
438.617125
11
62.317815
21
438.367123
0
LINE
8
0
10
62.317815
20
438.367123
11
61.880716
21
438.155124
0
LINE
8
0
10
61.880716
20
438.155124
11
61.421416
21
437.987124
0
LINE
8
0
10
61.421416
20
437.987124
11
60.942217
21
437.865125
0
LINE
8
0
10
60.942217
20
437.865125
11
60.445719
21
437.789126
0
LINE
8
0
10
60.445719
20
437.789126
11
60.062219
21
437.762125
0
LINE
8
0
10
60.062219
20
437.762125
11
59.934618
21
437.762125
0
LINE
8
0
10
59.934618
20
437.762125
11
29.934656
21
437.762125
0
LINE
8
0
10
29.934656
20
437.762125
11
29.806656
21
437.762125
0
LINE
8
0
10
29.806656
20
437.762125
11
29.423357
21
437.789126
0
LINE
8
0
10
29.423357
20
437.789126
11
28.926858
21
437.865125
0
LINE
8
0
10
28.926858
20
437.865125
11
28.447658
21
437.987124
0
LINE
8
0
10
28.447658
20
437.987124
11
27.988359
21
438.155124
0
LINE
8
0
10
27.988359
20
438.155124
11
27.551259
21
438.367123
0
LINE
8
0
10
27.551259
20
438.367123
11
27.138960
21
438.617125
0
LINE
8
0
10
27.138960
20
438.617125
11
26.754060
21
438.905124
0
LINE
8
0
10
26.754060
20
438.905124
11
26.399061
21
439.228124
0
LINE
8
0
10
26.399061
20
439.228124
11
26.076261
21
439.582123
0
LINE
8
0
10
26.076261
20
439.582123
11
25.788561
21
439.968123
0
LINE
8
0
10
25.788561
20
439.968123
11
25.537962
21
440.379121
0
LINE
8
0
10
25.537962
20
440.379121
11
25.327362
21
440.816122
0
LINE
8
0
10
25.327362
20
440.816122
11
25.159362
21
441.276121
0
LINE
8
0
10
25.159362
20
441.276121
11
25.036163
21
441.755119
0
LINE
8
0
10
25.036163
20
441.755119
11
24.960363
21
442.251120
0
LINE
8
0
10
24.960363
20
442.251120
11
24.934664
21
442.635120
0
LINE
8
0
10
24.934664
20
442.635120
11
24.934664
21
442.762119
0
LINE
8
0
10
24.934664
20
442.762119
11
24.934664
21
502.762043
0
LINE
8
0
10
24.934664
20
502.762043
11
24.934663
21
502.762053
0
LINE
8
0
10
254.131973
20
256.984258
11
254.131973
21
271.984236
0
LINE
8
0
10
254.131973
20
271.984236
11
254.131973
21
272.477445
0
LINE
8
0
10
254.131973
20
272.477445
11
254.099975
21
273.956544
0
LINE
8
0
10
254.099975
20
273.956544
11
254.002973
21
275.923030
0
LINE
8
0
10
254.002973
20
275.923030
11
253.841975
21
277.882135
0
LINE
8
0
10
253.841975
20
277.882135
11
253.616976
21
279.832429
0
LINE
8
0
10
253.616976
20
279.832429
11
253.327975
21
281.772132
0
LINE
8
0
10
253.327975
20
281.772132
11
252.975976
21
283.699929
0
LINE
8
0
10
252.975976
20
283.699929
11
252.563975
21
285.614028
0
LINE
8
0
10
252.563975
20
285.614028
11
252.087977
21
287.513324
0
LINE
8
0
10
252.087977
20
287.513324
11
251.549977
21
289.396123
0
LINE
8
0
10
251.549977
20
289.396123
11
250.950979
21
291.260819
0
LINE
8
0
10
250.950979
20
291.260819
11
250.291980
21
293.105818
0
LINE
8
0
10
250.291980
20
293.105818
11
249.570981
21
294.929916
0
LINE
8
0
10
249.570981
20
294.929916
11
248.789982
21
296.731113
0
LINE
8
0
10
248.789982
20
296.731113
11
247.950981
21
298.508311
0
LINE
8
0
10
247.950981
20
298.508311
11
247.050984
21
300.259909
0
LINE
8
0
10
247.050984
20
300.259909
11
246.339986
21
301.557207
0
LINE
8
0
10
246.339986
20
301.557207
11
246.092984
21
301.984207
0
LINE
8
0
10
246.092984
20
301.984207
11
245.846985
21
302.411207
0
LINE
8
0
10
245.846985
20
302.411207
11
245.078986
21
303.676104
0
LINE
8
0
10
245.078986
20
303.676104
11
244.012986
21
305.330703
0
LINE
8
0
10
244.012986
20
305.330703
11
242.892988
21
306.946702
0
LINE
8
0
10
242.892988
20
306.946702
11
241.723991
21
308.523199
0
LINE
8
0
10
241.723991
20
308.523199
11
240.503991
21
310.058897
0
LINE
8
0
10
240.503991
20
310.058897
11
239.235993
21
311.552796
0
LINE
8
0
10
239.235993
20
311.552796
11
237.918994
21
313.003692
0
LINE
8
0
10
237.918994
20
313.003692
11
236.557998
21
314.410490
0
LINE
8
0
10
236.557998
20
314.410490
11
235.150998
21
315.772389
0
LINE
8
0
10
235.150998
20
315.772389
11
233.700001
21
317.087787
0
LINE
8
0
10
233.700001
20
317.087787
11
232.207002
21
318.355785
0
LINE
8
0
10
232.207002
20
318.355785
11
230.671005
21
319.575286
0
LINE
8
0
10
230.671005
20
319.575286
11
229.094005
21
320.745084
0
LINE
8
0
10
229.094005
20
320.745084
11
227.478009
21
321.864183
0
LINE
8
0
10
227.478009
20
321.864183
11
225.824011
21
322.931481
0
LINE
8
0
10
225.824011
20
322.931481
11
224.558013
21
323.699179
0
LINE
8
0
10
224.558013
20
323.699179
11
224.132013
21
323.945678
0
LINE
8
0
10
224.132013
20
323.945678
11
223.706013
21
324.192378
0
LINE
8
0
10
223.706013
20
324.192378
11
222.407014
21
324.903879
0
LINE
8
0
10
222.407014
20
324.903879
11
220.656017
21
325.803077
0
LINE
8
0
10
220.656017
20
325.803077
11
218.879019
21
326.643075
0
LINE
8
0
10
218.879019
20
326.643075
11
217.078021
21
327.423275
0
LINE
8
0
10
217.078021
20
327.423275
11
215.254023
21
328.143573
0
LINE
8
0
10
215.254023
20
328.143573
11
213.408025
21
328.803274
0
LINE
8
0
10
213.408025
20
328.803274
11
211.545027
21
329.402173
0
LINE
8
0
10
211.545027
20
329.402173
11
209.661030
21
329.939671
0
LINE
8
0
10
209.661030
20
329.939671
11
207.761033
21
330.415571
0
LINE
8
0
10
207.761033
20
330.415571
11
205.847034
21
330.829271
0
LINE
8
0
10
205.847034
20
330.829271
11
203.920039
21
331.180370
0
LINE
8
0
10
203.920039
20
331.180370
11
201.981040
21
331.468670
0
LINE
8
0
10
201.981040
20
331.468670
11
200.029042
21
331.693568
0
LINE
8
0
10
200.029042
20
331.693568
11
198.071045
21
331.854868
0
LINE
8
0
10
198.071045
20
331.854868
11
196.104048
21
331.951769
0
LINE
8
0
10
196.104048
20
331.951769
11
194.625050
21
331.984170
0
LINE
8
0
10
194.625050
20
331.984170
11
194.132050
21
331.984170
0
LINE
8
0
10
194.132050
20
331.984170
11
4.132289
21
331.984170
0
LINE
8
0
10
4.132289
20
331.984170
11
4.132289
21
256.984258
0
LINE
8
0
10
194.132050
20
311.984193
11
194.560050
21
311.914994
0
LINE
8
0
10
194.560050
20
311.914994
11
195.840047
21
311.677594
0
LINE
8
0
10
195.840047
20
311.677594
11
197.533045
21
311.312896
0
LINE
8
0
10
197.533045
20
311.312896
11
199.208043
21
310.890497
0
LINE
8
0
10
199.208043
20
310.890497
11
200.867042
21
310.411096
0
LINE
8
0
10
200.867042
20
310.411096
11
202.506038
21
309.875498
0
LINE
8
0
10
202.506038
20
309.875498
11
204.124038
21
309.284298
0
LINE
8
0
10
204.124038
20
309.284298
11
205.718036
21
308.638099
0
LINE
8
0
10
205.718036
20
308.638099
11
207.290032
21
307.937600
0
LINE
8
0
10
207.290032
20
307.937600
11
208.838031
21
307.183300
0
LINE
8
0
10
208.838031
20
307.183300
11
210.358028
21
306.376102
0
LINE
8
0
10
210.358028
20
306.376102
11
211.850028
21
305.516501
0
LINE
8
0
10
211.850028
20
305.516501
11
213.314026
21
304.605103
0
LINE
8
0
10
213.314026
20
304.605103
11
214.746024
21
303.642804
0
LINE
8
0
10
214.746024
20
303.642804
11
216.147022
21
302.630006
0
LINE
8
0
10
216.147022
20
302.630006
11
217.514020
21
301.567507
0
LINE
8
0
10
217.514020
20
301.567507
11
218.518020
21
300.739408
0
LINE
8
0
10
218.518020
20
300.739408
11
218.847018
21
300.455708
0
LINE
8
0
10
218.847018
20
300.455708
11
219.175019
21
300.172210
0
LINE
8
0
10
219.175019
20
300.172210
11
220.140017
21
299.298610
0
LINE
8
0
10
220.140017
20
299.298610
11
221.389015
21
298.099711
0
LINE
8
0
10
221.389015
20
298.099711
11
222.594013
21
296.860713
0
LINE
8
0
10
222.594013
20
296.860713
11
223.754014
21
295.582515
0
LINE
8
0
10
223.754014
20
295.582515
11
224.868012
21
294.266816
0
LINE
8
0
10
224.868012
20
294.266816
11
225.935011
21
292.914619
0
LINE
8
0
10
225.935011
20
292.914619
11
226.954008
21
291.527220
0
LINE
8
0
10
226.954008
20
291.527220
11
227.925009
21
290.106023
0
LINE
8
0
10
227.925009
20
290.106023
11
228.846006
21
288.652224
0
LINE
8
0
10
228.846006
20
288.652224
11
229.717006
21
287.167226
0
LINE
8
0
10
229.717006
20
287.167226
11
230.536004
21
285.652229
0
LINE
8
0
10
230.536004
20
285.652229
11
231.303003
21
284.108630
0
LINE
8
0
10
231.303003
20
284.108630
11
232.018002
21
282.537632
0
LINE
8
0
10
232.018002
20
282.537632
11
232.679002
21
280.940434
0
LINE
8
0
10
232.679002
20
280.940434
11
233.285000
21
279.318344
0
LINE
8
0
10
233.285000
20
279.318344
11
233.705999
21
278.086525
0
LINE
8
0
10
233.705999
20
278.086525
11
233.835999
21
277.672929
0
LINE
8
0
10
233.835999
20
277.672929
11
233.838116
21
277.550030
0
LINE
8
0
10
233.838116
20
277.550030
11
233.818114
21
277.181043
0
LINE
8
0
10
233.818114
20
277.181043
11
233.753113
21
276.696830
0
LINE
8
0
10
233.753113
20
276.696830
11
233.639115
21
276.223649
0
LINE
8
0
10
233.639115
20
276.223649
11
233.481114
21
275.765048
0
LINE
8
0
10
233.481114
20
275.765048
11
233.278116
21
275.324332
0
LINE
8
0
10
233.278116
20
275.324332
11
233.032114
21
274.904650
0
LINE
8
0
10
233.032114
20
274.904650
11
232.744116
21
274.509443
0
LINE
8
0
10
232.744116
20
274.509443
11
232.504115
21
274.229646
0
LINE
8
0
10
232.504115
20
274.229646
11
232.417115
21
274.141937
0
LINE
8
0
10
232.417115
20
274.141937
11
232.331115
21
274.054439
0
LINE
8
0
10
232.331115
20
274.054439
11
232.054115
21
273.809250
0
LINE
8
0
10
232.054115
20
273.809250
11
231.664117
21
273.516145
0
LINE
8
0
10
231.664117
20
273.516145
11
231.247116
21
273.264447
0
LINE
8
0
10
231.247116
20
273.264447
11
230.810117
21
273.055453
0
LINE
8
0
10
230.810117
20
273.055453
11
230.353119
21
272.890353
0
LINE
8
0
10
230.353119
20
272.890353
11
229.882119
21
272.770735
0
LINE
8
0
10
229.882119
20
272.770735
11
229.399120
21
272.697949
0
LINE
8
0
10
229.399120
20
272.697949
11
229.029119
21
272.673342
0
LINE
8
0
10
229.029119
20
272.673342
11
228.907120
21
272.673342
0
LINE
8
0
10
228.907120
20
272.673342
11
148.907222
21
272.673342
0
LINE
8
0
10
148.907222
20
272.673342
11
148.783222
21
272.673342
0
LINE
8
0
10
148.783222
20
272.673342
11
148.413221
21
272.697949
0
LINE
8
0
10
148.413221
20
272.697949
11
147.926222
21
272.770550
0
LINE
8
0
10
147.926222
20
272.770550
11
147.453222
21
272.889745
0
LINE
8
0
10
147.453222
20
272.889745
11
146.993223
21
273.054157
0
LINE
8
0
10
146.993223
20
273.054157
11
146.553224
21
273.262648
0
LINE
8
0
10
146.553224
20
273.262648
11
146.133225
21
273.513658
0
LINE
8
0
10
146.133225
20
273.513658
11
145.738224
21
273.805837
0
LINE
8
0
10
145.738224
20
273.805837
11
145.458226
21
274.050735
0
LINE
8
0
10
145.458226
20
274.050735
11
145.371226
21
274.137942
0
LINE
8
0
10
145.371226
20
274.137942
11
145.283226
21
274.225439
0
LINE
8
0
10
145.283226
20
274.225439
11
145.039225
21
274.504760
0
LINE
8
0
10
145.039225
20
274.504760
11
144.747226
21
274.899544
0
LINE
8
0
10
144.747226
20
274.899544
11
144.496226
21
275.319146
0
LINE
8
0
10
144.496226
20
275.319146
11
144.288227
21
275.760153
0
LINE
8
0
10
144.288227
20
275.760153
11
144.124228
21
276.219337
0
LINE
8
0
10
144.124228
20
276.219337
11
144.004226
21
276.693443
0
LINE
8
0
10
144.004226
20
276.693443
11
143.932228
21
277.179350
0
LINE
8
0
10
143.932228
20
277.179350
11
143.907225
21
277.550030
0
LINE
8
0
10
143.907225
20
277.550030
11
143.907225
21
277.673432
0
LINE
8
0
10
143.907225
20
277.673432
11
143.907225
21
306.698407
0
LINE
8
0
10
143.907225
20
306.698407
11
143.908283
21
306.825907
0
LINE
8
0
10
143.908283
20
306.825907
11
143.936281
21
307.208306
0
LINE
8
0
10
143.936281
20
307.208306
11
144.014283
21
307.703407
0
LINE
8
0
10
144.014283
20
307.703407
11
144.139283
21
308.181204
0
LINE
8
0
10
144.139283
20
308.181204
11
144.308282
21
308.639306
0
LINE
8
0
10
144.308282
20
308.639306
11
144.520282
21
309.075103
0
LINE
8
0
10
144.520282
20
309.075103
11
144.771281
21
309.486305
0
LINE
8
0
10
144.771281
20
309.486305
11
145.058280
21
309.870402
0
LINE
8
0
10
145.058280
20
309.870402
11
145.381280
21
310.224803
0
LINE
8
0
10
145.381280
20
310.224803
11
145.735282
21
310.547203
0
LINE
8
0
10
145.735282
20
310.547203
11
146.119279
21
310.835101
0
LINE
8
0
10
146.119279
20
310.835101
11
146.531280
21
311.085801
0
LINE
8
0
10
146.531280
20
311.085801
11
146.967278
21
311.297201
0
LINE
8
0
10
146.967278
20
311.297201
11
147.424279
21
311.466600
0
LINE
8
0
10
147.424279
20
311.466600
11
147.901277
21
311.591599
0
LINE
8
0
10
147.901277
20
311.591599
11
148.397278
21
311.669702
0
LINE
8
0
10
148.397278
20
311.669702
11
148.779277
21
311.697700
0
LINE
8
0
10
148.779277
20
311.697700
11
148.907277
21
311.698494
0
LINE
8
0
10
148.907277
20
311.698494
11
194.132050
21
311.984193
0
LINE
8
0
10
123.907139
20
272.186033
11
124.035139
21
272.186033
0
LINE
8
0
10
124.035139
20
272.186033
11
124.418139
21
272.211698
0
LINE
8
0
10
124.418139
20
272.211698
11
124.915137
21
272.287501
0
LINE
8
0
10
124.915137
20
272.287501
11
125.394135
21
272.410691
0
LINE
8
0
10
125.394135
20
272.410691
11
125.853137
21
272.578886
0
LINE
8
0
10
125.853137
20
272.578886
11
126.290135
21
272.789389
0
LINE
8
0
10
126.290135
20
272.789389
11
126.703136
21
273.039896
0
LINE
8
0
10
126.703136
20
273.039896
11
127.087136
21
273.327577
0
LINE
8
0
10
127.087136
20
273.327577
11
127.443135
21
273.650395
0
LINE
8
0
10
127.443135
20
273.650395
11
127.765132
21
274.005386
0
LINE
8
0
10
127.765132
20
274.005386
11
128.053134
21
274.390380
0
LINE
8
0
10
128.053134
20
274.390380
11
128.304133
21
274.802601
0
LINE
8
0
10
128.304133
20
274.802601
11
128.514133
21
275.239692
0
LINE
8
0
10
128.514133
20
275.239692
11
128.682132
21
275.698981
0
LINE
8
0
10
128.682132
20
275.698981
11
128.805131
21
276.178194
0
LINE
8
0
10
128.805131
20
276.178194
11
128.881133
21
276.674684
0
LINE
8
0
10
128.881133
20
276.674684
11
128.907141
21
277.058197
0
LINE
8
0
10
128.907141
20
277.058197
11
128.907141
21
277.185991
0
LINE
8
0
10
128.907141
20
277.185991
11
128.907141
21
307.185948
0
LINE
8
0
10
128.907141
20
307.185948
11
128.907141
21
307.309347
0
LINE
8
0
10
128.907141
20
307.309347
11
128.883144
21
307.680047
0
LINE
8
0
10
128.883144
20
307.680047
11
128.810143
21
308.165945
0
LINE
8
0
10
128.810143
20
308.165945
11
128.691144
21
308.640046
0
LINE
8
0
10
128.691144
20
308.640046
11
128.526145
21
309.099246
0
LINE
8
0
10
128.526145
20
309.099246
11
128.318143
21
309.540245
0
LINE
8
0
10
128.318143
20
309.540245
11
128.067143
21
309.959942
0
LINE
8
0
10
128.067143
20
309.959942
11
127.775144
21
310.354642
0
LINE
8
0
10
127.775144
20
310.354642
11
127.530146
21
310.633944
0
LINE
8
0
10
127.530146
20
310.633944
11
127.443145
21
310.721344
0
LINE
8
0
10
127.443145
20
310.721344
11
127.355145
21
310.808844
0
LINE
8
0
10
127.355145
20
310.808844
11
127.076145
21
311.053543
0
LINE
8
0
10
127.076145
20
311.053543
11
126.681146
21
311.345741
0
LINE
8
0
10
126.681146
20
311.345741
11
126.261147
21
311.596743
0
LINE
8
0
10
126.261147
20
311.596743
11
125.820146
21
311.805242
0
LINE
8
0
10
125.820146
20
311.805242
11
125.361147
21
311.969842
0
LINE
8
0
10
125.361147
20
311.969842
11
124.887147
21
312.088841
0
LINE
8
0
10
124.887147
20
312.088841
11
124.401147
21
312.161442
0
LINE
8
0
10
124.401147
20
312.161442
11
124.031149
21
312.185943
0
LINE
8
0
10
124.031149
20
312.185943
11
123.907139
21
312.185943
0
LINE
8
0
10
123.907139
20
312.185943
11
63.907213
21
312.185943
0
LINE
8
0
10
63.907213
20
312.185943
11
63.779414
21
312.185943
0
LINE
8
0
10
63.779414
20
312.185943
11
63.396015
21
312.160040
0
LINE
8
0
10
63.396015
20
312.160040
11
62.899615
21
312.084242
0
LINE
8
0
10
62.899615
20
312.084242
11
62.420415
21
311.961042
0
LINE
8
0
10
62.420415
20
311.961042
11
61.960917
21
311.792942
0
LINE
8
0
10
61.960917
20
311.792942
11
61.523918
21
311.582442
0
LINE
8
0
10
61.523918
20
311.582442
11
61.111619
21
311.331842
0
LINE
8
0
10
61.111619
20
311.331842
11
60.726619
21
311.044143
0
LINE
8
0
10
60.726619
20
311.044143
11
60.371620
21
310.721344
0
LINE
8
0
10
60.371620
20
310.721344
11
60.049019
21
310.366345
0
LINE
8
0
10
60.049019
20
310.366345
11
59.761118
21
309.981445
0
LINE
8
0
10
59.761118
20
309.981445
11
59.510719
21
309.569145
0
LINE
8
0
10
59.510719
20
309.569145
11
59.300119
21
309.132044
0
LINE
8
0
10
59.300119
20
309.132044
11
59.131921
21
308.672746
0
LINE
8
0
10
59.131921
20
308.672746
11
59.008721
21
308.193547
0
LINE
8
0
10
59.008721
20
308.193547
11
58.933021
21
307.697046
0
LINE
8
0
10
58.933021
20
307.697046
11
58.907224
21
307.313647
0
LINE
8
0
10
58.907224
20
307.313647
11
58.907224
21
307.185948
0
LINE
8
0
10
58.907224
20
307.185948
11
58.907224
21
277.185991
0
LINE
8
0
10
58.907224
20
277.185991
11
58.907224
21
277.058197
0
LINE
8
0
10
58.907224
20
277.058197
11
58.933021
21
276.674684
0
LINE
8
0
10
58.933021
20
276.674684
11
59.008721
21
276.178194
0
LINE
8
0
10
59.008721
20
276.178194
11
59.131921
21
275.698981
0
LINE
8
0
10
59.131921
20
275.698981
11
59.300119
21
275.239692
0
LINE
8
0
10
59.300119
20
275.239692
11
59.510719
21
274.802601
0
LINE
8
0
10
59.510719
20
274.802601
11
59.761118
21
274.390380
0
LINE
8
0
10
59.761118
20
274.390380
11
60.049019
21
274.005386
0
LINE
8
0
10
60.049019
20
274.005386
11
60.371620
21
273.650395
0
LINE
8
0
10
60.371620
20
273.650395
11
60.726619
21
273.327577
0
LINE
8
0
10
60.726619
20
273.327577
11
61.111619
21
273.039896
0
LINE
8
0
10
61.111619
20
273.039896
11
61.523918
21
272.789389
0
LINE
8
0
10
61.523918
20
272.789389
11
61.960917
21
272.578886
0
LINE
8
0
10
61.960917
20
272.578886
11
62.420415
21
272.410691
0
LINE
8
0
10
62.420415
20
272.410691
11
62.899615
21
272.287501
0
LINE
8
0
10
62.899615
20
272.287501
11
63.396015
21
272.211698
0
LINE
8
0
10
63.396015
20
272.211698
11
63.779414
21
272.186033
0
LINE
8
0
10
63.779414
20
272.186033
11
63.907213
21
272.186033
0
LINE
8
0
10
63.907213
20
272.186033
11
123.907139
21
272.186033
0
LINE
8
0
10
224.132013
20
382.988205
11
4.132289
21
382.988205
0
LINE
8
0
10
4.132289
20
382.988205
11
4.132289
21
332.988167
0
LINE
8
0
10
4.132289
20
332.988167
11
224.132013
21
332.988167
0
LINE
8
0
10
224.132013
20
332.988167
11
224.132013
21
416.857163
0
LINE
8
0
10
224.132013
20
416.857163
11
228.132008
21
416.857163
0
LINE
8
0
10
228.132008
20
416.857163
11
228.132008
21
420.857158
0
LINE
8
0
10
148.136108
20
426.439150
11
158.136096
21
426.439150
0
LINE
8
0
10
158.136096
20
426.439150
11
158.136096
21
406.439176
0
LINE
8
0
10
158.136096
20
406.439176
11
148.136108
21
406.439176
0
LINE
8
0
10
148.136108
20
406.439176
11
148.136108
21
426.439150
0
LINE
8
0
10
194.136050
20
426.439150
11
204.136036
21
426.439150
0
LINE
8
0
10
204.136036
20
426.439150
11
204.136036
21
406.439176
0
LINE
8
0
10
204.136036
20
406.439176
11
194.136050
21
406.439176
0
LINE
8
0
10
194.136050
20
406.439176
11
194.136050
21
426.439150
0
LINE
8
0
10
130.136129
20
505.987050
11
134.136127
21
505.987050
0
LINE
8
0
10
134.136127
20
505.987050
11
134.136127
21
509.987045
0
LINE
8
0
10
134.136127
20
509.987045
11
189.221056
21
509.987045
0
LINE
8
0
10
189.221056
20
509.987045
11
189.221056
21
505.987050
0
LINE
8
0
10
189.221056
20
505.987050
11
193.221051
21
505.987050
0
LINE
8
0
10
193.221051
20
467.987098
11
189.221056
21
467.987098
0
LINE
8
0
10
189.221056
20
467.987098
11
189.221056
21
463.987103
0
LINE
8
0
10
134.136127
20
463.987103
11
134.136127
21
467.987098
0
LINE
8
0
10
134.136127
20
467.987098
11
130.136129
21
467.987098
0
LINE
8
0
10
145.136112
20
499.987057
11
178.221071
21
499.987057
0
LINE
8
0
10
178.221071
20
499.987057
11
178.221071
21
473.987091
0
LINE
8
0
10
178.221071
20
473.987091
11
145.136112
21
473.987091
0
LINE
8
0
10
145.136112
20
473.987091
11
145.136112
21
499.987057
0
LINE
8
0
10
130.136129
20
551.986992
11
134.136127
21
551.986992
0
LINE
8
0
10
134.136127
20
551.986992
11
134.136127
21
555.986987
0
LINE
8
0
10
193.221051
20
551.986992
11
189.221056
21
551.986992
0
LINE
8
0
10
189.221056
20
551.986992
11
189.221056
21
555.986987
0
LINE
8
0
10
189.221056
20
555.986987
11
130.136129
21
555.986987
0
LINE
8
0
10
189.221056
20
509.987045
11
189.221056
21
513.987040
0
LINE
8
0
10
189.221056
20
513.987040
11
193.221051
21
513.987040
0
LINE
8
0
10
193.221051
20
513.987040
11
193.221051
21
555.986987
0
LINE
8
0
10
134.136127
20
509.987045
11
134.136127
21
513.987040
0
LINE
8
0
10
134.136127
20
513.987040
11
130.136129
21
513.987040
0
LINE
8
0
10
145.136112
20
545.986999
11
178.221071
21
545.986999
0
LINE
8
0
10
178.221071
20
545.986999
11
178.221071
21
519.987032
0
LINE
8
0
10
178.221071
20
519.987032
11
145.136112
21
519.987032
0
LINE
8
0
10
145.136112
20
519.987032
11
145.136112
21
545.986999
0
LINE
8
0
10
248.220983
20
463.987103
11
248.220983
21
513.987040
0
LINE
8
0
10
248.220983
20
513.987040
11
193.221051
21
513.987040
0
LINE
8
0
10
193.221051
20
513.987040
11
193.221051
21
463.987103
0
LINE
8
0
10
242.260989
20
513.987040
11
242.260989
21
517.987035
0
LINE
8
0
10
242.260989
20
517.987035
11
246.260984
21
517.987035
0
LINE
8
0
10
246.260984
20
517.987035
11
246.260984
21
555.986987
0
LINE
8
0
10
246.260984
20
555.986987
11
242.260989
21
555.986987
0
LINE
8
0
10
242.260989
20
555.986987
11
242.260989
21
559.986982
0
LINE
8
0
10
197.221046
20
513.987040
11
197.221046
21
517.987035
0
LINE
8
0
10
197.221046
20
517.987035
11
193.221051
21
517.987035
0
LINE
8
0
10
193.221051
20
555.986987
11
197.221046
21
555.986987
0
LINE
8
0
10
197.221046
20
555.986987
11
197.221046
21
559.986982
0
LINE
8
0
10
203.221040
20
549.986994
11
236.260998
21
549.986994
0
LINE
8
0
10
236.260998
20
549.986994
11
236.260998
21
523.987027
0
LINE
8
0
10
236.260998
20
523.987027
11
203.221040
21
523.987027
0
LINE
8
0
10
203.221040
20
523.987027
11
203.221040
21
549.986994
0
LINE
8
0
10
185.136061
20
563.986977
11
189.136056
21
563.986977
0
LINE
8
0
10
189.136056
20
563.986977
11
189.136056
21
559.986982
0
LINE
8
0
10
189.136056
20
559.986982
11
249.991980
21
559.986982
0
LINE
8
0
10
249.991980
20
559.986982
11
267.498958
21
584.986949
0
LINE
8
0
10
267.498958
20
584.986949
11
250.289980
21
609.561918
0
LINE
8
0
10
250.289980
20
609.561918
11
250.292096
21
609.561918
0
LINE
8
0
10
250.292096
20
609.561918
11
249.993096
21
609.986918
0
LINE
8
0
10
249.993096
20
609.986918
11
231.136120
21
609.986918
0
LINE
8
0
10
231.136120
20
609.986918
11
231.136120
21
559.986982
0
LINE
8
0
10
231.136004
20
609.027921
11
227.136009
21
609.027921
0
LINE
8
0
10
227.136009
20
609.027921
11
227.136009
21
613.027916
0
LINE
8
0
10
227.136009
20
613.027916
11
189.136056
21
613.027916
0
LINE
8
0
10
189.136056
20
613.027916
11
189.136056
21
609.027921
0
LINE
8
0
10
189.136056
20
609.027921
11
185.136061
21
609.027921
0
LINE
8
0
10
185.136061
20
609.027921
11
185.136061
21
555.986987
0
LINE
8
0
10
231.136004
20
563.986977
11
227.136009
21
563.986977
0
LINE
8
0
10
227.136009
20
563.986977
11
227.136009
21
559.986982
0
LINE
8
0
10
195.136050
20
603.027927
11
221.136015
21
603.027927
0
LINE
8
0
10
221.136015
20
603.027927
11
221.136015
21
569.986969
0
LINE
8
0
10
221.136015
20
569.986969
11
195.136050
21
569.986969
0
LINE
8
0
10
195.136050
20
569.986969
11
195.136050
21
603.027927
0
LINE
8
0
10
264.135963
20
420.857158
11
264.135963
21
424.857153
0
LINE
8
0
10
264.135963
20
424.857153
11
268.135957
21
424.857153
0
LINE
8
0
10
268.135957
20
424.857153
11
268.135957
21
459.987108
0
LINE
8
0
10
268.135957
20
459.987108
11
264.135963
21
459.987108
0
LINE
8
0
10
264.135963
20
459.987108
11
264.135963
21
463.987103
0
LINE
8
0
10
264.135963
20
463.987103
11
130.136129
21
463.987103
0
LINE
8
0
10
222.136015
20
424.857153
11
226.136010
21
424.857153
0
LINE
8
0
10
226.136010
20
424.857153
11
226.136010
21
420.857158
0
LINE
8
0
10
226.136010
20
420.857158
11
266.131958
21
420.857158
0
LINE
8
0
10
266.131958
20
420.857158
11
266.131958
21
416.857163
0
LINE
8
0
10
266.131958
20
416.857163
11
270.131956
21
416.857163
0
LINE
8
0
10
222.136015
20
459.987108
11
226.136010
21
459.987108
0
LINE
8
0
10
226.136010
20
459.987108
11
226.136010
21
463.987103
0
LINE
8
0
10
232.136001
20
453.987117
11
258.135969
21
453.987117
0
LINE
8
0
10
258.135969
20
453.987117
11
258.135969
21
430.857144
0
LINE
8
0
10
258.135969
20
430.857144
11
232.136001
21
430.857144
0
LINE
8
0
10
232.136001
20
430.857144
11
232.136001
21
453.987117
0
LINE
8
0
10
228.132008
20
377.727211
11
266.131958
21
377.727211
0
LINE
8
0
10
266.131958
20
377.727211
11
266.131958
21
381.727205
0
LINE
8
0
10
266.131958
20
381.727205
11
270.131956
21
381.727205
0
LINE
8
0
10
270.131956
20
381.727205
11
270.131956
21
635.867887
0
LINE
8
0
10
224.132013
20
381.727205
11
228.132008
21
381.727205
0
LINE
8
0
10
228.132008
20
381.727205
11
228.132008
21
373.727216
0
LINE
8
0
10
228.132008
20
373.727216
11
224.132013
21
373.727216
0
LINE
8
0
10
234.131999
20
410.857169
11
260.131967
21
410.857169
0
LINE
8
0
10
260.131967
20
410.857169
11
260.131967
21
387.726199
0
LINE
8
0
10
260.131967
20
387.726199
11
234.131999
21
387.726199
0
LINE
8
0
10
234.131999
20
387.726199
11
234.131999
21
410.857169
0
LINE
8
0
10
64.934613
20
456.762111
11
28.934658
21
456.762111
0
LINE
8
0
10
28.934658
20
456.762111
11
28.934658
21
502.762053
0
LINE
8
0
10
28.934658
20
502.762053
11
64.934613
21
502.762053
0
LINE
8
0
10
64.447113
20
537.754010
11
28.447159
21
537.754010
0
LINE
8
0
10
28.447159
20
537.754010
11
28.447159
21
583.753952
0
LINE
8
0
10
28.447159
20
583.753952
11
64.447113
21
583.753952
0
LINE
8
0
10
204.897035
20
272.673342
11
204.897035
21
276.673335
0
LINE
8
0
10
204.897035
20
276.673335
11
208.897030
21
276.673335
0
LINE
8
0
10
208.897030
20
276.673335
11
208.897030
21
304.673304
0
LINE
8
0
10
208.897030
20
304.673304
11
204.897035
21
304.673304
0
LINE
8
0
10
204.897035
20
304.673304
11
204.897035
21
308.673299
0
LINE
8
0
10
204.897035
20
308.673299
11
166.897085
21
308.673299
0
LINE
8
0
10
166.897085
20
308.673299
11
166.897085
21
304.673304
0
LINE
8
0
10
166.897085
20
304.673304
11
162.897090
21
304.673304
0
LINE
8
0
10
162.897090
20
304.673304
11
162.897090
21
276.673335
0
LINE
8
0
10
162.897090
20
276.673335
11
166.897085
21
276.673335
0
LINE
8
0
10
166.897085
20
276.673335
11
166.897085
21
272.673342
0
LINE
8
0
10
172.897076
20
298.673311
11
198.897044
21
298.673311
0
LINE
8
0
10
198.897044
20
298.673311
11
198.897044
21
282.673331
0
LINE
8
0
10
198.897044
20
282.673331
11
172.897076
21
282.673331
0
LINE
8
0
10
172.897076
20
282.673331
11
172.897076
21
298.673311
0
LINE
8
0
10
256.131972
20
377.727211
11
256.131972
21
373.727216
0
LINE
8
0
10
256.131972
20
373.727216
11
260.131967
21
373.727216
0
LINE
8
0
10
260.131967
20
373.727216
11
260.131967
21
335.727165
0
LINE
8
0
10
260.131967
20
335.727165
11
256.131972
21
335.727165
0
LINE
8
0
10
256.131972
20
335.727165
11
256.131972
21
331.727170
0
LINE
8
0
10
256.131972
20
331.727170
11
228.132008
21
331.727170
0
LINE
8
0
10
228.132008
20
331.727170
11
228.132008
21
335.727165
0
LINE
8
0
10
228.132008
20
335.727165
11
224.132013
21
335.727165
0
LINE
8
0
10
234.131999
20
367.727225
11
250.131979
21
367.727225
0
LINE
8
0
10
250.131979
20
367.727225
11
250.131979
21
341.727156
0
LINE
8
0
10
250.131979
20
341.727156
11
234.131999
21
341.727156
0
LINE
8
0
10
234.131999
20
341.727156
11
234.131999
21
367.727225
0
LINE
8
0
10
73.907202
20
272.186033
11
73.907202
21
291.043621
0
LINE
8
0
10
73.907202
20
291.043621
11
74.332101
21
291.341120
0
LINE
8
0
10
74.332101
20
291.341120
11
74.332895
21
291.339797
0
LINE
8
0
10
74.332895
20
291.339797
11
98.907165
21
308.547776
0
LINE
8
0
10
98.907165
20
308.547776
11
123.907134
21
291.041700
0
LINE
8
0
10
123.907134
20
291.041700
11
123.907134
21
272.185901
0
LINE
8
0
10
4.132289
20
252.984266
11
256.131972
21
252.984266
0
LINE
8
0
10
256.131972
20
252.984266
11
256.131972
21
256.984258
0
LINE
8
0
10
256.131972
20
256.984258
11
4.132289
21
256.984258
0
LINE
8
0
10
4.132289
20
256.984258
11
4.132289
21
248.984247
0
LINE
8
0
10
4.132289
20
248.984247
11
256.131972
21
248.984247
0
LINE
8
0
10
256.131972
20
248.984247
11
256.131972
21
252.984266
0
LINE
8
0
10
270.131956
20
635.867887
11
274.131948
21
635.867887
0
LINE
8
0
10
274.131948
20
635.867887
11
274.131948
21
383.868203
0
LINE
8
0
10
274.131948
20
635.867887
11
278.131940
21
635.867887
0
LINE
8
0
10
278.131940
20
635.867887
11
278.131940
21
383.868203
0
LINE
8
0
10
278.131940
20
383.868203
11
270.131956
21
383.868203
0
LINE
8
0
10
135.136124
20
605.986923
11
135.136124
21
628.491895
0
LINE
8
0
10
135.136124
20
628.491895
11
140.053118
21
625.047900
0
LINE
8
0
10
140.053118
20
625.047900
11
140.147119
21
625.181898
0
LINE
8
0
10
140.147119
20
625.181898
11
158.989093
21
611.986917
0
LINE
8
0
10
158.989093
20
611.986917
11
161.283092
21
611.986917
0
LINE
8
0
10
161.283092
20
611.986917
11
185.136061
21
628.691896
0
LINE
8
0
10
185.136061
20
628.691896
11
185.136061
21
605.986923
0
LINE
8
0
10
185.136061
20
605.986923
11
130.136129
21
605.986923
0
LINE
8
0
10
130.136129
20
605.986923
11
130.136129
21
382.988205
0
LINE
8
0
10
156.365097
20
615.429911
11
161.283092
21
611.986917
0
LINE
8
0
10
161.283092
20
611.986917
11
161.283092
21
634.491889
0
LINE
8
0
10
161.283092
20
634.491889
11
111.283154
21
634.491889
0
LINE
8
0
10
111.283154
20
634.491889
11
111.283154
21
611.788916
0
LINE
8
0
10
111.283154
20
611.788916
11
135.136124
21
628.491895
0
LINE
8
0
10
135.136124
20
628.491895
11
137.430122
21
628.491895
0
LINE
8
0
10
137.430122
20
628.491895
11
156.272099
21
615.296911
0
LINE
8
0
10
156.272099
20
615.296911
11
156.365097
21
615.429911
0
LINE
8
VISIBLE
10
852.379726
20
570.511986
11
850.275619
21
573.963237
0
LINE
8
VISIBLE
10
103.365295
20
118.596727
11
850.275619
21
573.963237
0
LINE
8
VISIBLE
10
105.469402
20
115.145476
11
103.365295
21
118.596727
0
LINE
8
VISIBLE
10
105.469402
20
115.145476
11
852.379726
21
570.511986
0
LINE
8
VISIBLE
10
306.602977
20
630.112839
11
302.485397
21
630.112839
0
LINE
8
VISIBLE
10
302.485397
20
255.259725
11
302.485397
21
630.112839
0
LINE
8
VISIBLE
10
306.602977
20
255.259725
11
302.485397
21
255.259725
0
LINE
8
VISIBLE
10
306.602977
20
255.259725
11
306.602977
21
630.112839
 0 
ENDSEC
 0 
EOF